<?xml version="1.0" encoding="utf-8"?>
<!-- Generator: Adobe Illustrator 25.0.0, SVG Export Plug-In . SVG Version: 6.00 Build 0)  -->
<svg version="1.1" id="Layer_1" xmlns="http://www.w3.org/2000/svg" xmlns:xlink="http://www.w3.org/1999/xlink" x="0px" y="0px"
	 viewBox="0 0 2385.9 568.2" style="enable-background:new 0 0 2385.9 568.2;" xml:space="preserve">
<style type="text/css">
	.st0{fill:#F1F2F2;}
</style>
<rect x="2256.4" y="296.5" class="st0" width="129.4" height="119.5"/>
<rect x="1972.3" y="296.5" class="st0" width="261.4" height="119.5"/>
<rect x="1820.1" y="296.5" class="st0" width="129.4" height="119.5"/>
<rect x="2103" y="154.4" class="st0" width="282.9" height="119.5"/>
<rect x="1820.1" y="154.4" class="st0" width="259" height="119.5"/>
<rect x="1972.2" y="2.4" class="st0" width="261.6" height="129.4"/>
<path class="st0" d="M2102.9,438.7h282.8v116.6c0,7-5.7,12.7-12.7,12.7c0,0,0,0,0,0h-270L2102.9,438.7L2102.9,438.7z"/>
<path class="st0" d="M1820.1,438.7h259v129.4h-246.2c-7,0-12.7-5.7-12.8-12.7c0,0,0,0,0,0l0,0L1820.1,438.7L1820.1,438.7z"/>
<path class="st0" d="M2256.5,2.4h116.6c7,0,12.7,5.7,12.7,12.7v116.6h-129.4V2.4z"/>
<path class="st0" d="M1832.9,2.4h116.6v129.4h-129.4V15.2C1820.1,8.1,1825.8,2.4,1832.9,2.4z"/>
<path class="st0" d="M1585.1,2.3L1585.1,2.3c7.1,0,12.9,5.8,12.9,12.9v540.1c0,7.1-5.8,12.9-12.9,12.9l0,0
	c-7.1,0-12.9-5.8-12.9-12.9V15.2C1572.3,8.1,1578,2.4,1585.1,2.3z"/>
<path class="st0" d="M1585.1,1.3L1585.1,1.3c7.1,0,12.9,5.8,12.9,12.9v540.1c0,7.1-5.8,12.9-12.9,12.9l0,0
	c-7.1,0-12.9-5.8-12.9-12.9V14.2C1572.3,7.1,1578,1.4,1585.1,1.3z"/>
<path class="st0" d="M1585.1,2.3L1585.1,2.3c7.1,0,12.9,5.8,12.9,12.9v540.1c0,7.1-5.8,12.9-12.9,12.9l0,0
	c-7.1,0-12.9-5.8-12.9-12.9V15.2C1572.3,8.1,1578,2.4,1585.1,2.3z"/>
<path class="st0" d="M1585.1,1.3L1585.1,1.3c7.1,0,12.9,5.8,12.9,12.9v540.1c0,7.1-5.8,12.9-12.9,12.9l0,0
	c-7.1,0-12.9-5.8-12.9-12.9V14.2C1572.3,7.1,1578,1.4,1585.1,1.3z"/>
<path class="st0" d="M1585.1,2.3L1585.1,2.3c7.1,0,12.9,5.8,12.9,12.9v540.1c0,7.1-5.8,12.9-12.9,12.9l0,0
	c-7.1,0-12.9-5.8-12.9-12.9V15.2C1572.3,8.1,1578,2.4,1585.1,2.3z"/>
<path class="st0" d="M189.8,454.2c7.3,0,13.5,1.2,18.5,3.7c4.8,2.2,8.9,5.8,11.6,10.4c2.7,4.8,4.1,10.3,4,15.8
	c0,3.7-0.6,7.4-1.6,10.9c-1.1,3.6-2.8,7-5.2,9.9c-2.6,3.1-5.8,5.6-9.5,7.2c-4.7,1.9-9.7,2.8-14.7,2.7h-12.5v28.1H163v-88.7H189.8z
	 M192.8,497.8c2.3,0.1,4.6-0.4,6.6-1.4c1.7-0.8,3.1-2,4.2-3.5c1.7-2.5,2.7-5.4,2.8-8.4c0-1.2-0.2-2.3-0.4-3.5
	c-0.3-1.6-0.9-3.1-1.7-4.5c-1-1.6-2.4-2.9-4-3.9c-2.3-1.1-4.8-1.7-7.3-1.5h-12.6v26.7L192.8,497.8z"/>
<path class="st0" d="M259,544.3c-4.6,0-9.2-1-13.3-3c-4-2-7.3-5.2-9.5-9.1c-2.3-4.1-3.5-9.3-3.5-15.7c-0.1-5.4,1.1-10.7,3.6-15.4
	c2.2-4.1,5.5-7.6,9.5-10.1c3.8-2.3,8.1-3.5,12.5-3.5c5.2,0,9.2,0.9,11.9,2.6c2.5,1.6,4.8,3.5,6.7,5.7l-0.7,2l1.6-7.7h15.6v52.6
	h-16.9v-11.4l1.3,3.6c-0.2,0-0.6,0.5-1.5,1.4c-1.1,1.2-2.3,2.3-3.5,3.3c-1.8,1.4-3.7,2.4-5.8,3.2C264.5,543.8,261.7,544.3,259,544.3
	z M263.8,530.6c1.8,0,3.7-0.3,5.4-0.9c1.6-0.6,3-1.5,4.2-2.7c1.3-1.3,2.3-2.8,3.1-4.4v-12.9c-0.6-1.7-1.6-3.3-2.9-4.5
	c-1.3-1.3-2.9-2.2-4.6-2.9c-1.9-0.7-3.9-1-5.9-1c-2.4,0-4.7,0.6-6.7,1.9c-2,1.3-3.7,3-4.9,5.1c-2.5,4.7-2.4,10.4,0.1,15.1
	c1.2,2.2,3,4,5.1,5.3C258.9,529.9,261.3,530.5,263.8,530.6L263.8,530.6z"/>
<path class="st0" d="M326,490.3l1.6,14.5l-0.4-2.2c1.5-3.1,3.6-5.8,6.3-8c2.4-2,5.1-3.7,7.9-5.1c1.9-1,3.9-1.6,6-1.8l-0.8,16.9
	c-3.5-0.6-7.1,0.1-10.1,1.9c-2.8,1.7-5,4.1-6.5,7c-1.5,2.7-2.3,5.8-2.3,8.9V543h-16.8v-52.7H326z"/>
<path class="st0" d="M365.1,467.1H382V490h12.8v13.1H382v39.8h-16.9v-39.8h-8.2V490h8.2V467.1z"/>
<path class="st0" d="M425.9,543.1l-25.8-52.9H419l19.9,44.4L425.9,543.1z M411.8,568.1l35-77.9H462l-34,77.9H411.8z"/>
<path class="st0" d="M506.2,454.8h20.5l18.9,55.6l-2.8-1.2l16.5-41.1l8.1,24l-25.5,54.8L506.2,454.8z M550.7,454.8H568l21.8,53.8
	l-3.1-0.5l16.3-53.3h18.8l-34.2,91.9L550.7,454.8z"/>
<path class="st0" d="M645.6,544.3c-4.6,0-9.2-1-13.3-3c-4-2-7.3-5.2-9.5-9.1c-2.3-4.1-3.5-9.3-3.5-15.7c-0.1-5.4,1.1-10.7,3.6-15.4
	c2.2-4.1,5.5-7.6,9.5-10.1c3.8-2.3,8.1-3.5,12.5-3.5c5.2,0,9.2,0.9,11.9,2.6c2.5,1.6,4.8,3.5,6.7,5.7l-0.7,2l1.6-7.7H680v52.6h-16.8
	v-11.4l1.3,3.6c-0.2,0-0.6,0.5-1.4,1.4c-1.1,1.2-2.3,2.3-3.5,3.3c-1.8,1.4-3.7,2.4-5.8,3.2C651.2,543.8,648.4,544.3,645.6,544.3z
	 M650.4,530.6c1.8,0,3.7-0.3,5.4-0.9c1.6-0.6,3-1.5,4.2-2.7c1.3-1.3,2.3-2.8,3.1-4.4v-12.9c-0.6-1.7-1.6-3.3-2.9-4.5
	c-1.3-1.3-2.9-2.2-4.6-2.9c-1.9-0.7-3.9-1-5.9-1c-2.4,0-4.7,0.6-6.7,1.9c-2,1.3-3.7,3-4.9,5.1c-2.5,4.7-2.4,10.4,0.1,15.1
	C640.6,527.9,645.3,530.7,650.4,530.6L650.4,530.6z"/>
<path class="st0" d="M697.4,447.8h16.9v95h-16.9V447.8z"/>
<path class="st0" d="M731.6,447.8h16.9v95h-16.9V447.8z"/>
<path class="st0" d="M855,475.7c-3.3-1.8-6.8-3.3-10.3-4.6c-3.1-1.1-6.5-1.8-9.8-1.8c-3.1-0.2-6.2,0.6-8.9,2.3
	c-2.2,1.6-3.4,4.2-3.2,6.9c0,2.1,0.9,4.2,2.5,5.6c1.9,1.8,4,3.3,6.4,4.4c2.7,1.3,5.4,2.5,8.1,3.5c2.6,1,5.2,2.1,7.7,3.4
	c2.5,1.3,4.8,3,6.8,4.9c2.1,2.1,3.7,4.6,4.8,7.3c1.3,3.4,1.9,7.1,1.8,10.8c0,4.4-1.2,8.7-3.5,12.5c-2.5,4-6,7.2-10.2,9.3
	c-4.5,2.4-10,3.6-16.6,3.5c-10.9,0-21.5-3.3-30.4-9.5l7.7-13.6c2.1,1.5,4.4,2.9,6.8,4c2.4,1.1,4.9,2,7.4,2.7c2.2,0.6,4.6,1,6.9,1
	c2.1,0,4.3-0.3,6.3-0.9c2-0.5,3.8-1.6,5.3-3.1c1.5-1.6,2.2-3.8,2.1-6c0-1.8-0.6-3.5-1.8-4.8c-1.3-1.6-2.9-2.9-4.7-4
	c-2-1.2-4.2-2.3-6.4-3.1c-2.7-1.1-5.5-2.3-8.4-3.6c-2.9-1.4-5.6-3-8.1-5c-5.6-4.3-8.8-11-8.5-18.1c-0.1-4.7,1.1-9.3,3.4-13.4
	c2.3-3.8,5.7-7,9.7-9c4.5-2.3,9.5-3.5,14.5-3.7c7.2,0,13,0.8,17.4,2.5c4.2,1.6,8.2,3.6,12,6L855,475.7z"/>
<path class="st0" d="M892.1,545.4c-4.4,0.1-8.7-1.4-11.9-4.4c-3.2-2.9-5-7.1-5-11.4v-39.3H892v33.1c0.1,2,0.7,3.9,1.8,5.6
	c1,1.4,2.8,2.1,5.3,2.1c2.4,0,4.7-0.9,6.5-2.5c2-1.9,3.4-4.3,4.2-6.9c1-3.2,1.5-6.5,1.5-9.9v-21.5h16.9v52.6h-15.3l-1.3-9.6l0.2,1.1
	c-1.2,2.2-2.7,4.1-4.6,5.8c-1.9,1.7-4.2,3-6.6,3.9C897.9,545,895,545.5,892.1,545.4L892.1,545.4z"/>
<path class="st0" d="M960.7,490.3l1.6,14.5l-0.4-2.2c1.5-3.1,3.6-5.8,6.3-8c2.4-2,5.1-3.7,7.9-5.1c1.9-1,3.9-1.6,6-1.8l-0.8,16.9
	c-3.5-0.6-7.1,0.1-10.1,1.9c-2.8,1.7-5,4.1-6.5,7c-1.5,2.7-2.3,5.8-2.3,8.9V543h-16.8v-52.7H960.7z"/>
<path class="st0" d="M1019,544l-31.6-53.7h20l18,36.4l-10.4-0.4l15.5-36h18.8l-29.9,53.7H1019z"/>
<path class="st0" d="M1083.3,544.3c-6.4,0-11.9-1.2-16.3-3.6c-4.3-2.3-7.8-5.8-10.2-10c-2.4-4.5-3.6-9.6-3.5-14.7
	c-0.1-5.1,1.4-10,4.1-14.3c2.7-4.3,6.5-7.8,11-10.2c4.7-2.6,10-3.9,15.3-3.8c7.5,0,13.8,2.2,18.6,6.6s8,10.7,9.4,19l-41,13l-3.7-9.2
	l29.6-10l-3.5,1.6c-0.7-2.1-1.8-4-3.4-5.5c-1.6-1.6-4.1-2.3-7.4-2.3c-2.3,0-4.6,0.6-6.6,1.8c-1.9,1.2-3.4,2.9-4.3,4.9
	c-1.1,2.3-1.6,4.9-1.5,7.5c-0.1,2.8,0.5,5.7,1.8,8.2c1.1,2.1,2.8,3.9,4.9,5c2.2,1.1,4.6,1.7,7,1.7c1.8,0,3.7-0.3,5.4-1
	c1.8-0.7,3.5-1.5,5.1-2.5l7.5,12.5c-2.9,1.6-5.9,2.9-9.1,3.9C1089.5,543.8,1086.4,544.2,1083.3,544.3L1083.3,544.3z"/>
<path class="st0" d="M1142.3,543.1l-25.8-52.9h18.9l19.9,44.4L1142.3,543.1z M1128.2,568.1l35-77.9h15.2l-34,77.9H1128.2z"/>
<path class="st0" d="M1181.8,515.9c-0.1-5.1,1.2-10.1,3.8-14.5c2.5-4.3,6.2-7.8,10.7-10.1c4.9-2.5,10.3-3.8,15.8-3.7
	c5.5-0.1,10.9,1.2,15.7,3.7c4.3,2.3,7.8,5.8,10.2,10.1c2.4,4.5,3.6,9.4,3.6,14.5c0.1,5.1-1.1,10.1-3.6,14.5
	c-2.4,4.3-5.9,7.8-10.2,10.2c-4.9,2.6-10.4,3.9-15.9,3.7c-5.4,0.1-10.7-1.1-15.5-3.4c-4.4-2.1-8.2-5.6-10.7-9.8
	C1183,526.5,1181.6,521.2,1181.8,515.9z M1198.8,516c0,2.6,0.5,5.1,1.7,7.4c1,2.1,2.6,3.9,4.6,5.2c1.9,1.3,4.2,2,6.5,1.9
	c4.9,0.2,9.4-2.6,11.3-7.1c2.1-4.7,2.1-10.2,0-14.9c-1-2.1-2.5-3.9-4.4-5.2c-2-1.3-4.5-2-6.9-1.9c-2.3,0-4.6,0.6-6.5,1.9
	c-1.9,1.3-3.5,3.1-4.6,5.2C1199.3,510.8,1198.7,513.4,1198.8,516z"/>
<path class="st0" d="M1269.8,490.3l1.6,14.5l-0.4-2.2c1.5-3.1,3.6-5.8,6.3-8c2.4-2,5.1-3.7,7.9-5.1c1.9-1,3.9-1.6,6-1.8l-0.8,16.9
	c-3.5-0.6-7.1,0.1-10.1,1.9c-2.8,1.7-5,4.1-6.5,7c-1.5,2.7-2.3,5.8-2.3,8.9V543h-16.7v-52.7H1269.8z"/>
<path class="st0" d="M1321.1,544c-4.1,0-8.3-0.7-12.1-2.3c-3.6-1.4-6.8-3.6-9.5-6.4l7-9.3c2.1,2,4.6,3.7,7.2,5
	c3,1.5,6.4,1.9,9.6,1.1c1-0.2,1.9-0.7,2.6-1.3c0.7-0.6,1-1.4,1-2.3c0-1.3-0.6-2.5-1.6-3.3c-1.3-0.9-2.7-1.6-4.2-2
	c-1.7-0.5-3.5-1.1-5.4-1.6c-4.8-1.5-8.3-3.7-10.4-6.7c-2.1-2.8-3.2-6.1-3.2-9.6c0-2.8,0.8-5.5,2.1-8c1.6-2.8,3.9-5.2,6.8-6.7
	c3.1-1.8,7.1-2.7,12-2.7c3.8-0.1,7.5,0.4,11.2,1.3c3.1,0.9,6.1,2.4,8.7,4.3l-6.4,9.9c-1.6-1.2-3.3-2.3-5.1-3.1
	c-1.6-0.8-3.4-1.2-5.2-1.4c-1.3-0.1-2.5,0.1-3.7,0.5c-0.9,0.3-1.7,0.9-2.3,1.6c-0.5,0.6-0.8,1.3-0.8,2c-0.1,1.4,0.5,2.8,1.7,3.6
	c1.5,1,3.1,1.6,4.8,2c1.9,0.5,3.8,1,5.7,1.7c2.4,0.7,4.6,1.8,6.6,3.2c3.8,2.6,6,7.1,5.8,11.7c0,6.8-3.9,13-9.9,16.1
	C1330,543.2,1325.6,544.2,1321.1,544L1321.1,544z"/>
<path class="st0" d="M284.7,359.3h-85.2l-92.7-149.2L75,232.9v126.4H0V5.3h75v162l29.5-41.6L200.4,5.3h83.3L160.2,161.9L284.7,359.3
	z"/>
<path class="st0" d="M404.4,223.4v135.9h-75.1V5.3h103.2c48.1,0,83.7,8.8,106.8,26.3s34.6,44.1,34.6,79.7c0,20.8-5.7,39.3-17.2,55.6
	C545.2,183.2,529,195.8,508,205c53.3,79.6,88,131,104.1,154.3h-83.3l-84.5-135.9H404.4z M404.4,162.4h24.2c23.7,0,41.2-4,52.5-11.9
	c11.3-7.9,17-20.3,17-37.3c0-16.8-5.8-28.7-17.3-35.8s-29.4-10.7-53.6-10.6h-22.8V162.4z"/>
<path class="st0" d="M656.7,359.3V5.3h75.1v354H656.7z"/>
<path class="st0" d="M971.2,62.6c-28.2,0-50.1,10.6-65.6,31.9c-15.5,21.3-23.2,50.8-23.2,88.8c0,78.9,29.6,118.4,88.9,118.4
	c24.9,0,55-6.2,90.3-18.6v63c-29,12.1-61.5,18.1-97.3,18.1c-51.5,0-90.9-15.6-118.2-46.9s-40.9-76.1-40.9-134.5
	c0-36.8,6.7-69.1,20.1-96.7s32.7-48.9,57.8-63.7s54.5-22.2,88.3-22.1c34.4,0,68.9,8.3,103.6,24.9l-24.2,61
	c-13-6.2-26.4-11.7-40-16.5C998.1,65.1,984.7,62.7,971.2,62.6L971.2,62.6z"/>
<path class="st0" d="M1345.9,260.9c0,32-11.5,57.1-34.5,75.6s-55,27.6-96,27.6c-37.8,0-71.2-7.1-100.2-21.3v-69.7
	c23.9,10.7,44.1,18.2,60.7,22.5c16.6,4.3,31.7,6.5,45.4,6.5c16.5,0,29.1-3.2,37.9-9.5s13.2-15.7,13.2-28.1
	c0.1-6.6-1.9-13.1-5.8-18.5c-3.9-5.4-9.6-10.6-17.1-15.6c-7.5-5-22.8-13-45.9-24c-21.6-10.2-37.8-19.9-48.7-29.3
	c-10.6-9.1-19.4-20.2-25.9-32.7c-6.5-12.4-9.7-27-9.7-43.6c0-31.3,10.6-56,31.8-73.9s50.6-26.9,88-26.9c17.8-0.1,35.5,2.1,52.7,6.5
	c17.9,4.8,35.4,10.9,52.4,18.4L1320,83.2c-18.9-7.7-34.5-13.2-46.9-16.2c-11.9-3-24.1-4.6-36.4-4.6c-14.2,0-25.1,3.3-32.7,9.9
	s-11.4,15.3-11.4,25.9c-0.1,6.1,1.5,12.1,4.6,17.3c3.1,4.9,7.9,9.7,14.7,14.3s22.6,12.9,47.6,24.8c33.1,15.8,55.8,31.7,68,47.6
	C1339.7,218.4,1345.9,237.9,1345.9,260.9L1345.9,260.9z"/>
</svg>
