<svg xmlns="http://www.w3.org/2000/svg" viewBox="0 0 2385.9 568.2"><rect x="2256.4" y="296.53" width="129.44" height="119.51" style="fill:#995929"/><rect x="1972.29" y="296.53" width="261.44" height="119.51" style="fill:#995929"/><rect x="1820.11" y="296.53" width="129.44" height="119.51" style="fill:#995929"/><rect x="2103" y="154.41" width="282.89" height="119.51" style="fill:#995929"/><rect x="1820.11" y="154.41" width="259" height="119.51" style="fill:#995929"/><rect x="1972.16" y="2.36" width="261.57" height="129.44" style="fill:#995929"/><path d="M2106.94,439.71h282.83V556.34A12.74,12.74,0,0,1,2377,569.08H2107V439.71Z" transform="translate(-4 -1)" style="fill:#995929"/><path d="M1824.11,439.71h259V569.08h-246.2a12.74,12.74,0,0,1-12.75-12.74h0V439.71Z" transform="translate(-4 -1)" style="fill:#995929"/><path d="M2260.46,3.36h116.63a12.74,12.74,0,0,1,12.74,12.74V132.73H2260.46Z" transform="translate(-4 -1)" style="fill:#995929"/><path d="M1836.86,3.36h116.62V132.8H1824.05V16.17A12.84,12.84,0,0,1,1836.86,3.36Z" transform="translate(-4 -1)" style="fill:#995929"/><path d="M1589.1,3.3h0A12.93,12.93,0,0,1,1602,16.2V556.3a12.93,12.93,0,0,1-12.9,12.9h0a12.93,12.93,0,0,1-12.9-12.9V16.2A13,13,0,0,1,1589.1,3.3Z" transform="translate(-4 -1)" style="fill:#231f20"/><path d="M1589.1,2.3h0A12.93,12.93,0,0,1,1602,15.2V555.3a12.93,12.93,0,0,1-12.9,12.9h0a12.93,12.93,0,0,1-12.9-12.9V15.2A13,13,0,0,1,1589.1,2.3Z" transform="translate(-4 -1)" style="fill:#231f20"/><path d="M1589.1,3.3h0A12.93,12.93,0,0,1,1602,16.2V556.3a12.93,12.93,0,0,1-12.9,12.9h0a12.93,12.93,0,0,1-12.9-12.9V16.2A13,13,0,0,1,1589.1,3.3Z" transform="translate(-4 -1)" style="fill:#231f20"/><path d="M1589.1,2.3h0A12.93,12.93,0,0,1,1602,15.2V555.3a12.93,12.93,0,0,1-12.9,12.9h0a12.93,12.93,0,0,1-12.9-12.9V15.2A13,13,0,0,1,1589.1,2.3Z" transform="translate(-4 -1)" style="fill:#231f20"/><path d="M1589.1,3.3h0A12.93,12.93,0,0,1,1602,16.2V556.3a12.93,12.93,0,0,1-12.9,12.9h0a12.93,12.93,0,0,1-12.9-12.9V16.2A13,13,0,0,1,1589.1,3.3Z" transform="translate(-4 -1)" style="fill:#231f20"/><path d="M193.8,455.2c7.3,0,13.5,1.2,18.5,3.7a26.5,26.5,0,0,1,11.6,10.4,31.22,31.22,0,0,1,4,15.8,39.91,39.91,0,0,1-1.6,10.9,28.51,28.51,0,0,1-5.2,9.9,25.81,25.81,0,0,1-9.5,7.2,36.89,36.89,0,0,1-14.7,2.7H184.4v28.1H167V455.2Zm3,43.6a13.54,13.54,0,0,0,6.6-1.4,11.77,11.77,0,0,0,4.2-3.5,15.91,15.91,0,0,0,2.8-8.4,19.73,19.73,0,0,0-.4-3.5,14.43,14.43,0,0,0-1.7-4.5,12.42,12.42,0,0,0-4-3.9,14.34,14.34,0,0,0-7.3-1.5H184.4v26.7Z" transform="translate(-4 -1)" style="fill:#b2662e"/><path d="M263,545.3a30.45,30.45,0,0,1-13.3-3,22.53,22.53,0,0,1-9.5-9.1c-2.3-4.1-3.5-9.3-3.5-15.7a31.49,31.49,0,0,1,3.6-15.4,27.07,27.07,0,0,1,9.5-10.1,24.08,24.08,0,0,1,12.5-3.5c5.2,0,9.2.9,11.9,2.6a30.65,30.65,0,0,1,6.7,5.7l-.7,2,1.6-7.7h15.6v52.6H280.5V532.3l1.3,3.6c-.2,0-.6.5-1.5,1.4a36.06,36.06,0,0,1-3.5,3.3,22,22,0,0,1-5.8,3.2A21.46,21.46,0,0,1,263,545.3Zm4.8-13.7a16.54,16.54,0,0,0,5.4-.9,11.66,11.66,0,0,0,4.2-2.7,14.68,14.68,0,0,0,3.1-4.4V510.7a11.28,11.28,0,0,0-2.9-4.5,13.81,13.81,0,0,0-4.6-2.9,17,17,0,0,0-5.9-1,12.14,12.14,0,0,0-6.7,1.9,14.11,14.11,0,0,0-4.9,5.1,16.14,16.14,0,0,0,.1,15.1,14.41,14.41,0,0,0,5.1,5.3,15.41,15.41,0,0,0,7.1,1.9Z" transform="translate(-4 -1)" style="fill:#b2662e"/><path d="M330,491.3l1.6,14.5-.4-2.2a23.33,23.33,0,0,1,6.3-8,36.76,36.76,0,0,1,7.9-5.1,16,16,0,0,1,6-1.8l-.8,16.9a14.82,14.82,0,0,0-10.1,1.9,17.52,17.52,0,0,0-6.5,7,18.44,18.44,0,0,0-2.3,8.9V544H314.9V491.3Z" transform="translate(-4 -1)" style="fill:#b2662e"/><path d="M369.1,468.1H386V491h12.8v13.1H386v39.8H369.1V504.1h-8.2V491h8.2Z" transform="translate(-4 -1)" style="fill:#b2662e"/><path d="M429.9,544.1l-25.8-52.9H423l19.9,44.4Zm-14.1,25,35-77.9H466l-34,77.9Z" transform="translate(-4 -1)" style="fill:#b2662e"/><path d="M510.2,455.8h20.5l18.9,55.6-2.8-1.2,16.5-41.1,8.1,24-25.5,54.8Zm44.5,0H572l21.8,53.8-3.1-.5L607,455.8h18.8l-34.2,91.9Z" transform="translate(-4 -1)" style="fill:#b2662e"/><path d="M649.6,545.3a30.45,30.45,0,0,1-13.3-3,22.53,22.53,0,0,1-9.5-9.1c-2.3-4.1-3.5-9.3-3.5-15.7a31.49,31.49,0,0,1,3.6-15.4,27.07,27.07,0,0,1,9.5-10.1,24.08,24.08,0,0,1,12.5-3.5c5.2,0,9.2.9,11.9,2.6a30.65,30.65,0,0,1,6.7,5.7l-.7,2,1.6-7.7H684v52.6H667.2V532.3l1.3,3.6c-.2,0-.6.5-1.4,1.4a36.06,36.06,0,0,1-3.5,3.3,22,22,0,0,1-5.8,3.2A23.31,23.31,0,0,1,649.6,545.3Zm4.8-13.7a16.54,16.54,0,0,0,5.4-.9A11.66,11.66,0,0,0,664,528a16.71,16.71,0,0,0,3.1-4.4V510.7a11.28,11.28,0,0,0-2.9-4.5,13.81,13.81,0,0,0-4.6-2.9,17,17,0,0,0-5.9-1,12.14,12.14,0,0,0-6.7,1.9,14.11,14.11,0,0,0-4.9,5.1,16.14,16.14,0,0,0,.1,15.1,13.7,13.7,0,0,0,12.2,7.2Z" transform="translate(-4 -1)" style="fill:#b2662e"/><path d="M701.4,448.8h16.9v95H701.4Z" transform="translate(-4 -1)" style="fill:#b2662e"/><path d="M735.6,448.8h16.9v95H735.6Z" transform="translate(-4 -1)" style="fill:#b2662e"/><path d="M859,476.7a73.38,73.38,0,0,0-10.3-4.6,29.81,29.81,0,0,0-9.8-1.8,15.42,15.42,0,0,0-8.9,2.3,7.8,7.8,0,0,0-3.2,6.9,7.51,7.51,0,0,0,2.5,5.6,23.54,23.54,0,0,0,6.4,4.4c2.7,1.3,5.4,2.5,8.1,3.5a75.07,75.07,0,0,1,7.7,3.4,30.2,30.2,0,0,1,6.8,4.9,22.05,22.05,0,0,1,4.8,7.3,28.21,28.21,0,0,1,1.8,10.8,23.82,23.82,0,0,1-3.5,12.5,25.39,25.39,0,0,1-10.2,9.3c-4.5,2.4-10,3.6-16.6,3.5a53.36,53.36,0,0,1-30.4-9.5l7.7-13.6a41.85,41.85,0,0,0,6.8,4,50.52,50.52,0,0,0,7.4,2.7,26.14,26.14,0,0,0,6.9,1,22.31,22.31,0,0,0,6.3-.9,11.47,11.47,0,0,0,5.3-3.1,8.2,8.2,0,0,0,2.1-6,7,7,0,0,0-1.8-4.8,18.15,18.15,0,0,0-4.7-4,37.78,37.78,0,0,0-6.4-3.1q-4-1.65-8.4-3.6a42,42,0,0,1-8.1-5,21.76,21.76,0,0,1-8.5-18.1,26.22,26.22,0,0,1,3.4-13.4,24,24,0,0,1,9.7-9,34.6,34.6,0,0,1,14.5-3.7c7.2,0,13,.8,17.4,2.5a67.25,67.25,0,0,1,12,6Z" transform="translate(-4 -1)" style="fill:#b2662e"/><path d="M896.1,546.4a16.77,16.77,0,0,1-11.9-4.4,15.44,15.44,0,0,1-5-11.4V491.3H896v33.1a11.24,11.24,0,0,0,1.8,5.6c1,1.4,2.8,2.1,5.3,2.1a9.78,9.78,0,0,0,6.5-2.5,15.92,15.92,0,0,0,4.2-6.9,30.52,30.52,0,0,0,1.5-9.9V491.3h16.9v52.6H916.9l-1.3-9.6.2,1.1a21.42,21.42,0,0,1-4.6,5.8,19.89,19.89,0,0,1-6.6,3.9,24.38,24.38,0,0,1-8.5,1.3Z" transform="translate(-4 -1)" style="fill:#b2662e"/><path d="M964.7,491.3l1.6,14.5-.4-2.2a23.33,23.33,0,0,1,6.3-8,36.76,36.76,0,0,1,7.9-5.1,16,16,0,0,1,6-1.8l-.8,16.9a14.82,14.82,0,0,0-10.1,1.9,17.52,17.52,0,0,0-6.5,7,18.44,18.44,0,0,0-2.3,8.9V544H949.6V491.3Z" transform="translate(-4 -1)" style="fill:#b2662e"/><path d="M1023,545l-31.6-53.7h20l18,36.4-10.4-.4,15.5-36h18.8L1023.4,545Z" transform="translate(-4 -1)" style="fill:#b2662e"/><path d="M1087.3,545.3c-6.4,0-11.9-1.2-16.3-3.6a25.17,25.17,0,0,1-10.2-10,30.09,30.09,0,0,1-3.5-14.7,25.64,25.64,0,0,1,4.1-14.3,29.15,29.15,0,0,1,11-10.2,30.48,30.48,0,0,1,15.3-3.8c7.5,0,13.8,2.2,18.6,6.6s8,10.7,9.4,19l-41,13-3.7-9.2,29.6-10-3.5,1.6a13.09,13.09,0,0,0-3.4-5.5c-1.6-1.6-4.1-2.3-7.4-2.3a12.85,12.85,0,0,0-6.6,1.8,11.31,11.31,0,0,0-4.3,4.9,16.26,16.26,0,0,0-1.5,7.5,16.44,16.44,0,0,0,1.8,8.2,11.82,11.82,0,0,0,4.9,5,15.71,15.71,0,0,0,7,1.7,14.73,14.73,0,0,0,5.4-1,30.15,30.15,0,0,0,5.1-2.5l7.5,12.5a48.92,48.92,0,0,1-9.1,3.9,36,36,0,0,1-9.2,1.4Z" transform="translate(-4 -1)" style="fill:#b2662e"/><path d="M1146.3,544.1l-25.8-52.9h18.9l19.9,44.4Zm-14.1,25,35-77.9h15.2l-34,77.9Z" transform="translate(-4 -1)" style="fill:#b2662e"/><path d="M1185.8,516.9a27.37,27.37,0,0,1,3.8-14.5,26.06,26.06,0,0,1,10.7-10.1,33.4,33.4,0,0,1,15.8-3.7,32.13,32.13,0,0,1,15.7,3.7,25.42,25.42,0,0,1,10.2,10.1,30.25,30.25,0,0,1,3.6,14.5,28.14,28.14,0,0,1-3.6,14.5,26.32,26.32,0,0,1-10.2,10.2,31.56,31.56,0,0,1-15.9,3.7,34.41,34.41,0,0,1-15.5-3.4,25.26,25.26,0,0,1-10.7-9.8A27.63,27.63,0,0,1,1185.8,516.9Zm17,.1a15.77,15.77,0,0,0,1.7,7.4,12.8,12.8,0,0,0,4.6,5.2,10.77,10.77,0,0,0,6.5,1.9,11.82,11.82,0,0,0,11.3-7.1,18.41,18.41,0,0,0,0-14.9,13.07,13.07,0,0,0-4.4-5.2,11.79,11.79,0,0,0-6.9-1.9,11.5,11.5,0,0,0-6.5,1.9,14.44,14.44,0,0,0-4.6,5.2A15.27,15.27,0,0,0,1202.8,517Z" transform="translate(-4 -1)" style="fill:#b2662e"/><path d="M1273.8,491.3l1.6,14.5-.4-2.2a23.33,23.33,0,0,1,6.3-8,36.76,36.76,0,0,1,7.9-5.1,16,16,0,0,1,6-1.8l-.8,16.9a14.82,14.82,0,0,0-10.1,1.9,17.52,17.52,0,0,0-6.5,7,18.44,18.44,0,0,0-2.3,8.9V544h-16.7V491.3Z" transform="translate(-4 -1)" style="fill:#b2662e"/><path d="M1325.1,545a31.37,31.37,0,0,1-12.1-2.3,26.6,26.6,0,0,1-9.5-6.4l7-9.3a28.1,28.1,0,0,0,7.2,5,13.92,13.92,0,0,0,9.6,1.1,5.81,5.81,0,0,0,2.6-1.3,3,3,0,0,0,1-2.3,4.22,4.22,0,0,0-1.6-3.3,13.52,13.52,0,0,0-4.2-2c-1.7-.5-3.5-1.1-5.4-1.6-4.8-1.5-8.3-3.7-10.4-6.7a15.83,15.83,0,0,1-3.2-9.6,17.35,17.35,0,0,1,2.1-8,16.87,16.87,0,0,1,6.8-6.7q4.65-2.7,12-2.7a42.36,42.36,0,0,1,11.2,1.3,28.29,28.29,0,0,1,8.7,4.3l-6.4,9.9a26.72,26.72,0,0,0-5.1-3.1,15.43,15.43,0,0,0-5.2-1.4,9.47,9.47,0,0,0-3.7.5,5.33,5.33,0,0,0-2.3,1.6,3.18,3.18,0,0,0-.8,2,4,4,0,0,0,1.7,3.6,14.41,14.41,0,0,0,4.8,2c1.9.5,3.8,1,5.7,1.7a22.44,22.44,0,0,1,6.6,3.2,13.55,13.55,0,0,1,5.8,11.7,18.23,18.23,0,0,1-9.9,16.1,28.12,28.12,0,0,1-13,2.7Z" transform="translate(-4 -1)" style="fill:#b2662e"/><path d="M288.7,360.3H203.5L110.8,211.1,79,233.9V360.3H4V6.3H79v162l29.5-41.6L204.4,6.3h83.3L164.2,162.9Z" transform="translate(-4 -1)" style="fill:#231f20"/><path d="M408.4,224.4V360.3H333.3V6.3H436.5q72.15,0,106.8,26.3t34.6,79.7q0,31.2-17.2,55.6C549.2,184.2,533,196.8,512,206q79.95,119.4,104.1,154.3H532.8L448.3,224.4Zm0-61h24.2q35.55,0,52.5-11.9c11.3-7.9,17-20.3,17-37.3,0-16.8-5.8-28.7-17.3-35.8s-29.4-10.7-53.6-10.6H408.4Z" transform="translate(-4 -1)" style="fill:#231f20"/><path d="M660.7,360.3V6.3h75.1v354Z" transform="translate(-4 -1)" style="fill:#231f20"/><path d="M975.2,63.6q-42.3,0-65.6,31.9c-15.5,21.3-23.2,50.8-23.2,88.8q0,118.35,88.9,118.4,37.35,0,90.3-18.6v63c-29,12.1-61.5,18.1-97.3,18.1q-77.25,0-118.2-46.9T809.2,183.8c0-36.8,6.7-69.1,20.1-96.7S862,38.2,887.1,23.4,941.6,1.2,975.4,1.3q51.6,0,103.6,24.9l-24.2,61a410.05,410.05,0,0,0-40-16.5,119.35,119.35,0,0,0-39.6-7.1Z" transform="translate(-4 -1)" style="fill:#231f20"/><path d="M1349.9,261.9c0,32-11.5,57.1-34.5,75.6s-55,27.6-96,27.6q-56.7,0-100.2-21.3V274.1q35.85,16,60.7,22.5c16.6,4.3,31.7,6.5,45.4,6.5,16.5,0,29.1-3.2,37.9-9.5s13.2-15.7,13.2-28.1a30.79,30.79,0,0,0-5.8-18.5q-5.85-8.1-17.1-15.6t-45.9-24c-21.6-10.2-37.8-19.9-48.7-29.3a109.92,109.92,0,0,1-25.9-32.7c-6.5-12.4-9.7-27-9.7-43.6,0-31.3,10.6-56,31.8-73.9S1205.7,1,1243.1,1a207.88,207.88,0,0,1,52.7,6.5,357.67,357.67,0,0,1,52.4,18.4L1324,84.2c-18.9-7.7-34.5-13.2-46.9-16.2a149.44,149.44,0,0,0-36.4-4.6q-21.3,0-32.7,9.9c-7.6,6.6-11.4,15.3-11.4,25.9a32.76,32.76,0,0,0,4.6,17.3c3.1,4.9,7.9,9.7,14.7,14.3s22.6,12.9,47.6,24.8q49.65,23.7,68,47.6c12.2,16.2,18.4,35.7,18.4,58.7Z" transform="translate(-4 -1)" style="fill:#231f20"/></svg>