<svg xmlns="http://www.w3.org/2000/svg" viewBox="0 0 2610.66 1068.81"><rect x="1724.91" y="460.5" width="202.6" height="187.07" style="fill:#995929"/><rect x="2407.94" y="460.5" width="202.6" height="187.07" style="fill:#995929"/><rect x="1963.14" y="460.49" width="409.3" height="187.07" style="fill:#995929"/><rect x="1724.91" y="237.95" width="405.45" height="187.11" style="fill:#995929"/><rect x="2167.79" y="238" width="442.87" height="187.11" style="fill:#995929"/><rect x="1963.01" width="409.44" height="202.62" style="fill:#995929"/><path d="M2167.72,683h442.74a0,0,0,0,1,0,0V865.61a20,20,0,0,1-20,20H2167.72a0,0,0,0,1,0,0V683A0,0,0,0,1,2167.72,683Z" style="fill:#995929"/><path d="M1724.91,683h405.45a0,0,0,0,1,0,0V885.61a0,0,0,0,1,0,0H1744.91a20,20,0,0,1-20-20V683A0,0,0,0,1,1724.91,683Z" style="fill:#995929"/><path d="M1744.89,0h182.62a0,0,0,0,1,0,0V202.62a0,0,0,0,1,0,0H1724.89a0,0,0,0,1,0,0V20A20,20,0,0,1,1744.89,0Z" style="fill:#995929"/><path d="M2408,0h182.58a20,20,0,0,1,20,20V202.58a0,0,0,0,1,0,0H2408a0,0,0,0,1,0,0V0a0,0,0,0,1,0,0Z" style="fill:#995929"/><rect x="1505.34" y="53.14" width="35.42" height="779.33" rx="17.71" style="fill:#231f20"/><path d="M236.43,645.94q11,0,18.55,3.67A26.38,26.38,0,0,1,266.54,660a30.39,30.39,0,0,1,4,15.84,38,38,0,0,1-1.63,10.9,29,29,0,0,1-5.18,9.93,25.27,25.27,0,0,1-9.51,7.17,35.2,35.2,0,0,1-14.63,2.71H227v28.06H209.58V645.94Zm3,43.6a14.11,14.11,0,0,0,6.62-1.39,11.71,11.71,0,0,0,4.16-3.49,14.51,14.51,0,0,0,2.16-4.4,14.67,14.67,0,0,0,.67-4,20.59,20.59,0,0,0-.43-3.56,14.36,14.36,0,0,0-1.74-4.51,10.76,10.76,0,0,0-4-3.86,14.55,14.55,0,0,0-7.28-1.56H227v26.74Z" transform="translate(-44.56)" style="fill:#b2662e"/><path d="M305.57,736a29.67,29.67,0,0,1-13.31-2.95,21.94,21.94,0,0,1-9.46-9.1q-3.49-6.13-3.49-15.65a31.22,31.22,0,0,1,3.61-15.42,26.39,26.39,0,0,1,9.52-10.06A23.86,23.86,0,0,1,305,679.3q7.83,0,11.87,2.59a29.47,29.47,0,0,1,6.68,5.72l-.72,2,1.57-7.71H340v52.63H323.15V723.14l1.33,3.61c-.17,0-.65.47-1.45,1.39a27.5,27.5,0,0,1-3.55,3.25,23.12,23.12,0,0,1-5.78,3.25A21.75,21.75,0,0,1,305.57,736Zm4.81-13.73a15.14,15.14,0,0,0,5.42-.91,11.94,11.94,0,0,0,4.22-2.65,16,16,0,0,0,3.13-4.39V701.46a11.94,11.94,0,0,0-2.89-4.52,13.59,13.59,0,0,0-4.58-2.89,16.27,16.27,0,0,0-5.9-1,12.57,12.57,0,0,0-6.68,1.87,13.5,13.5,0,0,0-4.88,5.12,16.08,16.08,0,0,0,.12,15.05,14.32,14.32,0,0,0,5.12,5.3A13.1,13.1,0,0,0,310.38,722.3Z" transform="translate(-44.56)" style="fill:#b2662e"/><path d="M372.53,682l1.57,14.45-.36-2.17a23.92,23.92,0,0,1,6.26-8,36.1,36.1,0,0,1,7.89-5.11,15.82,15.82,0,0,1,6-1.81L393,696.16a15,15,0,0,0-10.12,1.93,18,18,0,0,0-6.5,7A18.86,18.86,0,0,0,374.1,714v20.59H357.36V682Z" transform="translate(-44.56)" style="fill:#b2662e"/><path d="M411.67,658.82h16.87v22.89H441.3v13.13H428.54v39.74H411.67V694.84h-8.19V681.71h8.19Z" transform="translate(-44.56)" style="fill:#b2662e"/><path d="M472.5,734.82,446.72,682h18.91l19.88,44.44Zm-14.09,25,35-77.92h15.17l-34,77.92Z" transform="translate(-44.56)" style="fill:#b2662e"/><path d="M552.83,646.54h20.48l18.91,55.64-2.77-1.2L606,659.91l8.07,24-25.54,54.8Zm44.45,0h17.34l21.8,53.84-3.13-.49,16.26-53.35h18.79l-34.21,91.9Z" transform="translate(-44.56)" style="fill:#b2662e"/><path d="M692.18,736a29.66,29.66,0,0,1-13.3-2.95,21.94,21.94,0,0,1-9.46-9.1q-3.49-6.13-3.49-15.65a31.22,31.22,0,0,1,3.61-15.42,26.39,26.39,0,0,1,9.52-10.06,23.86,23.86,0,0,1,12.52-3.55q7.83,0,11.87,2.59a29.91,29.91,0,0,1,6.68,5.72l-.72,2L711,682h15.66v52.63H709.77V723.14l1.32,3.61c-.16,0-.64.47-1.44,1.39a28.2,28.2,0,0,1-3.55,3.25,23,23,0,0,1-5.79,3.25A21.67,21.67,0,0,1,692.18,736ZM697,722.3a15.18,15.18,0,0,0,5.42-.91,12,12,0,0,0,4.22-2.65,16.21,16.21,0,0,0,3.13-4.39V701.46a11.94,11.94,0,0,0-2.89-4.52,13.69,13.69,0,0,0-4.58-2.89,16.31,16.31,0,0,0-5.9-1,12.55,12.55,0,0,0-6.68,1.87,13.5,13.5,0,0,0-4.88,5.12,16.08,16.08,0,0,0,.12,15.05,14.32,14.32,0,0,0,5.12,5.3A13.07,13.07,0,0,0,697,722.3Z" transform="translate(-44.56)" style="fill:#b2662e"/><path d="M744,639.55h16.87v95H744Z" transform="translate(-44.56)" style="fill:#b2662e"/><path d="M778.18,639.55H795v95H778.18Z" transform="translate(-44.56)" style="fill:#b2662e"/><path d="M901.63,667.37a66.48,66.48,0,0,0-10.3-4.57,30,30,0,0,0-9.81-1.81c-3.78,0-6.75.77-8.91,2.29a7.84,7.84,0,0,0-3.26,6.87,7.77,7.77,0,0,0,2.47,5.6,23.92,23.92,0,0,0,6.39,4.39,82.49,82.49,0,0,0,8.13,3.49,68,68,0,0,1,7.64,3.44,28.53,28.53,0,0,1,6.81,4.94,21.6,21.6,0,0,1,4.82,7.34,28.52,28.52,0,0,1,1.8,10.78,23.79,23.79,0,0,1-3.49,12.53A25.49,25.49,0,0,1,893.68,732q-6.73,3.56-16.62,3.56a53.93,53.93,0,0,1-10.3-1,52.72,52.72,0,0,1-10.29-3.13,52.11,52.11,0,0,1-9.76-5.36l7.71-13.61a42.65,42.65,0,0,0,14.21,6.75,27.76,27.76,0,0,0,6.87,1,23.25,23.25,0,0,0,6.32-.9,11.71,11.71,0,0,0,5.3-3.08,8.28,8.28,0,0,0,2.11-6,7.55,7.55,0,0,0-1.75-4.82,18,18,0,0,0-4.7-4,38.46,38.46,0,0,0-6.44-3.13q-4.1-1.56-8.43-3.61a43.53,43.53,0,0,1-8.13-5,21.62,21.62,0,0,1-8.49-18.13,25.28,25.28,0,0,1,3.43-13.37,24.41,24.41,0,0,1,9.7-9,33.79,33.79,0,0,1,14.45-3.68q10.71,0,17.4,2.53a61.08,61.08,0,0,1,12,6Z" transform="translate(-44.56)" style="fill:#b2662e"/><path d="M938.73,737.11a17,17,0,0,1-11.93-4.39,15.48,15.48,0,0,1-5-11.39V682h16.86v33.12a10.43,10.43,0,0,0,1.8,5.6c1.05,1.41,2.81,2.11,5.3,2.11a9.13,9.13,0,0,0,6.45-2.53,16.64,16.64,0,0,0,4.21-6.93,30.37,30.37,0,0,0,1.51-9.93V682h16.86v52.63h-15.3L958.12,725l.24,1.08a22.43,22.43,0,0,1-4.58,5.78,19.62,19.62,0,0,1-6.56,3.92A24.71,24.71,0,0,1,938.73,737.11Z" transform="translate(-44.56)" style="fill:#b2662e"/><path d="M1007.26,682l1.57,14.45-.37-2.17a24.07,24.07,0,0,1,6.27-8,36.1,36.1,0,0,1,7.89-5.11,15.77,15.77,0,0,1,6-1.81l-.85,16.86a15,15,0,0,0-10.11,1.93,18.11,18.11,0,0,0-6.51,7,19,19,0,0,0-2.28,8.92v20.59H992.08V682Z" transform="translate(-44.56)" style="fill:#b2662e"/><path d="M1065.55,735.67,1034,682h20l18,36.37-10.36-.36,15.53-36h18.79L1066,735.67Z" transform="translate(-44.56)" style="fill:#b2662e"/><path d="M1129.87,736q-9.64,0-16.32-3.62a24.64,24.64,0,0,1-10.18-10,30.14,30.14,0,0,1-3.49-14.7,26,26,0,0,1,4.09-14.33,30.15,30.15,0,0,1,11-10.18,31.1,31.1,0,0,1,15.3-3.79q11.32,0,18.61,6.56t9.45,19l-41,13-3.73-9.15,29.63-10-3.5,1.57a12.46,12.46,0,0,0-3.43-5.48c-1.65-1.57-4.11-2.35-7.41-2.35a12.27,12.27,0,0,0-6.56,1.74,11.43,11.43,0,0,0-4.34,4.94,17.56,17.56,0,0,0-1.5,7.53,17,17,0,0,0,1.81,8.25,12.06,12.06,0,0,0,4.93,5,14.56,14.56,0,0,0,7,1.68,15.3,15.3,0,0,0,5.36-1,28.6,28.6,0,0,0,5.12-2.53l7.46,12.53a42.83,42.83,0,0,1-9.09,3.85A32.23,32.23,0,0,1,1129.87,736Z" transform="translate(-44.56)" style="fill:#b2662e"/><path d="M1188.88,734.82,1163.11,682H1182l19.87,44.44Zm-14.09,25,35-77.92H1225l-34,77.92Z" transform="translate(-44.56)" style="fill:#b2662e"/><path d="M1228.39,707.6a27.83,27.83,0,0,1,3.79-14.45,26.87,26.87,0,0,1,10.66-10.06,32.94,32.94,0,0,1,15.78-3.67,31.8,31.8,0,0,1,15.66,3.67,25.6,25.6,0,0,1,10.18,10.06A29.3,29.3,0,0,1,1288,707.6a29.68,29.68,0,0,1-3.55,14.52,25.86,25.86,0,0,1-10.18,10.17,31.91,31.91,0,0,1-15.9,3.74,34.4,34.4,0,0,1-15.48-3.38,25.25,25.25,0,0,1-10.66-9.75A29,29,0,0,1,1228.39,707.6Zm17,.12a16,16,0,0,0,1.69,7.41,13.44,13.44,0,0,0,4.58,5.24,11.39,11.39,0,0,0,6.5,1.93,12,12,0,0,0,6.86-1.93,12.56,12.56,0,0,0,4.46-5.24,17.19,17.19,0,0,0,1.57-7.41,17,17,0,0,0-1.57-7.46,12.64,12.64,0,0,0-4.46-5.18,12,12,0,0,0-6.86-1.93,11.39,11.39,0,0,0-6.5,1.93,13.54,13.54,0,0,0-4.58,5.18A15.87,15.87,0,0,0,1245.37,707.72Z" transform="translate(-44.56)" style="fill:#b2662e"/><path d="M1316.43,682,1318,696.4l-.36-2.17a23.92,23.92,0,0,1,6.26-8,36.1,36.1,0,0,1,7.89-5.11,15.87,15.87,0,0,1,6-1.81l-.84,16.86a15,15,0,0,0-10.12,1.93,18,18,0,0,0-6.5,7A18.86,18.86,0,0,0,1318,714v20.59h-16.74V682Z" transform="translate(-44.56)" style="fill:#b2662e"/><path d="M1367.74,735.67a31.75,31.75,0,0,1-12.1-2.29,26.64,26.64,0,0,1-9.46-6.39l7-9.27a28.68,28.68,0,0,0,7.16,5,13.76,13.76,0,0,0,9.64,1.08,5.88,5.88,0,0,0,2.59-1.32,3.08,3.08,0,0,0,1-2.35,3.83,3.83,0,0,0-1.62-3.25,13.89,13.89,0,0,0-4.16-2c-1.69-.52-3.49-1.06-5.42-1.63q-7.23-2.28-10.42-6.68a15.94,15.94,0,0,1-3.19-9.58,17.08,17.08,0,0,1,8.85-14.75q4.64-2.71,12-2.71a41,41,0,0,1,11.2,1.32,27.58,27.58,0,0,1,8.67,4.34l-6.38,9.88a24,24,0,0,0-5.12-3.07,14.69,14.69,0,0,0-5.24-1.39,8.6,8.6,0,0,0-3.67.48,6,6,0,0,0-2.35,1.57,3,3,0,0,0-.85,2.05,3.91,3.91,0,0,0,1.75,3.61,14.24,14.24,0,0,0,4.76,2q2.88.72,5.66,1.68a22.35,22.35,0,0,1,6.62,3.25,14.69,14.69,0,0,1,4.28,4.88,14.39,14.39,0,0,1,1.5,6.81,17.94,17.94,0,0,1-2.46,9.09,18.23,18.23,0,0,1-7.47,6.93Q1375.44,735.66,1367.74,735.67Z" transform="translate(-44.56)" style="fill:#b2662e"/><path d="M329.33,548H244.1L151.35,398.8l-31.72,22.76V548H44.56v-354h75.07v162l29.54-41.65,95.89-120.36h83.31L204.87,350.61Z" transform="translate(-44.56)" style="fill:#231f20"/><path d="M449,412.12V548H373.89v-354H477.05q72.16,0,106.79,26.28T618.47,300q0,31.23-17.19,55.57T552.6,393.71Q632.52,513.1,656.73,548h-83.3L488.92,412.12Zm0-61h24.22q35.6,0,52.55-11.86t16.95-37.29q0-25.18-17.32-35.84t-53.64-10.66H449Z" transform="translate(-44.56)" style="fill:#231f20"/><path d="M701.29,548v-354h75.07V548Z" transform="translate(-44.56)" style="fill:#231f20"/><path d="M1015.85,251.33q-42.37,0-65.62,31.84T927,371.92q0,118.41,88.87,118.41,37.29,0,90.33-18.64v63q-43.59,18.17-97.35,18.16-77.25,0-118.17-46.86T849.73,371.44q0-55.21,20.1-96.75T927.59,211q37.65-22.17,88.26-22.16,51.58,0,103.65,24.94l-24.22,61a402,402,0,0,0-40-16.46A119.21,119.21,0,0,0,1015.85,251.33Z" transform="translate(-44.56)" style="fill:#231f20"/><path d="M1390.47,449.65q0,48-34.51,75.56t-96,27.6q-56.67,0-100.26-21.31V461.76q35.83,16,60.67,22.52t45.4,6.54q24.71,0,37.9-9.44t13.2-28.09a31,31,0,0,0-5.82-18.53q-5.8-8.11-17.07-15.62t-45.89-24q-32.44-15.26-48.67-29.3a109.82,109.82,0,0,1-25.91-32.7q-9.69-18.63-9.69-43.58,0-47,31.85-73.86t88-26.88a207.85,207.85,0,0,1,52.67,6.54,362.49,362.49,0,0,1,52.43,18.4l-24.22,58.36q-28.33-11.62-46.86-16.22a150.69,150.69,0,0,0-36.44-4.6q-21.32,0-32.69,9.92t-11.39,25.91a32,32,0,0,0,4.61,17.32q4.59,7.39,14.65,14.29T1304,343.59q49.63,23.73,68,47.58T1390.47,449.65Z" transform="translate(-44.56)" style="fill:#231f20"/><path d="M79,1003.12l20.94-39.26h9.89l-26.21,48.07v30.45H74.38v-30l-26.16-48.5h10Z" transform="translate(-44.56)" style="fill:#231f20"/><path d="M170.09,1012.9q0,14.39-7.25,22.47t-20,8.09a26.53,26.53,0,0,1-14-3.71,24.47,24.47,0,0,1-9.46-10.63A37.08,37.08,0,0,1,116,1012.9q0-14.4,7.2-22.43t20-8q12.36,0,19.63,8.22T170.09,1012.9Zm-44.85,0q0,11.28,4.51,17.18T143,1036q8.76,0,13.29-5.88t4.54-17.21q0-11.24-4.54-17.06T142.91,990q-8.74,0-13.21,5.74T125.24,1012.9Z" transform="translate(-44.56)" style="fill:#231f20"/><path d="M194.1,983.52v38.18q0,7.2,3.28,10.75t10.25,3.54q9.24,0,13.51-5t4.27-16.49V983.52h8.92v58.86H227l-1.29-7.89h-.48a17.8,17.8,0,0,1-7.6,6.66,25.54,25.54,0,0,1-11.09,2.31q-10.75,0-16.09-5.1T185.08,1022V983.52Z" transform="translate(-44.56)" style="fill:#231f20"/><path d="M280.09,982.44a34.93,34.93,0,0,1,7,.65l-1.24,8.27a30.15,30.15,0,0,0-6.44-.81,15.7,15.7,0,0,0-12.22,5.8,21.14,21.14,0,0,0-5.08,14.45v31.58h-8.91V983.52h7.35l1,10.9H262a25.88,25.88,0,0,1,7.9-8.86A17.75,17.75,0,0,1,280.09,982.44Z" transform="translate(-44.56)" style="fill:#231f20"/><path d="M377.84,986.74q0,11.93-8.13,18.34t-23.29,6.42h-9.23v30.88h-9.14V963.86h20.36Q377.84,963.86,377.84,986.74Zm-40.65,16.92h8.21q12.15,0,17.57-3.92t5.42-12.57q0-7.78-5.1-11.6t-15.9-3.82h-10.2Z" transform="translate(-44.56)" style="fill:#231f20"/><path d="M429.14,1042.38l-1.77-8.38h-.43q-4.41,5.54-8.79,7.5a26.85,26.85,0,0,1-10.93,2q-8.75,0-13.72-4.51t-5-12.84q0-17.83,28.52-18.69l10-.32v-3.66q0-6.93-3-10.23t-9.53-3.3q-7.36,0-16.65,4.51l-2.74-6.82a42.71,42.71,0,0,1,19.93-5.05q10.51,0,15.6,4.67t5.08,15v40.17ZM409,1036.1q8.33,0,13.08-4.57t4.75-12.78v-5.32l-8.92.38q-10.64.38-15.33,3.3t-4.7,9.11c0,3.22,1,5.67,2.93,7.36S405.49,1036.1,409,1036.1Z" transform="translate(-44.56)" style="fill:#231f20"/><path d="M481,982.44a34.93,34.93,0,0,1,7,.65l-1.24,8.27a30.23,30.23,0,0,0-6.44-.81,15.7,15.7,0,0,0-12.22,5.8A21.14,21.14,0,0,0,463,1010.8v31.58h-8.92V983.52h7.36l1,10.9h.43a25.88,25.88,0,0,1,7.9-8.86A17.75,17.75,0,0,1,481,982.44Z" transform="translate(-44.56)" style="fill:#231f20"/><path d="M518,1036.1a32.09,32.09,0,0,0,8.06-1.07v6.82a16.41,16.41,0,0,1-4.27,1.15,31.44,31.44,0,0,1-5.08.46q-17.08,0-17.08-18v-35h-8.43v-4.3l8.43-3.71,3.76-12.57h5.16v13.65h17.08v6.93H508.58v34.64c0,3.54.84,6.27,2.52,8.16A8.77,8.77,0,0,0,518,1036.1Z" transform="translate(-44.56)" style="fill:#231f20"/><path d="M528.5,983.52h9.56l12.9,33.57a128.82,128.82,0,0,1,5.26,16.59h.43q.69-2.73,2.93-9.37t14.58-40.79h9.56l-25.3,67q-3.76,9.93-8.78,14.1a18.71,18.71,0,0,1-12.33,4.16,36.33,36.33,0,0,1-8-.91v-7.15a31,31,0,0,0,6.6.65q9.2,0,13.11-10.32l3.27-8.37Z" transform="translate(-44.56)" style="fill:#231f20"/><path d="M691.73,1042.38h-9L666.86,989.8c-.75-2.33-1.59-5.26-2.52-8.81a50.05,50.05,0,0,1-1.45-6.39,122.24,122.24,0,0,1-3.76,15.52l-15.36,52.26h-9l-20.89-78.52h9.67l12.41,48.5a182.94,182.94,0,0,1,3.76,18.48,131.85,131.85,0,0,1,4.29-19.23l14.07-47.75h9.67L682.49,1012a145.7,145.7,0,0,1,4.35,18.8,160.65,160.65,0,0,1,3.87-18.59l12.35-48.39h9.67Z" transform="translate(-44.56)" style="fill:#231f20"/><path d="M759.89,1042.38l-1.77-8.38h-.43q-4.41,5.54-8.78,7.5a26.92,26.92,0,0,1-10.93,2q-8.76,0-13.73-4.51t-5-12.84q0-17.83,28.52-18.69l10-.32v-3.66q0-6.93-3-10.23t-9.53-3.3q-7.35,0-16.65,4.51l-2.74-6.82a41.88,41.88,0,0,1,9.54-3.71,41.43,41.43,0,0,1,10.39-1.34q10.53,0,15.6,4.67t5.08,15v40.17Zm-20.14-6.28q8.32,0,13.08-4.57t4.75-12.78v-5.32l-8.91.38q-10.63.38-15.34,3.3t-4.7,9.11q0,4.83,2.93,7.36T739.75,1036.1Z" transform="translate(-44.56)" style="fill:#231f20"/><path d="M793.78,1042.38h-8.91V958.81h8.91Z" transform="translate(-44.56)" style="fill:#231f20"/><path d="M821.6,1042.38h-8.91V958.81h8.91Z" transform="translate(-44.56)" style="fill:#231f20"/><path d="M894,1043.46q-13.05,0-20.6-8t-7.54-22.08q0-14.22,7-22.61t18.82-8.38q11.07,0,17.51,7.28t6.45,19.2v5.64H875.05q.27,10.37,5.23,15.74t14,5.37a47.37,47.37,0,0,0,18.79-4v7.94a46.46,46.46,0,0,1-8.94,2.93A50.27,50.27,0,0,1,894,1043.46Zm-2.41-53.55q-7.1,0-11.31,4.62t-5,12.78H906q0-8.43-3.76-12.92T891.54,989.91Z" transform="translate(-44.56)" style="fill:#231f20"/><path d="M949.81,1036.1a29.49,29.49,0,0,0,4.57-.35,29.2,29.2,0,0,0,3.49-.72v6.82a16.41,16.41,0,0,1-4.27,1.15,31.44,31.44,0,0,1-5.08.46q-17.07,0-17.08-18v-35H923v-4.3l8.43-3.71,3.76-12.57h5.16v13.65h17.08v6.93H940.36v34.64c0,3.54.84,6.27,2.52,8.16A8.8,8.8,0,0,0,949.81,1036.1Z" transform="translate(-44.56)" style="fill:#231f20"/><path d="M993.16,1043.46q-12.79,0-19.8-7.87t-7-22.26q0-14.77,7.11-22.83t20.28-8.06a40,40,0,0,1,8.48.92,27.72,27.72,0,0,1,6.66,2.14l-2.73,7.58a41.76,41.76,0,0,0-6.45-2,28.79,28.79,0,0,0-6.18-.78q-17.94,0-17.94,22.88,0,10.85,4.38,16.65t13,5.8a39.74,39.74,0,0,0,15.1-3.17v7.9Q1002.13,1043.46,993.16,1043.46Z" transform="translate(-44.56)" style="fill:#231f20"/><path d="M1020.71,1036.69a8,8,0,0,1,1.64-5.45,5.92,5.92,0,0,1,4.7-1.85,6.34,6.34,0,0,1,4.86,1.85,7.68,7.68,0,0,1,1.75,5.45,7.53,7.53,0,0,1-1.78,5.37,7,7,0,0,1-9.37.19Q1020.71,1040.55,1020.71,1036.69Z" transform="translate(-44.56)" style="fill:#231f20"/><path d="M1130.55,1042.38l-9.78-25H1089.3l-9.67,25h-9.24l31-78.84h7.68l30.88,78.84Zm-12.62-33.19-9.13-24.33q-1.77-4.62-3.66-11.33a100.23,100.23,0,0,1-3.38,11.33l-9.24,24.33Z" transform="translate(-44.56)" style="fill:#231f20"/><path d="M1173,1043.46q-12.78,0-19.79-7.87t-7-22.26q0-14.77,7.12-22.83t20.27-8.06a40.2,40.2,0,0,1,8.49.92,27.72,27.72,0,0,1,6.66,2.14l-2.74,7.58a41.76,41.76,0,0,0-6.45-2,28.63,28.63,0,0,0-6.17-.78q-17.94,0-17.94,22.88,0,10.85,4.38,16.65t13,5.8a39.73,39.73,0,0,0,15.09-3.17v7.9Q1182,1043.46,1173,1043.46Z" transform="translate(-44.56)" style="fill:#231f20"/><path d="M1220.84,1036.1a29.46,29.46,0,0,0,4.56-.35,28.78,28.78,0,0,0,3.49-.72v6.82a16.29,16.29,0,0,1-4.27,1.15,31.42,31.42,0,0,1-5.07.46q-17.08,0-17.08-18v-35H1194v-4.3l8.43-3.71,3.76-12.57h5.15v13.65h17.08v6.93h-17.08v34.64c0,3.54.85,6.27,2.53,8.16A8.77,8.77,0,0,0,1220.84,1036.1Z" transform="translate(-44.56)" style="fill:#231f20"/><path d="M1298.18,1042.38h-8.7v-56q0-7,.43-13.22c-.75.76-1.59,1.54-2.52,2.37s-5.2,4.31-12.79,10.47l-4.72-6.12,20.78-16.06h7.52Z" transform="translate(-44.56)" style="fill:#231f20"/><path d="M1379.66,997.37q0,46.09-35.66,46.09a36.18,36.18,0,0,1-9.89-1.08v-7.68a31.67,31.67,0,0,0,9.78,1.4q12.88,0,19.47-8t7.17-24.46h-.64a19.16,19.16,0,0,1-7.85,6.79,25.19,25.19,0,0,1-11,2.34q-10.41,0-16.54-6.23t-6.12-17.4q0-12.25,6.85-19.34t18-7.09a24.15,24.15,0,0,1,14,4.11,26,26,0,0,1,9.21,12A48.72,48.72,0,0,1,1379.66,997.37Zm-26.43-27q-7.68,0-11.87,4.94t-4.18,13.75q0,7.73,3.86,12.16t11.77,4.44a20.46,20.46,0,0,0,9-2,16.18,16.18,0,0,0,6.47-5.43,12.48,12.48,0,0,0,2.37-7.19,24.7,24.7,0,0,0-2.2-10.42,18.14,18.14,0,0,0-6.15-7.52A15.49,15.49,0,0,0,1353.23,970.36Z" transform="translate(-44.56)" style="fill:#231f20"/><path d="M1442.56,997.37q0,46.09-35.67,46.09a36.1,36.1,0,0,1-9.88-1.08v-7.68a31.56,31.56,0,0,0,9.77,1.4q12.9,0,19.48-8t7.17-24.46h-.65a19.13,19.13,0,0,1-7.84,6.79,25.19,25.19,0,0,1-11,2.34q-10.42,0-16.54-6.23t-6.13-17.4q0-12.25,6.85-19.34t18-7.09a24.1,24.1,0,0,1,14,4.11,25.92,25.92,0,0,1,9.21,12A48.71,48.71,0,0,1,1442.56,997.37Zm-26.43-27q-7.68,0-11.87,4.94t-4.19,13.75q0,7.73,3.87,12.16t11.76,4.44a20.47,20.47,0,0,0,9-2,16.25,16.25,0,0,0,6.47-5.43,12.54,12.54,0,0,0,2.36-7.19,24.55,24.55,0,0,0-2.2-10.42,18.14,18.14,0,0,0-6.15-7.52A15.46,15.46,0,0,0,1416.13,970.36Z" transform="translate(-44.56)" style="fill:#231f20"/><path d="M1454.75,1008.81q0-23.14,9-34.61t26.61-11.47a35.51,35.51,0,0,1,9.56,1v7.68a30.76,30.76,0,0,0-9.45-1.34q-12.63,0-19.29,7.87t-7.3,24.73h.64q5.91-9.24,18.7-9.24,10.58,0,16.67,6.39t6.1,17.35q0,12.25-6.69,19.26t-18.07,7q-12.2,0-19.34-9.16T1454.75,1008.81Zm26.37,27.07q7.62,0,11.84-4.8t4.22-13.89q0-7.79-3.92-12.24t-11.71-4.46a19.67,19.67,0,0,0-8.86,2,16.35,16.35,0,0,0-6.42,5.47,12.71,12.71,0,0,0-2.39,7.26,24.93,24.93,0,0,0,2.15,10.31,18.11,18.11,0,0,0,6.09,7.57A15.22,15.22,0,0,0,1481.12,1035.88Z" transform="translate(-44.56)" style="fill:#231f20"/><path d="M1595,1021.49q0,10.37-7.52,16.17t-20.41,5.8q-14,0-21.48-3.6v-8.81a56,56,0,0,0,10.52,3.22,55.29,55.29,0,0,0,11.28,1.18q9.13,0,13.75-3.46a11.36,11.36,0,0,0,4.62-9.64,12.42,12.42,0,0,0-1.63-6.69,15.27,15.27,0,0,0-5.48-4.8,76.23,76.23,0,0,0-11.69-5q-10.95-3.92-15.65-9.29t-4.7-14a17.43,17.43,0,0,1,6.82-14.45q6.83-5.37,18-5.37a53.07,53.07,0,0,1,21.53,4.3l-2.84,8a48.74,48.74,0,0,0-18.91-4.09q-7.24,0-11.33,3.12a10.27,10.27,0,0,0-4.08,8.65,13.24,13.24,0,0,0,1.5,6.68,14.05,14.05,0,0,0,5.08,4.78,62.5,62.5,0,0,0,10.93,4.81q12.35,4.41,17,9.45T1595,1021.49Z" transform="translate(-44.56)" style="fill:#231f20"/><path d="M1618.14,983.52v38.18q0,7.2,3.27,10.75t10.26,3.54q9.24,0,13.51-5t4.27-16.49V983.52h8.92v58.86H1651l-1.29-7.89h-.48a17.8,17.8,0,0,1-7.6,6.66,25.56,25.56,0,0,1-11.1,2.31q-10.74,0-16.08-5.1t-5.35-16.33V983.52Z" transform="translate(-44.56)" style="fill:#231f20"/><path d="M1704.67,982.55q11.6,0,18,7.92t6.41,22.43q0,14.49-6.47,22.53t-18,8a25.48,25.48,0,0,1-10.5-2.12,19.79,19.79,0,0,1-8-6.53h-.65l-1.88,7.57h-6.39V958.81h8.92v20.3q0,6.82-.43,12.25h.43Q1692.42,982.56,1704.67,982.55Zm-1.29,7.47q-9.14,0-13.16,5.23t-4,17.65q0,12.4,4.13,17.75t13.27,5.34q8.22,0,12.25-6t4-17.21q0-11.49-4-17.13T1703.38,990Z" transform="translate(-44.56)" style="fill:#231f20"/><path d="M1737.54,1068.81a21.55,21.55,0,0,1-8.27-1.34v-7.25a26.33,26.33,0,0,0,7.3,1.07q4.18,0,6.15-2.28c1.31-1.53,2-3.84,2-7V983.52h8.92v67.89Q1753.6,1068.81,1737.54,1068.81Zm6.39-101.25a5.92,5.92,0,0,1,1.5-4.48,5.58,5.58,0,0,1,7.47,0,5.79,5.79,0,0,1,1.56,4.45,5.91,5.91,0,0,1-1.56,4.49,5.24,5.24,0,0,1-3.71,1.48,5.17,5.17,0,0,1-3.76-1.48A6.06,6.06,0,0,1,1743.93,967.56Z" transform="translate(-44.56)" style="fill:#231f20"/><path d="M1797.37,1043.46q-13,0-20.6-8t-7.54-22.08q0-14.22,7-22.61t18.82-8.38q11.07,0,17.51,7.28t6.45,19.2v5.64h-40.56q.27,10.37,5.24,15.74t14,5.37a47.38,47.38,0,0,0,18.8-4v7.94a46.46,46.46,0,0,1-8.94,2.93A50.27,50.27,0,0,1,1797.37,1043.46ZM1795,989.91q-7.08,0-11.3,4.62t-5,12.78h30.78q0-8.43-3.76-12.92T1795,989.91Z" transform="translate(-44.56)" style="fill:#231f20"/><path d="M1857.74,1043.46q-12.78,0-19.79-7.87t-7-22.26q0-14.77,7.12-22.83t20.27-8.06a40.2,40.2,0,0,1,8.49.92,27.72,27.72,0,0,1,6.66,2.14l-2.74,7.58a41.76,41.76,0,0,0-6.45-2,28.63,28.63,0,0,0-6.17-.78q-17.94,0-17.94,22.88,0,10.85,4.38,16.65t13,5.8a39.73,39.73,0,0,0,15.09-3.17v7.9Q1866.71,1043.46,1857.74,1043.46Z" transform="translate(-44.56)" style="fill:#231f20"/><path d="M1905.6,1036.1a29.46,29.46,0,0,0,4.56-.35,28.78,28.78,0,0,0,3.49-.72v6.82a16.2,16.2,0,0,1-4.26,1.15,31.54,31.54,0,0,1-5.08.46q-17.08,0-17.08-18v-35h-8.43v-4.3l8.43-3.71,3.76-12.57h5.16v13.65h17.08v6.93h-17.08v34.64c0,3.54.84,6.27,2.52,8.16A8.77,8.77,0,0,0,1905.6,1036.1Z" transform="translate(-44.56)" style="fill:#231f20"/><path d="M1990.09,1042.38l-26.65-69.61H1963q.75,8.28.75,19.66v50h-8.44V963.86h13.75l24.87,64.77h.43l25.09-64.77h13.64v78.52H2024V991.79q0-8.7.75-18.91h-.43l-26.86,69.5Z" transform="translate(-44.56)" style="fill:#231f20"/><path d="M2089.5,1042.38l-1.77-8.38h-.43q-4.4,5.54-8.78,7.5a26.88,26.88,0,0,1-10.93,2q-8.76,0-13.72-4.51t-5-12.84q0-17.83,28.52-18.69l10-.32v-3.66q0-6.93-3-10.23t-9.53-3.3q-7.37,0-16.66,4.51l-2.73-6.82a42.71,42.71,0,0,1,19.92-5.05q10.53,0,15.61,4.67t5.07,15v40.17Zm-20.14-6.28q8.32,0,13.08-4.57t4.75-12.78v-5.32l-8.91.38q-10.64.38-15.34,3.3t-4.7,9.11q0,4.83,2.93,7.36T2069.36,1036.1Z" transform="translate(-44.56)" style="fill:#231f20"/><path d="M2133.49,1036.1a29.49,29.49,0,0,0,4.57-.35,29.2,29.2,0,0,0,3.49-.72v6.82a16.41,16.41,0,0,1-4.27,1.15,31.44,31.44,0,0,1-5.08.46q-17.07,0-17.08-18v-35h-8.43v-4.3l8.43-3.71,3.76-12.57H2124v13.65h17.08v6.93H2124v34.64c0,3.54.84,6.27,2.52,8.16A8.8,8.8,0,0,0,2133.49,1036.1Z" transform="translate(-44.56)" style="fill:#231f20"/><path d="M2172.33,1036.1a32.1,32.1,0,0,0,8.05-1.07v6.82a16.29,16.29,0,0,1-4.27,1.15,31.42,31.42,0,0,1-5.07.46q-17.09,0-17.08-18v-35h-8.44v-4.3l8.44-3.71,3.76-12.57h5.15v13.65H2180v6.93h-17.08v34.64c0,3.54.84,6.27,2.53,8.16A8.77,8.77,0,0,0,2172.33,1036.1Z" transform="translate(-44.56)" style="fill:#231f20"/><path d="M2217,1043.46q-13.05,0-20.59-8t-7.55-22.08q0-14.22,7-22.61t18.82-8.38q11.07,0,17.51,7.28t6.45,19.2v5.64h-40.55q.27,10.37,5.24,15.74t14,5.37a47.46,47.46,0,0,0,18.8-4v7.94a46.77,46.77,0,0,1-8.95,2.93A50.27,50.27,0,0,1,2217,1043.46Zm-2.41-53.55q-7.09,0-11.31,4.62t-5,12.78h30.78q0-8.43-3.76-12.92T2214.6,989.91Z" transform="translate(-44.56)" style="fill:#231f20"/><path d="M2280.72,982.44a34.83,34.83,0,0,1,7,.65l-1.23,8.27a30.31,30.31,0,0,0-6.45-.81,15.73,15.73,0,0,0-12.22,5.8,21.18,21.18,0,0,0-5.07,14.45v31.58h-8.92V983.52h7.36l1,10.9h.43a25.76,25.76,0,0,1,7.89-8.86A17.78,17.78,0,0,1,2280.72,982.44Z" transform="translate(-44.56)" style="fill:#231f20"/><path d="M2372.45,1042.38h-43.77V963.86h43.77V972h-34.64v25.3h32.55v8.05h-32.55v28.9h34.64Z" transform="translate(-44.56)" style="fill:#231f20"/><path d="M2402.69,1012.25l-20.46-28.73h10.15l15.52,22.56,15.47-22.56h10.05L2413,1012.25l21.54,30.13h-10.1l-16.49-23.84-16.65,23.84h-10.1Z" transform="translate(-44.56)" style="fill:#231f20"/><path d="M2473.54,1043.46a25.55,25.55,0,0,1-10.5-2.12,19.79,19.79,0,0,1-8-6.53h-.64a79,79,0,0,1,.64,9.78v24.22h-8.91V983.52h7.25l1.23,8.05h.43a20.71,20.71,0,0,1,8-7,24.41,24.41,0,0,1,10.48-2.15q11.7,0,18.07,8t6.37,22.45q0,14.49-6.48,22.53T2473.54,1043.46ZM2472.25,990q-9,0-13.05,5t-4.14,15.9v2q0,12.4,4.14,17.75t13.26,5.34a13.8,13.8,0,0,0,11.95-6.17q4.34-6.18,4.33-17,0-11-4.33-16.89T2472.25,990Z" transform="translate(-44.56)" style="fill:#231f20"/><path d="M2538.42,1043.46q-13.05,0-20.6-8t-7.54-22.08q0-14.22,7-22.61t18.82-8.38q11.07,0,17.51,7.28t6.45,19.2v5.64h-40.56q.27,10.37,5.24,15.74t14,5.37a47.38,47.38,0,0,0,18.8-4v7.94a46.46,46.46,0,0,1-8.94,2.93A50.27,50.27,0,0,1,2538.42,1043.46ZM2536,989.91q-7.08,0-11.3,4.62t-5,12.78h30.78q0-8.43-3.76-12.92T2536,989.91Z" transform="translate(-44.56)" style="fill:#231f20"/><path d="M2602.12,982.44a34.93,34.93,0,0,1,7,.65l-1.24,8.27a30.15,30.15,0,0,0-6.44-.81,15.7,15.7,0,0,0-12.22,5.8,21.14,21.14,0,0,0-5.08,14.45v31.58h-8.91V983.52h7.35l1,10.9h.42a25.88,25.88,0,0,1,7.9-8.86A17.75,17.75,0,0,1,2602.12,982.44Z" transform="translate(-44.56)" style="fill:#231f20"/><path d="M2639.18,1036.1a29.49,29.49,0,0,0,4.57-.35,29.2,29.2,0,0,0,3.49-.72v6.82A16.41,16.41,0,0,1,2643,1043a31.44,31.44,0,0,1-5.08.46q-17.07,0-17.08-18v-35h-8.43v-4.3l8.43-3.71,3.76-12.57h5.16v13.65h17.08v6.93h-17.08v34.64c0,3.54.84,6.27,2.52,8.16A8.8,8.8,0,0,0,2639.18,1036.1Z" transform="translate(-44.56)" style="fill:#231f20"/></svg>