<?xml version="1.0" ?><svg enable-background="new 0 0 64 64" id="Layer_1" version="1.1" viewBox="0 0 64 64" xml:space="preserve" xmlns="http://www.w3.org/2000/svg" xmlns:xlink="http://www.w3.org/1999/xlink"><g><g><g><path d="M19.864,29.919c-0.325-0.836-1.22-1.294-2.08-1.065c-0.276,0.073-0.545,0.165-0.805,0.253     c-0.08,0.027-0.16,0.054-0.24,0.081c-1.055,0.35-1.883,0.143-2.534-0.632c-0.62-0.74-1.244-1.519-1.907-2.383     c-0.978-1.274-2.237-1.818-3.741-1.618c-1.544,0.206-3.104,1.404-3.096,3.298c0.006,1.513,0.005,3.052,0.005,4.54     c0,1.006-0.001,2.013,0.001,3.019c0.001,0.905,0.337,1.656,0.997,2.232c0.751,0.656,1.655,0.99,2.687,0.993     c0.812,0.002,1.636,0,2.434-0.003c0.378-0.001,0.755-0.002,1.133-0.003c0.211,0,1.071,0,1.288,0l0.035,0.296     c0.06,0.509,0.117,1.002,0.174,1.495c0.065,0.562,0.13,1.124,0.194,1.687c0.157,1.368,0.319,2.782,0.49,4.172     c0.099,0.808,0.581,1.398,1.357,1.663c0.216,0.074,0.44,0.11,0.661,0.11c0.434,0,0.862-0.14,1.216-0.409     c0.529-0.401,0.81-1.012,0.772-1.676c-0.042-0.723-0.131-1.448-0.218-2.149c-0.033-0.268-0.066-0.536-0.097-0.804l-0.141-1.24     c-0.198-1.744-0.403-3.548-0.615-5.321c-0.138-1.152-1.602-1.873-2.777-1.883c-0.54-0.004-1.089-0.003-1.619-0.002     c-0.215,0-0.431,0.001-0.646,0.001v-2.61c0.331,0.201,0.674,0.401,1.047,0.548c1.997,0.785,3.838,0.196,5.219-0.405     C19.837,31.765,20.2,30.784,19.864,29.919z"/><path d="M5.701,20.397c0.044-1.977,1.642-3.531,3.581-3.482c1.994,0.051,3.51,1.637,3.463,3.624     c-0.046,1.939-1.654,3.464-3.605,3.417C7.206,23.911,5.658,22.309,5.701,20.397z"/><path d="M12.67,41.014c-3.118-2.08-5.886-1.958-7.66-1.489c-0.298,0.079-0.577,0.169-0.837,0.267V26.394     c0-0.784-0.636-1.42-1.42-1.42s-1.42,0.636-1.42,1.42v15.801c0,0.562,0.322,1.078,0.836,1.305     c0.188,0.083,0.386,0.124,0.582,0.124c0.339,0,0.671-0.122,0.935-0.359c0.094-0.079,0.908-0.735,2.212-1.034v4.436H5.035     c-0.784,0-1.42,0.636-1.42,1.42s0.636,1.42,1.42,1.42H9.6c0.784,0,1.42-0.636,1.42-1.42s-0.636-1.42-1.42-1.42H8.737v-4.381     c0.733,0.191,1.524,0.534,2.357,1.089c0.652,0.435,1.534,0.259,1.969-0.393C13.498,42.33,13.322,41.449,12.67,41.014z"/></g><g><path d="M44.136,29.919c0.325-0.836,1.22-1.294,2.08-1.065c0.276,0.073,0.545,0.165,0.805,0.253     c0.08,0.027,0.16,0.054,0.24,0.081c1.055,0.35,1.883,0.143,2.534-0.632c0.62-0.74,1.244-1.519,1.907-2.383     c0.978-1.274,2.237-1.818,3.741-1.618c1.544,0.206,3.104,1.404,3.096,3.298c-0.006,1.513-0.005,3.052-0.005,4.54     c0,1.006,0.001,2.013-0.001,3.019c-0.001,0.905-0.337,1.656-0.997,2.232c-0.751,0.656-1.655,0.99-2.687,0.993     c-0.812,0.002-1.636,0-2.434-0.003c-0.378-0.001-0.755-0.002-1.133-0.003c-0.211,0-1.071,0-1.288,0l-0.035,0.296     c-0.06,0.509-0.117,1.002-0.174,1.495c-0.065,0.562-0.13,1.124-0.194,1.687c-0.157,1.368-0.319,2.782-0.49,4.172     c-0.099,0.808-0.581,1.398-1.357,1.663c-0.216,0.074-0.44,0.11-0.661,0.11c-0.434,0-0.862-0.14-1.216-0.409     c-0.529-0.401-0.81-1.012-0.772-1.676c0.042-0.723,0.131-1.448,0.218-2.149c0.033-0.268,0.066-0.536,0.097-0.804l0.141-1.24     c0.198-1.744,0.403-3.548,0.615-5.321c0.138-1.152,1.602-1.873,2.777-1.883c0.54-0.004,1.089-0.003,1.619-0.002     c0.215,0,0.431,0.001,0.646,0.001v-2.61c-0.331,0.201-0.674,0.401-1.047,0.548c-1.997,0.785-3.838,0.196-5.219-0.405     C44.163,31.765,43.8,30.784,44.136,29.919z"/><path d="M58.299,20.397c-0.044-1.977-1.642-3.531-3.581-3.482c-1.994,0.051-3.51,1.637-3.463,3.624     c0.046,1.939,1.654,3.464,3.605,3.417C56.794,23.911,58.342,22.309,58.299,20.397z"/><path d="M51.33,41.014c3.118-2.08,5.886-1.958,7.66-1.489c0.298,0.079,0.577,0.169,0.837,0.267V26.394     c0-0.784,0.636-1.42,1.42-1.42s1.42,0.636,1.42,1.42v15.801c0,0.562-0.322,1.078-0.836,1.305     c-0.188,0.083-0.386,0.124-0.582,0.124c-0.339,0-0.671-0.122-0.935-0.359c-0.094-0.079-0.908-0.735-2.212-1.034v4.436h0.862     c0.784,0,1.42,0.636,1.42,1.42s-0.636,1.42-1.42,1.42H54.4c-0.784,0-1.42-0.636-1.42-1.42s0.636-1.42,1.42-1.42h0.862v-4.381     c-0.733,0.191-1.524,0.534-2.357,1.089c-0.652,0.435-1.534,0.259-1.969-0.393C50.502,42.33,50.678,41.449,51.33,41.014z"/></g></g><g><path d="M30.066,49.638h-1.934c-0.529,0-0.957-0.429-0.957-0.957v-8.69c0-1.05,0.851-1.901,1.901-1.901h0    c1.05,0,2.388,0.851,2.388,1.901l-0.441,8.738C30.997,49.238,30.576,49.638,30.066,49.638z"/><path d="M35.428,49.638h-1.934c-0.529,0-0.957-0.429-0.957-0.957v-8.69c0-1.05,0.851-1.901,1.901-1.901l0,0    c1.05,0,2.388,0.851,2.388,1.901l-0.441,8.738C36.358,49.238,35.938,49.638,35.428,49.638z"/></g><g><circle cx="32.058" cy="18.026" r="3.665"/><path d="M38.347,31.752v-6.377c0-0.675-0.321-1.316-0.875-1.702c-0.454-0.316-2.11-0.571-3.127-0.571l-1.638,3.98l-0.273-2.294    l0.606-0.912c0.116-0.202,0.088-0.461-0.084-0.635c-0.102-0.103-0.245-0.152-0.389-0.152h-1.133c-0.144,0-0.288,0.05-0.389,0.152    c-0.172,0.174-0.2,0.432-0.084,0.635l0.605,0.912l-0.271,2.296l-1.609-3.914c-0.902,0-2.516,0.181-2.967,0.425    c-0.664,0.359-1.064,1.067-1.064,1.822v6.334H38.347z"/></g><path d="M45.837,34.429c0,0.67-0.54,1.22-1.22,1.22h-1.42v12.77c0,0.67-0.55,1.22-1.22,1.22s-1.22-0.55-1.22-1.22v-12.77h-17.52   v12.77c0,0.67-0.54,1.22-1.22,1.22c-0.67,0-1.21-0.55-1.21-1.22v-12.77h-1.43c-0.67,0-1.22-0.55-1.22-1.22   c0-0.67,0.55-1.22,1.22-1.22h25.24C45.297,33.209,45.837,33.759,45.837,34.429z"/></g></svg>