<?xml version="1.0" ?><svg data-name="Layer 1" id="Layer_1" viewBox="0 0 512 512" xmlns="http://www.w3.org/2000/svg"><path d="M452.68,238.06a48.26,48.26,0,1,0-49.22-.61,45,45,0,0,0-29,42v39.78l-35.7-98.89a5,5,0,0,0-4.71-3.3H310.17V157.69a48.24,48.24,0,0,0-30.09-44.64,48.27,48.27,0,1,0-49.21-.61,45,45,0,0,0-29,42v62.6H178a5,5,0,0,0-4.71,3.3l-35.7,98.89V282.7a48.25,48.25,0,0,0-30.08-44.64,48.27,48.27,0,1,0-49.22-.61,45,45,0,0,0-29,42v67.6a5,5,0,0,0,10,0v-67.6a35,35,0,0,1,35-35H89.4a38.22,38.22,0,0,1,38.17,38.18V347L78.7,482.35a5,5,0,0,0,4.7,6.7H428.6a5,5,0,0,0,4.7-6.7L384.43,347V279.49a35,35,0,0,1,35-35h15.2a38.23,38.23,0,0,1,38.18,38.18v64.39a5,5,0,0,0,10,0V282.7A48.24,48.24,0,0,0,452.68,238.06ZM45.12,196.24A38.28,38.28,0,1,1,83.4,234.52,38.33,38.33,0,0,1,45.12,196.24Zm172.6-125A38.28,38.28,0,1,1,256,109.51,38.33,38.33,0,0,1,217.72,71.23Zm-5.89,83.25a35,35,0,0,1,35-35H262a38.23,38.23,0,0,1,38.18,38.18v59.39H211.83ZM90.52,479.05l91-252h149l91,252Zm299.8-282.81a38.28,38.28,0,1,1,38.28,38.28A38.33,38.33,0,0,1,390.32,196.24Z" style="fill:#231f20"/></svg>