<?xml version="1.0" ?><svg enable-background="new 0 0 64 64" id="Layer_1" version="1.1" viewBox="0 0 64 64" xml:space="preserve" xmlns="http://www.w3.org/2000/svg" xmlns:xlink="http://www.w3.org/1999/xlink"><g><path d="M39.141,2.845h-3.576c-0.697-1.197-1.98-2.011-3.466-2.011c-1.485,0-2.768,0.814-3.465,2.011h-3.576   c-1.111,0-2.012,0.901-2.012,2.012v5.546c0,0.556,0.45,1.006,1.006,1.006h16.094c0.556,0,1.006-0.45,1.006-1.006V4.857   C41.153,3.746,40.252,2.845,39.141,2.845L39.141,2.845z M32.1,6.366c-0.833,0-1.508-0.676-1.508-1.509   c0-0.833,0.675-1.509,1.508-1.509c0.833,0,1.509,0.676,1.509,1.509C33.609,5.69,32.934,6.366,32.1,6.366L32.1,6.366z"/><path d="M51.111,4.826h-7.294c0,0.01,0.001,0.02,0.001,0.03v5.546c0,0.02-0.001,0.04-0.002,0.06H49.2   c0.556,0,1.006,0.45,1.006,1.006v46.27c0,0.556-0.45,1.006-1.006,1.006H15c-0.555,0-1.006-0.45-1.006-1.006v-46.27   c0-0.556,0.45-1.006,1.006-1.006h5.384c0-0.02-0.002-0.04-0.002-0.06V4.857c0-0.01,0.001-0.02,0.001-0.03h-7.495   c-1.666,0-3.018,1.351-3.018,3.018V60.15c0,1.666,1.351,3.017,3.018,3.017h38.223c1.667,0,3.018-1.351,3.018-3.017V7.844   C54.129,6.178,52.778,4.826,51.111,4.826z"/><g><path d="M36.412,21.011H27.02c-0.47,0-0.851-0.381-0.851-0.852c0-0.47,0.381-0.852,0.851-0.852h9.393    c0.47,0,0.852,0.381,0.852,0.852C37.264,20.63,36.883,21.011,36.412,21.011L36.412,21.011z"/><path d="M45.805,24.77H27.02c-0.47,0-0.851-0.381-0.851-0.852c0-0.471,0.381-0.852,0.851-0.852h18.785    c0.471,0,0.851,0.381,0.851,0.852C46.657,24.389,46.275,24.77,45.805,24.77L45.805,24.77z"/><path d="M36.412,33.932H27.02c-0.47,0-0.851-0.381-0.851-0.852c0-0.471,0.381-0.852,0.851-0.852h9.393    c0.47,0,0.852,0.381,0.852,0.852C37.264,33.551,36.883,33.932,36.412,33.932L36.412,33.932z"/><path d="M45.599,37.691H27.02c-0.47,0-0.851-0.381-0.851-0.852c0-0.471,0.381-0.852,0.851-0.852h18.579    c0.47,0,0.851,0.381,0.851,0.852C46.45,37.31,46.069,37.691,45.599,37.691L45.599,37.691z"/><path d="M36.412,46.853H27.02c-0.47,0-0.851-0.381-0.851-0.852c0-0.471,0.381-0.852,0.851-0.852h9.393    c0.47,0,0.852,0.381,0.852,0.852C37.264,46.471,36.883,46.853,36.412,46.853L36.412,46.853z"/><path d="M45.465,50.612H27.02c-0.47,0-0.851-0.381-0.851-0.852c0-0.471,0.381-0.852,0.851-0.852h18.445    c0.47,0,0.851,0.381,0.851,0.852C46.317,50.23,45.935,50.612,45.465,50.612L45.465,50.612z"/><path d="M19.689,23.736h-0.005c-0.237-0.001-0.462-0.102-0.622-0.276l-1.494-1.627c-0.318-0.347-0.295-0.885,0.052-1.203    c0.346-0.318,0.885-0.296,1.203,0.051l0.874,0.952l2.829-3.001c0.322-0.343,0.862-0.358,1.204-0.036    c0.342,0.323,0.358,0.862,0.036,1.204l-3.457,3.668C20.148,23.64,19.923,23.736,19.689,23.736L19.689,23.736z"/><path d="M19.689,36.657h-0.005c-0.237-0.001-0.462-0.102-0.622-0.276l-1.494-1.627c-0.318-0.346-0.295-0.885,0.052-1.203    c0.346-0.318,0.885-0.295,1.203,0.052l0.874,0.952l2.829-3.002c0.322-0.342,0.862-0.358,1.204-0.035    c0.342,0.323,0.358,0.862,0.036,1.204l-3.457,3.668C20.148,36.561,19.923,36.657,19.689,36.657L19.689,36.657z"/><circle cx="20.67" cy="47.749" r="3.327"/></g></g></svg>