<?xml version="1.0" ?><svg data-name="Layer 1" id="Layer_1" viewBox="0 0 128 128" xmlns="http://www.w3.org/2000/svg"><defs><style>.cls-1{fill:#050608;}</style></defs><title/><path class="cls-1" d="M122.25867,46.23975l-.77734-.6792a13.41734,13.41734,0,0,0-18.90723,1.2749L71.37586,82.54639c-.02051.02369-.0332.05115-.05322.0752a3.97953,3.97953,0,0,0-.39062.5498c-.00928.01587-.021.0304-.03.04626a4.02317,4.02317,0,0,0-.27295.61621c-.02222.06213-.043.1239-.06177.18689-.01489.04858-.03491.09448-.04785.1438L64.88074,105.6875a4,4,0,0,0,5.39355,4.71191l20.57129-8.47656c.05908-.02441.11328-.05664.17065-.0835.0498-.02344.09863-.04663.14722-.072a3.969,3.969,0,0,0,.58545-.36511c.01465-.01111.02734-.02454.04175-.03577A3.96592,3.96592,0,0,0,92.266,100.92c.02124-.02307.04736-.04.06787-.0636L119.829,69.38525l.00586-.00537.00513-.00708,3.69312-4.22729A13.41544,13.41544,0,0,0,122.25867,46.23975Zm-6.042,5.34473.77734.6792a5.39823,5.39823,0,0,1,.51367,7.61816l-1.06714,1.22144-8.90894-7.783,1.06689-1.22119A5.40716,5.40716,0,0,1,116.21668,51.58447ZM88.94031,92.58032l-8.908-7.78271L102.26843,59.345l8.90869,7.783ZM74.65613,99.94141l1.96484-7.501,5.2041,4.54688Z"/><path class="cls-1" d="M103.26551,97.44922a4.0002,4.0002,0,0,0-4,4v16.33984H9.16492V30.46924h19.5166V33.5498a4.0002,4.0002,0,0,0,4,4H75.746a4.0002,4.0002,0,0,0,4-4V30.46924H99.26551V36.3291a4,4,0,1,0,8,0V26.46924a4.0002,4.0002,0,0,0-4-4H79.746V19.27051a4.0002,4.0002,0,0,0-4-4H65.7616l4.0752-7.05957a4,4,0,0,0-3.46387-6H42.05652a4,4,0,0,0-3.46387,6l4.0752,7.05957H32.68152a4.0002,4.0002,0,0,0-4,4v3.19873H5.16492a4.0002,4.0002,0,0,0-4,4v95.31982a4.0002,4.0002,0,0,0,4,4h98.10059a4.0002,4.0002,0,0,0,4-4V101.44922A4.0002,4.0002,0,0,0,103.26551,97.44922ZM48.98426,10.21094H59.44519l-2.92065,5.05957H51.90491ZM36.68152,23.27051H71.746v6.2793H36.68152Z"/><path class="cls-1" d="M92.10242,50.9502a4.0002,4.0002,0,0,0-4-4H20.33093a4,4,0,0,0,0,8H88.10242A4.0002,4.0002,0,0,0,92.10242,50.9502Z"/><path class="cls-1" d="M77.10242,68.54736a4.0002,4.0002,0,0,0-4-4H20.33093a4,4,0,0,0,0,8H73.10242A4.0002,4.0002,0,0,0,77.10242,68.54736Z"/><path class="cls-1" d="M65.10242,86.145a4.0002,4.0002,0,0,0-4-4H20.33093a4,4,0,0,0,0,8H61.10242A4.0002,4.0002,0,0,0,65.10242,86.145Z"/><path class="cls-1" d="M20.33093,100.145a4,4,0,0,0,0,8H52.26062a4,4,0,0,0,0-8Z"/></svg>