<?xml version="1.0" ?><!DOCTYPE svg  PUBLIC '-//W3C//DTD SVG 1.1//EN'  'http://www.w3.org/Graphics/SVG/1.1/DTD/svg11.dtd'><svg enable-background="new 0 0 128 128" height="128px" id="Layer_1" version="1.1" viewBox="0 0 128 128" width="128px" xml:space="preserve" xmlns="http://www.w3.org/2000/svg" xmlns:xlink="http://www.w3.org/1999/xlink"><g><g><g><g><path d="M125.887,79.773c-1.281-7.511-5.48-12.521-13.015-14.495c-4.54-1.187-9.117-1.224-13.725-0.578      c-8.356,1.176-14.651,6.686-16.645,14.698c-1.386,5.551-1.261,11.152-0.088,16.726c1.494,7.082,5.564,11.75,12.727,13.528      c5.442,1.349,10.912,1.129,16.676,0.48c-0.159-1.967-0.301-3.735-0.446-5.551c-4.087,0-7.995,0.331-11.821-0.078      c-5.611-0.605-9.374-3.803-10.831-9.404c-1.034-3.969-1.271-8.008-0.598-12.048c1.041-6.277,4.246-10.861,10.635-12.609      c4.151-1.136,8.339-1.024,12.491,0.166c3.742,1.075,6.318,3.421,7.508,7.112c1.552,4.834,1.332,9.773,0.433,14.685      c-0.304,1.646-1.555,2.508-2.856,2.302c-1.585-0.254-1.856-1.477-1.89-2.772c-0.125-4.611-0.213-9.225-0.308-13.839      c-0.007-0.287-0.009-0.573-0.008-0.866c0-0.7-0.57-1.305-1.269-1.339c-0.796-0.038-1.693-0.115-1.82-0.118      c-2.916-0.084-5.835-0.3-8.753-0.295c-2.283,0.003-4.631,0.573-6.122,2.426c-1.117,1.389-1.678,3.15-1.956,4.887      c-0.49,3.063-0.497,6.304-0.105,9.387c0.99,7.778,7.653,9.208,13.035,6.771c1.068-0.483,2.089-1.072,3.11-1.602      c6.906,5.432,14.117,2.637,15.732-6.007C126.702,87.466,126.536,83.596,125.887,79.773z M106.867,93.584      c-0.972,0.486-2.114,0.799-3.207,0.683c-1.921-0.205-2.57-2.128-2.909-3.758c-0.282-1.357-0.355-2.753-0.255-4.134      c0.092-1.268,0.122-2.992,0.963-4.024c0.847-1.039,2.494-1.584,3.786-1.666c0.67-0.043,1.419,0.037,1.959,0.475      c1.121,0.908,0.77,3.26,0.761,4.519c-0.009,1.248-0.045,2.497-0.016,3.745C107.987,90.978,108.585,92.725,106.867,93.584z" fill="#333333"/></g></g><path d="M113.291,19.202c-1.228-1.803-6.04-1.651-7.852-1.76c-3.785-0.217-7.55,0.043-11.335,0.022    c-6.02-0.022-12.039-0.022-18.059-0.022c-4.55,0-9.1-0.022-13.65-0.022s-9.1,0.022-13.65,0.022c-6.02,0-12.039,0-18.059,0.022    c-3.785,0.022-7.55-0.239-11.335-0.022c-1.812,0.109-6.624-0.043-7.852,1.76c-0.282,0.413-0.121,0.999,0.866,1.847    c14.556,12.818,29.112,25.659,43.688,38.434c0.02,0.018,0.041,0.036,0.061,0.053c3.622,3.142,8.939,3.142,12.562,0    c0.02-0.018,0.041-0.035,0.061-0.053c14.576-12.775,29.132-25.615,43.688-38.434C113.412,20.202,113.573,19.615,113.291,19.202z" fill="#333333"/><path d="M123.264,34.614v28.674c-2.472-1.879-5.418-3.243-8.8-4.133c-4.983-1.305-10.343-1.543-16.196-0.712    c-10.896,1.523-19.301,8.958-21.911,19.419c-1.543,6.15-1.582,12.735-0.138,19.578c0.138,0.731,0.336,1.444,0.534,2.135H62.396    c-14.594,0-29.208,0-43.822-0.02c-10.797,0-17.027-6.743-17.027-18.43V34.614c0-3.876,0.929-7.376,3.144-10.521    c0.573,1.009,1.384,1.978,2.452,2.887l9.057,7.989C27.75,45.134,39.279,55.299,50.927,65.502c3.204,2.769,7.257,4.291,11.47,4.291    c4.192,0,8.266-1.522,11.549-4.37c11.568-10.125,23.117-20.289,34.666-30.474l8.978-7.91c1.088-0.949,1.918-1.938,2.492-2.966    C122.315,27.238,123.264,30.738,123.264,34.614z" fill="#333333"/></g></g></svg>