<?xml version="1.0" ?><svg id="Слой_1" style="enable-background:new 0 0 52 52;" version="1.1" viewBox="0 0 52 52" xml:space="preserve" xmlns="http://www.w3.org/2000/svg" xmlns:xlink="http://www.w3.org/1999/xlink"><style type="text/css">
	.st0{fill:none;stroke:#000000;stroke-width:2;stroke-linecap:round;stroke-linejoin:round;stroke-miterlimit:10;}
</style><g><polyline class="st0" points="16,39 16,31 8,31  "/><path class="st0" d="M26.9,40h-8.7c-0.8,0-1.6-0.3-2.1-0.9l-8.2-8.2C7.3,30.3,7,29.6,7,28.8L7,3h28v24.7"/><path class="st0" d="M35,42L35,42c-3.3,0-6-2.7-6-6v-4l-4.3-5.5c-1-1.3-0.9-3.1,0.3-4.2l0,0c1.2-1.2,3.3-1.2,4.5,0l7.4,7.4"/><polyline class="st0" points="46,49 46,46 30,46 30,49  "/><path class="st0" d="M38,17.5l3.5,3.8c1.6,1.7,2.3,4,2.1,6.3L42,43l1,3"/><line class="st0" x1="17" x2="25" y1="9" y2="9"/><line class="st0" x1="13" x2="29" y1="13" y2="13"/><line class="st0" x1="13" x2="29" y1="17" y2="17"/></g></svg>