<?xml version="1.0" ?><svg enable-background="new 0 0 64 64" id="Layer_1" version="1.1" viewBox="0 0 64 64" xml:space="preserve" xmlns="http://www.w3.org/2000/svg" xmlns:xlink="http://www.w3.org/1999/xlink"><g><g><g><path d="M45.486,33.275H40.65l-3.912,2.842l-1.494,4.599l1.494,4.599l3.912,2.842h4.836l3.912-2.842l1.494-4.599l-1.494-4.599     L45.486,33.275z M48.742,39.603l-1.575,1.591c-0.604,0.611-0.87,1.48-0.71,2.324l0.418,2.2c0.053,0.277-0.235,0.493-0.486,0.367     l-1.507-0.758c-1.076-0.542-2.35-0.519-3.407,0.061l-1.479,0.811c-0.247,0.135-0.542-0.071-0.499-0.349l0.339-2.213     c0.13-0.849-0.166-1.708-0.792-2.297l-1.631-1.534c-0.205-0.193-0.1-0.537,0.178-0.583l2.171-0.355     c0.872-0.143,1.619-0.705,1.996-1.505l0.938-1.989c0.12-0.255,0.48-0.261,0.609-0.011l1.008,1.955     c0.405,0.786,1.171,1.322,2.048,1.433l2.182,0.277C48.822,39.062,48.94,39.403,48.742,39.603z"/><path d="M51.851,37.862l-1.969-2.096l-1.385-2.521l-2.826-0.538l-2.602-1.225l-2.602,1.225l-2.826,0.538l-1.385,2.521     l-1.969,2.096l0.361,2.854l-0.361,2.854l1.969,2.096l1.385,2.521l2.826,0.538l2.602,1.225l2.602-1.225l2.826-0.538l1.385-2.521     l1.969-2.096l-0.361-2.854L51.851,37.862z M49.872,45.659l-4.205,3.055h-5.198l-4.205-3.055l-1.606-4.943l1.606-4.943     l4.205-3.055h5.198l4.205,3.055l1.606,4.943L49.872,45.659z"/></g><g><polygon points="39.961,50.279 39.854,50.202 36.68,49.597 34.285,57.387 37.593,55.716 39.394,59 41.829,51.097 40.093,50.279         "/><polygon points="46.282,50.202 46.175,50.279 46.044,50.279 44.308,51.097 46.742,59 48.544,55.716 51.851,57.387 49.456,49.597         "/></g></g><g><g><path d="M38.057,19.58H14.172c-1.023,0-1.853-0.83-1.853-1.853s0.83-1.853,1.853-1.853h23.885c1.023,0,1.853,0.83,1.853,1.853     S39.08,19.58,38.057,19.58z"/><path d="M38.057,27.958H14.172c-1.023,0-1.853-0.83-1.853-1.853s0.83-1.853,1.853-1.853h23.885c1.023,0,1.853,0.83,1.853,1.853     S39.08,27.958,38.057,27.958z"/></g><path d="M59.907,12.324l-6.88-6.725C52.634,5.215,52.106,5,51.557,5H5.563C4.402,5,3.46,5.942,3.46,7.103v41.06    c0,1.161,0.942,2.103,2.103,2.103H33.89l0.744-2.42l-0.29-0.528l-0.181-0.131l-0.069-0.213l-0.858-0.914H7.666V9.206h41.787v4.622    c0,1.161,0.942,2.103,2.103,2.103h4.777V46.06h-3.432l-0.858,0.914l-0.069,0.213l-0.181,0.131l-0.29,0.529l0.744,2.419h6.19    c1.161,0,2.103-0.942,2.103-2.103V13.828C60.54,13.262,60.311,12.72,59.907,12.324z"/></g></g></svg>