<?xml version="1.0" ?><!DOCTYPE svg  PUBLIC '-//W3C//DTD SVG 1.1//EN'  'http://www.w3.org/Graphics/SVG/1.1/DTD/svg11.dtd'><svg fill-rule="evenodd" height="75pt" overflow="visible" stroke-linejoin="bevel" stroke-width="0.501" version="1.1" viewBox="0 0 75 75" width="75pt" xmlns="http://www.w3.org/2000/svg" xmlns:xlink="http://www.w3.org/1999/xlink"><defs/><g fill="none" font-family="Times New Roman" font-size="16" id="Document" stroke="black" transform="scale(1 -1)"><g id="Spread" transform="translate(0 -75)"><g id="Layer 1"><path d="M 52.467,0.449 C 52.457,0.451 52.448,0.453 52.439,0.456 C 52.317,0.488 52.2,0.595 52.095,0.666 C 51.888,0.807 51.678,0.991 51.488,1.154 C 51.454,1.182 51.421,1.211 51.388,1.24 C 51.278,1.24 51.168,1.279 51.083,1.361 C 50.899,1.52 50.705,1.721 50.533,1.896 C 50.433,1.997 50.316,2.089 50.224,2.196 C 49.92,2.548 49.609,2.884 49.316,3.246 C 48.638,4.083 48.033,5.018 47.553,5.983 C 47.121,6.85 46.779,7.737 46.439,8.639 C 46.424,8.583 46.409,8.527 46.395,8.472 C 46.356,8.315 46.299,8.161 46.25,8.007 C 46.09,7.499 45.904,7.002 45.688,6.515 C 45.271,5.575 44.784,4.698 44.183,3.859 C 44.118,3.753 44.047,3.639 43.977,3.528 C 43.514,2.795 43,2.037 42.416,1.394 C 42.216,1.174 42.017,0.976 41.802,0.772 C 41.742,0.716 41.646,0.718 41.59,0.778 C 41.534,0.838 41.536,0.934 41.596,0.99 C 41.912,1.271 42.213,1.612 42.495,1.982 C 42.315,1.817 42.136,1.658 41.954,1.501 C 41.794,1.363 41.623,1.213 41.456,1.085 C 41.432,1.067 41.409,1.049 41.386,1.031 C 41.387,0.847 41.267,0.683 41.09,0.631 C 41.03,0.582 40.956,0.549 40.875,0.541 C 40.838,0.536 40.802,0.537 40.766,0.542 C 40.636,0.463 40.462,0.492 40.366,0.616 C 40.265,0.744 40.283,0.931 40.404,1.037 C 40.384,1.323 40.37,1.61 40.346,1.897 C 40.336,2.009 40.325,2.12 40.312,2.231 C 40.267,2.281 40.24,2.347 40.24,2.42 C 40.234,2.554 40.236,2.684 40.229,2.818 C 40.203,2.971 40.173,3.124 40.141,3.278 C 40.109,3.43 40.096,3.599 40.074,3.755 C 40.051,3.918 40.005,4.12 39.962,4.279 C 39.939,4.362 39.909,4.445 39.879,4.527 C 39.491,4.278 39.073,4.064 38.679,3.885 C 38.456,3.783 38.213,3.675 37.981,3.598 C 37.778,3.531 37.579,3.455 37.374,3.389 C 36.89,3.232 36.351,3.106 35.821,3.055 C 35.817,3.054 35.812,3.052 35.808,3.051 C 35.598,2.98 35.385,2.934 35.172,2.883 L 35.143,2.849 C 35.057,2.748 34.904,2.737 34.803,2.823 C 34.702,2.909 34.691,3.062 34.777,3.163 L 34.916,3.332 C 34.921,3.369 34.933,3.404 34.951,3.435 L 34.945,3.373 L 34.959,3.49 C 34.974,3.538 34.999,3.584 35.034,3.625 C 35.194,3.85 35.373,4.059 35.544,4.275 C 35.755,4.542 35.945,4.824 36.149,5.096 L 36.532,5.658 L 36.586,5.744 C 36.803,6.114 37.011,6.489 37.212,6.868 C 37.229,6.901 37.247,6.934 37.265,6.968 C 37.297,7.036 37.33,7.104 37.364,7.172 C 37.63,7.717 37.888,8.27 38.145,8.82 C 38.209,8.957 38.274,9.095 38.338,9.233 C 38.206,9.229 38.075,9.241 37.944,9.238 C 36.439,9.199 34.933,9.171 33.429,9.127 C 31.833,9.08 30.235,9.032 28.639,9.002 C 27.738,8.985 26.833,8.958 25.932,8.957 C 24.959,8.955 23.983,8.929 23.009,8.944 C 22.531,8.952 22.052,8.979 21.574,8.993 C 20.538,9.024 19.498,9.083 18.463,9.141 C 17.83,9.177 17.185,9.208 16.554,9.265 C 16.16,9.3 15.752,9.314 15.36,9.364 C 15.199,9.377 15.074,9.502 15.055,9.657 C 14.978,9.657 14.877,9.666 14.815,9.677 C 14.757,9.687 14.643,9.693 14.595,9.718 C 14.487,9.773 14.399,9.965 14.364,10.08 C 14.242,10.472 14.397,10.882 14.552,11.251 C 14.575,11.665 14.596,12.08 14.613,12.495 C 14.633,13.017 14.641,13.54 14.654,14.063 C 14.652,14.077 14.651,14.092 14.65,14.107 C 14.622,14.416 14.602,14.725 14.575,15.034 C 14.573,15.055 14.571,15.077 14.571,15.099 C 14.534,14.118 14.465,13.138 14.391,12.161 C 14.357,11.714 14.31,11.268 14.276,10.821 C 14.273,10.781 14.236,10.75 14.196,10.753 C 14.156,10.756 14.125,10.793 14.128,10.833 C 14.155,11.196 14.191,11.56 14.222,11.923 C 14.296,12.808 14.351,13.699 14.399,14.586 C 14.431,15.196 14.456,15.806 14.476,16.416 C 14.427,17.242 14.392,18.07 14.349,18.896 C 14.294,19.926 14.273,20.956 14.23,21.986 C 14.21,22.456 14.205,22.927 14.189,23.398 C 14.178,23.717 14.166,24.042 14.165,24.361 C 14.163,25.018 14.136,25.679 14.127,26.337 C 14.105,27.917 14.082,29.499 14.083,31.08 C 14.083,31.712 14.084,32.345 14.102,32.976 C 14.098,32.997 14.096,33.018 14.095,33.04 C 14.036,33.776 14.026,34.514 14.006,35.252 C 13.979,36.217 13.947,37.183 13.929,38.149 C 13.866,41.551 13.784,44.953 13.774,48.356 C 13.771,49.259 13.761,50.161 13.762,51.064 C 13.762,51.432 13.745,51.813 13.759,52.179 C 13.763,52.272 13.765,52.364 13.766,52.457 C 13.766,52.503 13.762,52.55 13.765,52.596 C 13.77,52.685 13.765,52.785 13.765,52.875 C 13.765,52.938 13.76,52.996 13.762,53.051 L 13.765,53.081 L 13.767,53.104 C 13.777,53.173 13.806,53.234 13.88,53.286 C 13.919,53.313 13.976,53.327 14.023,53.322 C 14.154,53.307 14.214,53.231 14.237,53.132 L 14.247,53.073 C 14.249,53.05 14.25,53.028 14.25,53.006 L 14.248,52.965 L 14.252,52.527 C 14.255,52.341 14.258,52.156 14.261,51.97 C 14.263,51.807 14.262,51.643 14.261,51.481 C 14.292,51.598 14.325,51.717 14.361,51.835 C 14.495,52.653 14.826,53.398 15.303,54.083 C 15.25,54.126 15.197,54.17 15.145,54.214 C 15.116,54.237 15.112,54.281 15.135,54.31 C 15.158,54.339 15.202,54.343 15.231,54.32 C 15.281,54.278 15.331,54.236 15.382,54.195 C 15.506,54.365 15.639,54.531 15.78,54.695 C 15.795,54.733 15.819,54.766 15.844,54.799 C 15.857,54.816 15.87,54.834 15.884,54.851 C 15.882,54.934 15.915,55.017 15.981,55.077 C 16.105,55.189 16.23,55.3 16.354,55.412 C 16.49,55.562 16.63,55.708 16.774,55.854 C 16.932,56.119 17.092,56.381 17.255,56.641 C 17.915,57.697 18.603,58.737 19.321,59.755 C 19.459,59.951 19.599,60.148 19.739,60.344 C 19.735,60.344 19.732,60.345 19.729,60.346 C 19.618,60.365 19.47,60.318 19.36,60.295 C 19.31,60.283 19.259,60.314 19.247,60.364 C 19.235,60.414 19.266,60.465 19.316,60.477 C 19.438,60.504 19.594,60.551 19.719,60.538 C 19.77,60.532 19.817,60.526 19.864,60.52 C 20.223,61.022 20.585,61.522 20.951,62.02 L 20.949,62.022 L 20.857,62.097 C 20.819,62.129 20.815,62.187 20.847,62.225 C 20.879,62.263 20.937,62.267 20.975,62.235 C 21.001,62.212 21.029,62.189 21.058,62.166 C 21.368,62.589 21.681,63.011 21.996,63.433 C 22.005,63.445 22.014,63.458 22.024,63.471 C 21.989,63.506 21.981,63.562 22.009,63.606 C 22.039,63.654 22.103,63.67 22.153,63.643 C 22.506,64.116 22.862,64.586 23.224,65.052 C 23.222,65.054 23.22,65.056 23.218,65.059 C 23.182,65.095 23.182,65.157 23.218,65.193 L 23.335,65.193 C 23.468,65.362 23.601,65.53 23.737,65.698 C 24.276,66.366 24.815,67.036 25.357,67.702 C 25.276,67.806 25.202,67.913 25.147,68.019 C 25.108,68.081 25.127,68.164 25.189,68.203 C 25.251,68.242 25.334,68.223 25.373,68.161 C 25.419,68.079 25.474,67.997 25.533,67.918 C 25.692,68.113 25.852,68.308 26.012,68.503 C 26.198,68.729 26.384,68.957 26.57,69.185 C 26.522,69.223 26.515,69.295 26.553,69.343 C 26.589,69.388 26.656,69.398 26.703,69.36 C 27.203,69.97 27.388,70.203 27.572,70.436 C 28.411,71.504 29.269,72.565 30.059,73.669 C 30.195,73.854 30.458,73.893 30.643,73.757 C 30.708,73.708 30.755,73.644 30.783,73.573 C 30.83,73.613 30.879,73.65 30.928,73.686 C 31.088,73.801 31.215,73.905 31.394,73.996 C 31.729,74.167 32.077,74.297 32.446,74.377 C 32.591,74.408 32.736,74.432 32.88,74.448 C 32.88,74.452 32.881,74.456 32.882,74.46 C 32.91,74.612 33.058,74.712 33.21,74.684 C 33.386,74.639 33.596,74.609 33.777,74.582 C 33.974,74.552 34.17,74.525 34.367,74.5 L 34.369,74.512 C 34.581,75.038 35.059,74.992 35.538,74.978 C 35.635,74.972 35.709,74.886 35.703,74.789 C 35.697,74.692 35.611,74.618 35.514,74.624 C 35.341,74.633 34.826,74.661 34.751,74.455 C 34.767,74.454 34.782,74.452 34.797,74.451 C 34.94,74.436 35.083,74.422 35.225,74.409 C 36.044,74.512 36.867,74.591 37.681,74.676 C 38.008,74.71 38.341,74.74 38.667,74.781 C 38.764,74.791 38.853,74.72 38.863,74.623 C 38.87,74.55 38.832,74.481 38.772,74.448 C 38.883,74.457 38.994,74.467 39.106,74.478 C 39.57,74.522 40.043,74.563 40.505,74.625 C 40.741,74.656 40.976,74.694 41.211,74.725 C 41.385,74.749 41.548,74.626 41.572,74.452 C 41.582,74.378 41.566,74.306 41.53,74.246 C 42.476,74.247 43.424,74.263 44.37,74.285 C 45.349,74.307 46.327,74.319 47.306,74.353 C 49.291,74.422 51.275,74.493 53.259,74.559 C 53.695,74.573 54.132,74.595 54.568,74.607 C 55.497,74.632 56.429,74.652 57.358,74.682 C 57.711,74.693 58.069,74.697 58.422,74.699 C 58.619,74.7 58.827,74.691 59.022,74.708 C 59.183,74.708 59.328,74.631 59.419,74.511 C 59.875,74.495 60.484,74.405 60.829,74.118 C 60.881,74.074 60.927,74.024 60.977,73.979 C 61.014,73.944 61.078,73.861 61.123,73.788 C 61.173,73.847 61.247,73.88 61.321,73.881 C 61.317,73.918 61.313,73.955 61.312,73.991 C 61.303,74.077 61.35,74.157 61.422,74.197 C 61.428,74.464 61.436,74.732 61.439,75 C 61.439,75.061 61.49,75.112 61.551,75.112 C 61.612,75.112 61.663,75.061 61.663,75 C 61.66,74.72 61.667,74.439 61.67,74.16 C 61.704,74.126 61.727,74.081 61.732,74.031 C 61.734,73.945 61.751,73.857 61.755,73.771 C 61.757,73.723 61.758,73.676 61.76,73.63 C 61.82,73.582 61.879,73.53 61.941,73.471 C 62.352,73.071 62.421,72.497 62.431,71.948 C 62.522,71.879 62.581,71.771 62.584,71.649 C 62.563,71.478 62.597,71.271 62.59,71.096 C 62.576,70.754 62.599,70.391 62.6,70.047 C 62.603,69.06 62.62,68.073 62.623,67.086 C 62.628,65.189 62.641,63.292 62.641,61.394 C 62.641,60.338 62.627,59.276 62.641,58.221 C 62.655,57.149 62.612,56.075 62.609,55.003 C 62.605,53.742 62.586,52.48 62.578,51.218 C 62.546,46.333 62.604,41.448 62.597,36.563 C 62.597,36.217 62.6,35.87 62.6,35.524 C 62.6,34.832 62.569,34.137 62.558,33.445 C 62.557,33.426 62.557,33.407 62.557,33.388 C 62.644,33.352 62.706,33.265 62.706,33.165 C 62.691,32.794 62.704,32.404 62.713,32.032 C 62.736,31.1 62.789,30.174 62.779,29.242 C 62.769,28.367 62.782,27.491 62.767,26.616 C 62.753,25.799 62.749,24.979 62.741,24.162 C 62.734,23.525 62.714,22.884 62.691,22.248 C 62.67,21.677 62.649,21.108 62.627,20.534 C 62.76,19.034 62.867,17.525 62.963,16.019 C 62.994,15.535 63.015,15.051 63.046,14.568 C 63.091,13.853 63.118,13.134 63.152,12.418 C 63.165,12.148 63.167,11.873 63.185,11.605 C 63.205,11.307 63.218,11.007 63.228,10.709 C 63.234,10.523 63.266,10.362 63.17,10.198 C 62.711,9.412 61.562,9.434 60.826,9.887 C 60.805,9.883 60.783,9.881 60.762,9.881 C 60.41,9.891 60.06,9.903 59.709,9.917 C 59.399,9.899 59.089,9.888 58.788,9.882 C 58.013,9.864 57.251,9.878 56.477,9.886 C 56.075,9.89 55.672,9.885 55.27,9.893 C 54.896,9.9 54.524,9.914 54.15,9.914 C 54.051,9.914 53.953,9.913 53.856,9.911 C 54.377,9.046 54.98,8.236 55.623,7.451 C 55.931,7.075 56.257,6.725 56.579,6.363 C 56.871,6.035 57.195,5.736 57.498,5.42 C 57.806,5.1 58.127,4.738 58.461,4.446 C 58.648,4.267 58.654,3.967 58.475,3.78 C 58.42,3.722 58.353,3.682 58.282,3.659 C 58.309,3.623 58.326,3.579 58.329,3.532 C 58.336,3.402 58.236,3.288 58.106,3.281 C 57.277,3.219 56.609,3.382 55.954,3.661 C 55.876,3.669 55.798,3.679 55.72,3.689 C 55.278,3.745 54.815,3.852 54.384,3.969 C 54.164,4.029 53.947,4.088 53.737,4.174 C 53.569,4.243 53.381,4.339 53.223,4.428 C 53.163,4.461 53.102,4.495 53.042,4.529 C 52.997,4.1 52.966,3.669 52.947,3.237 C 52.919,2.607 52.899,1.968 53.012,1.346 C 53.025,1.271 53.04,1.199 53.054,1.125 C 53.063,1.079 53.093,1.034 53.105,0.99 C 53.135,0.878 53.18,0.775 53.189,0.657 C 53.203,0.47 53.006,0.29 52.824,0.289 C 52.682,0.288 52.577,0.374 52.467,0.449 Z M 52.263,1.504 L 52.246,1.632 L 52.246,1.517 L 52.263,1.504 Z M 52.059,1.668 L 51.937,2.29 C 51.882,2.528 51.823,2.766 51.771,3.005 C 51.563,3.954 51.604,4.713 52.018,5.603 C 52.115,5.821 52.373,5.919 52.591,5.822 C 52.653,5.793 52.706,5.752 52.748,5.701 C 52.753,5.701 52.759,5.7 52.765,5.7 C 52.783,5.697 52.801,5.693 52.818,5.688 C 52.859,5.714 52.912,5.716 52.955,5.689 C 53.04,5.623 53.15,5.562 53.242,5.504 C 53.513,5.334 53.786,5.168 54.061,5.003 C 54.134,4.958 54.21,4.914 54.288,4.869 C 54.844,4.701 55.394,4.63 55.98,4.578 C 56.077,4.568 56.175,4.559 56.267,4.55 C 56.322,4.547 56.371,4.545 56.421,4.543 C 56.256,4.703 56.096,4.868 55.938,5.045 C 55.765,5.236 55.59,5.474 55.44,5.683 C 54.812,6.557 54.258,7.441 53.763,8.397 C 53.508,8.888 53.268,9.378 53.035,9.874 C 52.824,9.86 52.613,9.842 52.402,9.822 C 52.401,9.784 52.39,9.747 52.369,9.714 C 52.307,9.617 52.177,9.589 52.08,9.651 C 51.413,10.08 50.773,10.557 50.153,11.052 C 49.889,11.262 49.631,11.484 49.37,11.701 C 49.263,11.629 49.142,11.571 49.002,11.524 C 49.138,11.401 49.275,11.279 49.415,11.158 C 49.719,10.893 50.05,10.627 50.374,10.387 C 51.038,9.895 51.625,9.441 52.365,9.063 C 52.469,9.009 52.511,8.879 52.457,8.775 C 52.403,8.671 52.273,8.629 52.169,8.683 C 51.282,9.121 50.416,9.805 49.686,10.465 C 49.238,10.869 48.793,11.265 48.365,11.688 C 48.307,11.729 48.254,11.771 48.209,11.806 C 48.121,11.872 48.036,11.942 47.951,12.015 C 47.95,11.995 47.944,11.976 47.936,11.958 C 47.898,11.88 47.803,11.847 47.725,11.885 C 47.629,11.932 47.534,11.98 47.441,12.028 C 47.543,11.923 47.588,11.765 47.545,11.613 C 47.54,11.598 47.535,11.584 47.53,11.57 C 48.181,10.842 48.963,10.175 49.748,9.623 C 50.01,9.438 50.276,9.264 50.54,9.085 C 50.677,8.992 50.828,8.908 50.97,8.823 C 51.173,8.702 51.387,8.575 51.599,8.47 C 51.863,8.338 52.116,8.197 52.355,8.023 C 52.452,7.975 52.491,7.856 52.443,7.759 C 52.395,7.662 52.276,7.623 52.179,7.671 C 51.833,7.76 51.495,7.958 51.197,8.153 C 50.931,8.327 50.64,8.492 50.386,8.683 C 50.285,8.759 50.176,8.83 50.074,8.905 C 49.872,9.054 49.674,9.212 49.473,9.363 C 49.303,9.49 49.144,9.635 48.98,9.77 C 48.42,10.23 47.915,10.715 47.435,11.241 C 47.417,11.18 47.399,11.119 47.379,11.059 C 47.326,10.908 47.276,10.757 47.226,10.605 C 47.969,9.9 48.83,9.305 49.669,8.732 C 50.216,8.357 50.755,7.984 51.29,7.593 C 51.423,7.496 51.546,7.386 51.675,7.282 C 51.768,7.205 51.781,7.064 51.704,6.971 C 51.627,6.878 51.486,6.865 51.393,6.942 C 51.191,7.089 50.996,7.276 50.804,7.437 C 50.395,7.78 49.973,8.109 49.554,8.44 C 48.742,9.08 47.907,9.707 47.166,10.428 C 47.103,10.244 47.038,10.06 46.966,9.878 C 47.648,9.302 48.379,8.792 49.102,8.26 C 49.705,7.816 50.284,7.309 50.858,6.827 C 50.942,6.755 50.952,6.627 50.88,6.543 C 50.808,6.459 50.68,6.449 50.596,6.521 C 50.251,6.812 49.907,7.103 49.561,7.393 C 49.331,7.586 49.089,7.764 48.86,7.958 C 48.382,8.362 47.91,8.784 47.442,9.201 C 47.31,9.317 47.177,9.435 47.045,9.554 C 47.178,9.251 47.326,8.94 47.472,8.644 C 47.656,8.497 47.843,8.355 48.032,8.218 C 48.468,7.899 48.918,7.602 49.354,7.286 C 49.758,6.994 50.148,6.679 50.546,6.379 C 50.626,6.318 50.64,6.202 50.579,6.122 C 50.518,6.042 50.402,6.028 50.322,6.089 C 49.44,6.752 48.559,7.438 47.712,8.16 C 47.849,7.882 47.986,7.605 48.124,7.329 C 48.277,7.2 48.43,7.071 48.584,6.947 C 48.979,6.626 49.414,6.32 49.853,6.062 C 49.92,6.019 49.94,5.929 49.897,5.862 C 49.854,5.795 49.764,5.775 49.697,5.818 C 49.482,5.936 49.253,6.108 49.062,6.263 C 48.818,6.46 48.589,6.663 48.359,6.868 C 48.465,6.661 48.574,6.455 48.687,6.251 C 48.841,5.969 48.99,5.681 49.139,5.394 C 49.172,5.355 49.204,5.315 49.236,5.276 C 49.42,5.043 49.595,4.803 49.764,4.559 C 49.843,4.445 49.933,4.336 50.006,4.219 C 50.127,4.026 50.274,3.827 50.407,3.64 C 50.699,3.23 50.98,2.828 51.305,2.443 C 51.444,2.278 51.593,2.125 51.741,1.97 C 51.833,1.872 51.932,1.779 52.035,1.689 L 52.059,1.668 Z M 42.774,3.405 C 42.842,3.496 42.913,3.588 42.986,3.679 C 43.065,3.832 43.135,3.993 43.211,4.149 C 43.245,4.218 43.294,4.282 43.337,4.346 C 43.434,4.49 43.538,4.631 43.631,4.777 C 43.919,5.227 44.203,5.702 44.444,6.18 C 44.6,6.489 44.757,6.793 44.906,7.106 C 44.998,7.3 45.087,7.496 45.174,7.692 C 45.228,7.846 45.279,8.002 45.33,8.159 C 45.456,8.555 45.574,8.953 45.679,9.355 C 45.68,9.36 45.682,9.366 45.683,9.372 C 44.837,10.093 44.016,10.847 43.187,11.587 C 42.408,12.281 41.614,12.958 40.82,13.634 C 40.767,13.614 40.715,13.59 40.665,13.566 C 40.666,13.523 40.665,13.48 40.666,13.436 C 40.673,12.629 40.464,11.838 40.216,11.076 C 39.924,10.18 39.524,9.283 39.097,8.445 C 38.781,7.825 38.46,7.224 38.106,6.624 C 37.783,6.077 37.435,5.558 37.09,5.026 C 36.853,4.661 36.581,4.279 36.31,3.938 C 36.228,3.834 36.149,3.733 36.07,3.633 C 36.306,3.673 36.541,3.73 36.769,3.797 C 37.465,4.159 38.114,4.623 38.718,5.105 C 39.113,5.42 39.466,5.786 39.835,6.13 C 39.954,6.241 40.183,6.538 40.328,6.566 C 40.476,6.594 40.608,6.501 40.634,6.353 C 40.652,6.252 40.594,6.148 40.572,6.05 C 40.56,6 40.547,5.894 40.54,5.801 C 40.593,5.78 40.643,5.747 40.685,5.703 C 40.837,5.54 40.828,5.281 40.665,5.129 C 40.658,5.123 40.652,5.117 40.646,5.111 C 40.653,5.085 40.659,5.058 40.666,5.032 C 40.78,4.543 40.886,4.044 40.973,3.55 C 41.02,3.285 41.079,3.018 41.123,2.753 C 41.157,2.546 41.169,2.332 41.205,2.125 C 41.226,2.003 41.246,1.882 41.266,1.76 C 41.814,2.261 42.331,2.813 42.774,3.405 Z M 57.588,3.97 C 57.574,3.961 57.559,3.953 57.544,3.946 C 57.509,3.866 57.448,3.8 57.373,3.758 C 57.521,3.744 57.667,3.738 57.807,3.767 C 57.734,3.83 57.66,3.899 57.588,3.97 Z M 53.131,5.27 C 53.131,5.268 53.131,5.266 53.131,5.265 C 53.142,5.259 53.153,5.254 53.165,5.248 C 53.153,5.256 53.142,5.263 53.131,5.27 Z M 47.938,6.812 C 47.928,6.819 47.918,6.826 47.909,6.833 C 47.942,6.774 47.977,6.716 48.011,6.658 C 47.987,6.71 47.962,6.761 47.938,6.812 Z M 47.597,7.545 C 47.553,7.584 47.508,7.625 47.463,7.665 C 47.527,7.535 47.594,7.406 47.851,6.983 C 47.854,6.98 47.858,6.978 47.861,6.975 C 47.772,7.164 47.685,7.354 47.597,7.545 Z M 41.884,8.676 C 41.706,8.797 41.516,8.894 41.334,9.007 L 41.348,9.033 C 41.526,8.923 41.71,8.825 41.889,8.714 C 42.23,8.502 42.555,8.246 42.885,8.015 C 43.087,7.873 43.293,7.735 43.498,7.597 C 43.522,7.58 43.528,7.546 43.511,7.522 C 43.494,7.498 43.46,7.492 43.436,7.509 C 42.904,7.873 42.419,8.312 41.884,8.676 Z M 43.16,8.436 C 42.345,8.954 41.548,9.466 40.865,10.155 C 40.845,10.174 40.844,10.209 40.863,10.229 C 40.882,10.249 40.917,10.25 40.937,10.231 C 41.062,10.11 41.201,9.962 41.335,9.855 C 41.606,9.639 41.863,9.438 42.147,9.238 C 42.602,8.918 43.101,8.651 43.563,8.343 C 43.815,8.175 44.069,8.008 44.321,7.841 C 44.357,7.816 44.367,7.764 44.342,7.728 C 44.317,7.692 44.265,7.682 44.229,7.707 C 43.871,7.951 43.528,8.202 43.16,8.436 Z M 47.053,8.736 C 47.017,8.768 46.981,8.8 46.946,8.833 C 47.057,8.548 47.177,8.269 47.304,7.994 C 47.351,7.957 47.398,7.92 47.446,7.883 C 47.318,8.168 47.184,8.452 47.053,8.736 Z M 43.948,8.87 C 43.475,9.282 43.023,9.695 42.566,10.125 C 42.224,10.447 41.876,10.752 41.519,11.057 C 41.419,11.143 41.294,11.253 41.189,11.328 C 41.014,11.453 40.837,11.579 40.663,11.705 L 40.699,11.759 C 40.99,11.547 41.272,11.354 41.551,11.122 C 41.64,11.048 41.734,10.983 41.821,10.904 C 42.107,10.644 42.416,10.388 42.71,10.135 C 43.083,9.814 43.447,9.483 43.835,9.178 C 44.173,8.913 44.492,8.685 44.848,8.452 C 44.898,8.419 44.911,8.35 44.878,8.3 C 44.845,8.25 44.776,8.237 44.726,8.27 C 44.46,8.445 44.188,8.661 43.948,8.87 Z M 43.83,9.968 C 43.597,10.187 43.369,10.409 43.145,10.636 C 42.562,11.227 41.961,11.827 41.324,12.359 C 41.133,12.518 40.933,12.66 40.738,12.812 L 40.77,12.854 C 40.965,12.702 41.164,12.555 41.36,12.403 C 41.539,12.265 41.711,12.103 41.887,11.958 C 42.216,11.688 42.536,11.367 42.852,11.079 C 43.686,10.319 44.486,9.579 45.437,8.97 C 45.49,8.935 45.505,8.862 45.47,8.809 C 45.435,8.756 45.362,8.741 45.309,8.776 C 44.763,9.103 44.292,9.535 43.83,9.968 Z M 46.76,9.383 C 46.758,9.377 46.755,9.371 46.753,9.365 C 46.77,9.311 46.788,9.257 46.807,9.206 C 46.824,9.19 46.842,9.174 46.86,9.158 C 46.826,9.233 46.793,9.308 46.76,9.383 Z M 45.871,10.193 C 45.854,10.241 45.838,10.289 45.823,10.338 C 45.782,10.453 45.841,10.581 45.956,10.623 C 45.973,10.707 45.989,10.79 46.005,10.873 C 46.023,10.966 46.044,11.06 46.064,11.154 C 45.952,11.226 45.841,11.305 45.726,11.397 C 45.546,11.54 45.347,11.754 45.196,11.927 C 45.115,12.019 45.034,12.114 44.953,12.208 C 44.818,12.119 44.663,12.032 44.487,11.971 C 44.695,11.798 44.898,11.613 45.096,11.423 L 45.589,10.925 L 45.622,10.931 C 45.671,10.939 45.719,10.945 45.753,10.938 C 45.831,10.922 45.902,10.834 45.961,10.785 C 45.935,10.73 45.915,10.686 45.883,10.634 L 45.827,10.569 C 45.781,10.528 45.512,10.489 45.441,10.521 C 45.364,10.555 45.252,10.701 45.194,10.768 C 45.077,10.903 44.945,11.037 44.818,11.163 C 44.731,11.249 44.645,11.338 44.556,11.423 C 44.441,11.533 44.313,11.632 44.199,11.743 C 44.172,11.769 44.145,11.795 44.117,11.821 C 43.937,11.772 43.758,11.747 43.595,11.759 C 43.454,11.768 43.343,11.77 43.217,11.805 C 43.714,11.404 44.211,11.002 44.706,10.597 C 45.064,10.303 45.409,9.996 45.762,9.697 C 45.801,9.861 45.836,10.027 45.871,10.193 Z M 23.656,9.895 C 25.048,9.902 26.442,9.923 27.836,9.952 C 26.884,9.965 25.932,9.977 24.981,9.989 C 23.446,10.007 21.911,10.006 20.376,10.007 C 19.595,10.008 18.815,10.028 18.035,10.025 C 17.517,10.023 17.001,10.017 16.484,10.014 C 16.479,9.991 16.467,9.97 16.449,9.955 C 16.796,9.933 17.143,9.914 17.492,9.899 C 18.715,9.845 19.959,9.832 21.183,9.854 C 22.007,9.869 22.831,9.89 23.656,9.895 Z M 15.881,10.012 C 15.841,10.012 15.802,10.012 15.763,10.013 C 15.646,10.012 15.549,10.105 15.548,10.222 C 15.547,10.339 15.64,10.436 15.757,10.437 C 16.42,10.461 17.082,10.475 17.745,10.497 C 18.503,10.523 19.26,10.549 20.018,10.564 C 20.87,10.58 21.721,10.576 22.573,10.58 C 24.46,10.588 26.35,10.575 28.237,10.549 C 31.613,10.502 34.988,10.47 38.364,10.457 C 38.497,10.457 38.61,10.368 38.65,10.247 C 38.692,10.223 38.731,10.193 38.765,10.159 C 38.776,10.183 38.787,10.208 38.799,10.234 C 39.121,10.961 39.387,11.676 39.615,12.439 C 39.685,12.675 39.743,12.916 39.795,13.157 C 39.776,13.152 39.756,13.148 39.736,13.145 C 39.446,13.098 39.093,13.204 38.833,13.326 C 38.483,13.49 38.272,13.894 38.16,14.244 C 38.05,14.587 38.021,14.988 37.959,15.345 C 37.929,15.518 37.888,15.804 37.81,15.962 C 37.785,16.013 37.764,16.071 37.738,16.121 L 37.654,16.251 L 37.496,16.335 C 37.423,16.353 37.344,16.362 37.288,16.363 C 36.969,16.368 36.685,16.344 36.37,16.306 C 36.199,16.285 36.046,16.239 35.893,16.373 C 35.754,16.495 35.615,16.9 35.552,17.082 C 35.364,17.625 35.457,18.299 35.488,18.859 L 35.498,19.606 L 35.48,19.735 C 35.441,19.716 35.402,19.695 35.365,19.675 C 35.256,19.615 35.116,19.655 35.056,19.764 C 34.996,19.873 35.036,20.013 35.145,20.073 C 35.181,20.09 35.218,20.11 35.247,20.147 C 34.936,20.409 34.5,20.487 34.156,20.709 C 34.11,20.739 34.051,20.776 34.013,20.816 C 33.929,20.906 33.902,20.953 33.837,21.049 C 33.822,21.071 33.791,21.105 33.792,21.112 C 33.495,21.466 33.501,21.925 33.626,22.358 C 33.754,22.8 33.925,23.211 34.125,23.626 L 34.43,24.291 L 34.439,24.403 C 34.41,24.492 34.392,24.562 34.347,24.653 C 34.107,25.144 33.592,25.723 33.604,26.292 C 33.606,26.391 33.594,26.493 33.617,26.591 C 33.639,26.684 33.654,26.766 33.686,26.857 C 33.788,27.147 34.012,27.373 34.224,27.585 C 34.532,27.894 34.977,28.145 35.137,28.574 C 35.165,28.649 35.184,28.723 35.197,28.797 C 35.103,29.075 35.011,29.375 35.003,29.655 C 34.996,29.891 34.994,30.064 35.048,30.297 C 35.089,30.477 35.17,30.646 35.277,30.802 C 35.271,31.021 35.292,31.236 35.379,31.378 C 35.537,31.636 35.875,31.732 36.153,31.794 C 36.239,31.813 36.325,31.838 36.412,31.853 C 36.552,31.878 36.696,31.889 36.836,31.919 C 37,31.955 37.166,31.996 37.33,32.03 C 37.426,32.05 37.593,32.083 37.68,32.118 C 37.901,32.207 38.165,32.299 38.326,32.487 L 38.354,32.553 C 38.422,32.794 38.459,33.134 38.488,33.305 C 38.499,33.371 38.51,33.436 38.522,33.501 C 38.522,33.502 38.522,33.504 38.522,33.506 C 38.512,33.592 38.483,33.686 38.477,33.77 C 38.457,33.884 38.507,33.995 38.596,34.059 C 38.583,34.447 38.801,34.67 39.095,34.809 C 39.198,34.92 39.32,35.025 39.466,35.124 C 40.013,35.494 40.655,35.471 41.287,35.396 C 41.327,35.391 41.375,35.385 41.427,35.378 C 41.486,35.392 41.547,35.385 41.6,35.36 C 41.813,35.34 42.051,35.331 42.196,35.372 C 42.34,35.605 42.498,35.841 42.664,36.06 C 42.785,36.22 42.931,36.386 43.09,36.508 C 43.178,36.575 43.248,36.611 43.346,36.655 C 43.782,36.85 44.273,36.972 44.738,36.797 C 45.072,36.671 45.408,36.47 45.746,36.327 L 46.07,36.212 L 46.148,36.194 C 46.173,36.192 46.203,36.198 46.229,36.195 C 46.275,36.19 46.436,36.246 46.483,36.265 C 46.724,36.362 46.953,36.52 47.174,36.659 C 47.494,36.86 47.919,37.133 48.305,37.167 C 48.458,37.181 48.602,37.164 48.751,37.147 C 49.138,37.103 49.481,36.757 49.662,36.433 C 49.766,36.248 49.934,35.909 50.081,35.755 C 50.138,35.695 50.209,35.6 50.277,35.558 C 50.355,35.509 50.421,35.456 50.509,35.418 C 50.711,35.331 50.913,35.286 51.125,35.276 C 51.136,35.312 51.148,35.348 51.161,35.384 C 51.222,35.549 51.407,35.632 51.572,35.571 C 51.702,35.522 51.782,35.396 51.779,35.263 C 51.872,35.295 51.963,35.327 52.048,35.352 C 52.505,35.483 52.875,35.552 53.306,35.343 C 53.387,35.304 53.475,35.261 53.547,35.208 C 53.832,34.997 54,34.8 54.141,34.473 C 54.162,34.425 54.196,34.358 54.209,34.309 C 54.255,34.137 54.311,33.973 54.353,33.796 C 54.425,33.493 54.473,33.246 54.585,32.994 L 54.712,32.754 L 54.843,32.59 C 54.858,32.574 54.873,32.56 54.889,32.546 C 54.896,32.567 54.904,32.588 54.913,32.609 C 54.94,32.686 55.026,32.728 55.103,32.701 C 55.18,32.674 55.222,32.588 55.195,32.511 C 55.178,32.465 55.162,32.42 55.146,32.376 C 55.472,32.216 55.861,32.187 56.221,32.035 C 56.442,31.942 56.63,31.825 56.789,31.647 C 57.141,31.253 57.225,30.77 57.147,30.259 C 57.115,30.051 57.036,29.781 57.021,29.541 L 57.031,29.334 L 57.057,29.238 C 57.105,29.118 57.198,28.965 57.256,28.879 C 57.33,28.84 57.389,28.771 57.413,28.685 C 57.416,28.671 57.419,28.657 57.421,28.644 C 57.563,28.441 57.706,28.228 57.821,28.021 L 57.85,27.959 L 58.158,27.83 C 58.316,27.743 58.462,27.637 58.585,27.509 C 59.411,26.645 59.035,25.447 58.211,24.76 L 58.044,24.64 C 58.046,24.56 58.054,24.484 58.059,24.423 C 58.069,24.303 58.111,24.111 58.175,23.915 C 58.191,23.92 58.206,23.924 58.222,23.929 C 58.396,23.961 58.565,23.846 58.597,23.672 C 58.621,23.539 58.56,23.409 58.452,23.34 C 58.48,23.305 58.51,23.275 58.54,23.253 C 58.583,23.221 58.602,23.212 58.651,23.186 C 58.757,23.134 58.834,23.047 58.877,22.946 C 59.024,22.892 59.136,22.757 59.15,22.591 C 59.157,22.441 59.167,22.295 59.172,22.143 C 59.193,21.53 58.895,20.8 58.414,20.409 C 58.24,20.268 58.07,20.137 57.876,20.023 C 57.654,19.892 57.425,19.775 57.206,19.64 C 57.128,19.592 56.982,19.497 56.936,19.391 L 56.932,19.311 L 57.008,19.035 C 57.043,18.944 57.084,18.854 57.133,18.743 C 57.257,18.458 57.365,18.165 57.399,17.856 C 57.459,17.308 57.204,16.706 56.75,16.386 C 56.638,16.307 56.509,16.252 56.38,16.207 C 56.295,16.177 56.159,16.139 56.069,16.133 C 56.018,16.13 55.967,16.116 55.916,16.114 C 55.907,16.113 55.898,16.113 55.889,16.112 C 55.838,15.935 55.65,15.833 55.473,15.884 C 55.217,15.966 54.975,16.053 54.737,16.151 L 54.72,16.15 L 54.644,16.105 C 54.514,16 54.385,15.815 54.334,15.707 C 54.186,15.398 54.009,15.103 53.882,14.785 C 53.849,14.703 53.762,14.458 53.761,14.377 C 53.759,14.369 53.757,14.361 53.755,14.354 C 53.837,14.212 53.833,14.027 53.73,13.887 C 53.689,13.848 53.658,13.792 53.62,13.749 C 53.474,13.585 53.325,13.445 53.123,13.353 C 52.917,13.259 52.701,13.214 52.482,13.199 C 52.64,12.382 52.959,11.59 53.333,10.854 C 53.406,10.709 53.482,10.566 53.559,10.424 C 53.964,10.457 54.37,10.484 54.781,10.501 L 54.802,10.501 C 54.717,10.531 54.667,10.622 54.688,10.713 C 54.71,10.81 54.808,10.87 54.905,10.848 C 55.354,10.742 55.78,10.662 56.239,10.598 C 56.421,10.572 56.605,10.551 56.792,10.533 C 56.964,10.535 57.136,10.538 57.309,10.54 C 57.817,10.545 58.328,10.54 58.835,10.563 C 59.334,10.585 59.84,10.603 60.339,10.654 C 60.362,10.723 60.401,10.787 60.458,10.84 C 60.636,11.006 60.917,10.997 61.083,10.819 C 61.299,10.547 61.948,10.409 62.263,10.556 L 62.308,10.583 L 62.287,11.283 C 62.284,11.421 62.29,11.562 62.283,11.699 C 62.254,12.297 62.226,12.896 62.203,13.494 C 62.196,13.667 62.187,13.841 62.178,14.015 C 62.105,13.394 62.023,12.777 61.929,12.164 C 61.899,11.963 61.722,11.819 61.524,11.824 C 61.511,11.755 61.496,11.686 61.482,11.618 C 61.435,11.398 61.379,11.178 61.337,10.958 C 61.324,10.897 61.262,10.857 61.201,10.87 C 61.14,10.883 61.1,10.945 61.113,11.006 C 61.156,11.237 61.218,11.466 61.262,11.697 C 61.275,11.764 61.287,11.833 61.299,11.901 C 61.184,11.986 61.118,12.131 61.141,12.282 C 61.415,14.014 61.586,15.793 61.696,17.543 C 61.739,18.24 61.786,18.936 61.827,19.634 C 61.824,19.679 61.821,19.724 61.818,19.77 C 61.637,22.433 61.463,25.11 61.179,27.764 C 61.155,27.991 61.126,28.226 61.112,28.454 C 61.083,28.924 61.076,29.399 61.051,29.871 C 61.009,30.655 60.946,31.434 60.866,32.215 C 60.854,32.327 60.936,32.429 61.048,32.441 C 61.16,32.453 61.262,32.371 61.274,32.259 C 61.309,31.91 61.352,31.559 61.399,31.205 C 61.34,35.943 61.341,40.682 61.317,45.419 C 61.284,51.748 61.28,58.079 61.3,64.408 C 61.305,65.889 61.34,67.372 61.362,68.853 C 61.369,69.375 61.376,69.898 61.382,70.421 C 61.371,70.419 61.36,70.417 61.349,70.416 C 61.217,70.403 61.098,70.5 61.085,70.632 C 61.022,71.125 61.097,71.59 61.168,72.079 C 61.145,72.122 61.121,72.164 61.097,72.206 L 60.952,72.437 L 60.88,72.432 C 60.662,72.46 60.507,72.661 60.535,72.879 L 60.554,72.952 L 60.423,73.086 C 60.347,73.155 60.267,73.22 60.177,73.286 C 60.042,73.386 59.921,73.463 59.781,73.554 C 59.721,73.593 59.649,73.615 59.585,73.645 C 59.473,73.697 59.36,73.736 59.245,73.766 C 59.179,73.733 59.104,73.714 59.026,73.714 C 58.849,73.722 58.671,73.717 58.494,73.716 C 57.847,73.713 57.201,73.699 56.555,73.696 C 56.307,73.694 56.06,73.689 55.813,73.683 C 56.015,73.655 56.216,73.623 56.414,73.59 C 56.87,73.512 57.344,73.442 57.792,73.324 C 57.995,73.271 58.2,73.228 58.401,73.167 C 58.622,73.099 58.842,73.031 59.063,72.963 C 59.137,72.942 59.18,72.863 59.159,72.789 C 59.138,72.715 59.059,72.672 58.985,72.693 C 58.873,72.712 58.735,72.756 58.623,72.787 C 58.361,72.859 58.065,72.923 57.798,72.97 C 57.36,73.047 56.924,73.133 56.483,73.199 C 55.924,73.283 55.369,73.349 54.809,73.421 C 54.082,73.514 53.352,73.568 52.621,73.616 C 52.23,73.606 51.839,73.596 51.449,73.587 C 49.858,73.547 48.269,73.518 46.678,73.503 C 45.76,73.495 44.842,73.473 43.923,73.466 C 42.892,73.458 41.86,73.472 40.829,73.483 C 39.543,73.495 38.245,73.567 36.957,73.669 C 36.897,73.665 36.836,73.66 36.776,73.656 C 36.822,73.619 36.868,73.581 36.914,73.545 C 36.974,73.496 36.982,73.406 36.933,73.346 C 36.884,73.286 36.794,73.278 36.734,73.327 C 36.612,73.424 36.492,73.524 36.371,73.625 C 36.347,73.623 36.322,73.621 36.297,73.619 C 35.79,73.578 35.268,73.535 34.764,73.467 C 34.481,73.428 34.205,73.389 33.933,73.345 C 34.19,72.973 34.574,72.602 34.894,72.314 C 34.942,72.267 34.943,72.188 34.896,72.14 C 34.849,72.092 34.77,72.091 34.722,72.138 C 34.586,72.263 34.456,72.403 34.325,72.533 C 34.122,72.734 33.822,73.033 33.667,73.301 C 33.132,73.207 32.606,73.091 32.065,72.928 C 31.936,72.889 31.809,72.848 31.683,72.803 C 32.061,72.364 32.574,72.011 33.021,71.683 C 33.216,71.539 33.439,71.398 33.625,71.245 C 33.731,71.158 33.841,71.065 33.951,70.984 C 34.006,70.938 34.014,70.854 33.968,70.799 C 33.922,70.744 33.838,70.736 33.783,70.782 C 33.676,70.872 33.572,70.971 33.463,71.058 C 33.03,71.404 32.584,71.732 32.155,72.083 C 32.013,72.2 31.887,72.335 31.752,72.458 C 31.658,72.542 31.578,72.638 31.503,72.738 C 31.261,72.645 31.025,72.541 30.797,72.42 C 30.844,72.418 30.891,72.397 30.926,72.36 C 30.995,72.284 30.989,72.166 30.913,72.097 C 30.684,71.891 30.461,71.684 30.243,71.474 C 30.356,71.355 30.474,71.241 30.592,71.125 C 30.91,70.807 31.208,70.537 31.556,70.246 C 32.242,69.671 32.962,69.106 33.682,68.578 C 33.744,68.532 33.757,68.441 33.711,68.379 C 33.665,68.317 33.574,68.304 33.512,68.35 C 32.432,69.141 31.373,69.991 30.434,70.949 C 30.314,71.07 30.204,71.2 30.098,71.333 C 30.077,71.312 30.056,71.291 30.035,71.271 C 29.899,70.971 29.785,70.66 29.687,70.343 C 29.943,70.146 30.204,69.953 30.465,69.762 C 30.516,69.724 30.527,69.649 30.489,69.598 C 30.451,69.547 30.376,69.536 30.325,69.574 C 30.088,69.748 29.85,69.923 29.616,70.102 C 29.56,69.901 29.51,69.7 29.466,69.5 C 29.598,69.345 29.735,69.195 29.875,69.046 C 30.193,68.704 30.537,68.364 30.893,68.063 C 31.515,67.536 32.163,66.98 32.863,66.559 C 32.924,66.52 32.942,66.436 32.903,66.375 C 32.864,66.314 32.78,66.296 32.719,66.335 C 32.051,66.729 31.432,67.261 30.853,67.776 C 30.346,68.226 29.852,68.708 29.41,69.228 C 29.362,68.983 29.321,68.74 29.287,68.505 C 29.252,68.271 29.225,68.039 29.2,67.806 C 29.3,67.727 29.405,67.65 29.5,67.569 C 29.644,67.443 29.789,67.318 29.931,67.19 C 30.162,66.982 30.377,66.753 30.592,66.528 C 30.884,66.223 31.18,65.915 31.485,65.624 C 31.542,65.567 31.542,65.473 31.485,65.416 L 31.277,65.416 C 31.05,65.627 30.819,65.874 30.608,66.103 C 30.333,66.4 30.036,66.68 29.756,66.972 C 29.763,66.937 29.764,66.899 29.76,66.862 C 29.699,66.463 29.649,66.063 29.608,65.663 C 30.079,65.191 30.546,64.714 31.024,64.249 C 31.337,63.944 31.656,63.654 31.977,63.358 C 32.383,62.982 32.831,62.641 33.269,62.303 C 33.344,62.242 33.356,62.13 33.295,62.055 C 33.234,61.98 33.122,61.968 33.047,62.029 C 31.868,62.993 30.847,64.085 29.798,65.186 C 29.727,65.26 29.655,65.334 29.584,65.407 C 29.508,64.565 29.474,63.72 29.47,62.874 C 29.725,62.639 29.983,62.409 30.227,62.175 C 31.022,61.408 31.863,60.668 32.757,60.019 C 32.985,59.854 33.22,59.708 33.456,59.557 C 33.542,59.502 33.567,59.385 33.512,59.299 C 33.457,59.213 33.34,59.188 33.254,59.243 C 33.071,59.349 32.897,59.485 32.725,59.606 C 32.096,60.05 31.519,60.578 30.943,61.088 C 30.532,61.452 30.126,61.837 29.735,62.222 C 29.645,62.31 29.557,62.401 29.471,62.493 C 29.472,62.29 29.475,62.087 29.48,61.885 C 29.485,61.651 29.478,61.417 29.477,61.183 C 29.475,60.824 29.478,60.463 29.487,60.103 C 29.515,60.08 29.543,60.058 29.572,60.037 C 29.659,59.969 29.737,59.894 29.822,59.823 C 30.084,59.604 30.346,59.384 30.613,59.172 C 31.337,58.597 32.08,58.037 32.829,57.494 C 36.773,57.498 40.71,57.671 44.653,57.689 C 45.908,57.695 47.164,57.696 48.419,57.666 C 48.863,57.656 49.32,57.643 49.763,57.619 C 50.116,57.6 50.47,57.572 50.823,57.555 C 51.204,57.537 51.587,57.499 51.967,57.467 C 52.533,57.419 53.1,57.372 53.662,57.284 C 53.871,57.263 54.024,57.074 54.003,56.865 C 53.982,56.656 53.793,56.503 53.584,56.524 C 53.158,56.541 52.741,56.6 52.318,56.64 C 51.851,56.684 51.369,56.727 50.901,56.754 C 50.021,56.804 49.138,56.87 48.257,56.902 C 47.489,56.93 46.722,56.95 45.954,56.974 C 44.628,57.015 43.287,57.009 41.961,57.002 C 38.66,56.986 35.36,56.916 32.059,56.932 C 31.904,56.932 31.777,57.059 31.777,57.214 C 31.777,57.369 31.904,57.496 32.059,57.496 C 32.165,57.495 32.271,57.495 32.378,57.494 C 32.336,57.527 32.295,57.559 32.254,57.591 C 31.821,57.923 31.391,58.258 30.962,58.595 C 30.48,58.973 29.97,59.365 29.518,59.777 C 29.509,59.459 29.525,59.142 29.547,58.828 C 29.603,58.833 29.66,58.813 29.7,58.768 C 29.783,58.672 29.882,58.569 29.958,58.47 C 30.179,58.182 30.387,57.887 30.604,57.595 C 30.866,57.242 31.213,56.782 31.587,56.544 C 31.685,56.467 31.702,56.324 31.625,56.226 C 31.548,56.128 31.405,56.111 31.307,56.188 C 31.257,56.233 31.2,56.276 31.148,56.32 C 31.02,56.43 30.862,56.602 30.758,56.732 C 30.503,57.051 30.278,57.385 30.049,57.723 C 29.994,57.804 29.941,57.891 29.883,57.969 C 29.782,58.104 29.682,58.228 29.578,58.355 C 29.59,58.181 29.605,58.008 29.628,57.841 C 29.639,57.719 29.548,57.61 29.426,57.599 C 29.325,57.589 29.233,57.65 29.198,57.74 C 29.187,57.715 29.174,57.691 29.156,57.663 C 29.12,57.608 29.06,57.564 28.993,57.534 C 29.759,56.946 30.56,56.402 31.326,55.817 C 31.598,55.61 31.872,55.406 32.143,55.197 C 32.467,54.947 32.778,54.681 33.097,54.424 C 33.183,54.349 33.193,54.217 33.118,54.131 C 33.043,54.045 32.911,54.035 32.825,54.11 C 32.672,54.242 32.528,54.384 32.378,54.517 C 32.005,54.847 31.62,55.179 31.231,55.49 C 30.391,56.161 29.529,56.816 28.702,57.506 C 28.688,57.51 28.674,57.515 28.661,57.521 C 28.608,57.545 28.571,57.572 28.525,57.601 C 28.476,57.633 28.431,57.672 28.38,57.701 C 28.342,57.723 28.309,57.748 28.269,57.766 C 28.243,57.778 28.212,57.778 28.186,57.789 C 28.15,57.804 28.12,57.821 28.085,57.839 C 27.962,57.901 27.833,57.956 27.699,58.005 C 27.964,57.696 28.24,57.411 28.528,57.106 C 28.815,56.8 29.13,56.494 29.388,56.164 C 29.584,55.913 29.752,55.686 29.923,55.42 C 29.994,55.297 29.953,55.138 29.83,55.067 C 29.707,54.996 29.548,55.037 29.477,55.16 C 29.401,55.282 29.335,55.423 29.26,55.548 C 29.117,55.788 28.927,56.006 28.765,56.232 C 28.634,56.415 28.444,56.627 28.292,56.794 C 27.909,57.216 27.483,57.679 27.145,58.139 C 27.138,58.147 27.132,58.156 27.127,58.165 C 26.728,58.249 26.302,58.286 25.872,58.291 C 26.109,57.958 26.365,57.64 26.65,57.338 C 26.939,57.03 27.233,56.739 27.537,56.445 C 27.768,56.221 28.016,56.013 28.247,55.79 C 28.44,55.603 28.632,55.412 28.824,55.224 C 28.936,55.114 28.937,54.933 28.827,54.821 C 28.717,54.709 28.536,54.708 28.424,54.818 C 27.35,55.864 26.299,57.024 25.465,58.286 C 25.119,58.275 24.775,58.245 24.446,58.204 C 24.811,57.802 25.188,57.414 25.591,57.036 C 26.403,56.271 27.244,55.568 28.126,54.885 C 28.637,54.489 29.154,54.09 29.68,53.715 C 30.006,53.483 30.319,53.23 30.641,52.991 C 30.979,52.739 31.321,52.49 31.659,52.239 C 32.095,52.193 32.531,52.16 32.971,52.127 C 35.653,51.927 38.357,52.025 41.041,52.144 C 42.02,52.187 43.001,52.189 43.981,52.213 C 45.897,52.259 47.828,52.273 49.744,52.198 C 50.638,52.163 51.521,52.09 52.412,52.029 C 52.632,52.013 52.798,51.819 52.782,51.599 C 52.766,51.379 52.572,51.213 52.352,51.229 C 51.912,51.258 51.471,51.302 51.031,51.329 C 50.592,51.355 50.151,51.377 49.712,51.398 C 48.885,51.438 48.054,51.441 47.226,51.455 C 46.827,51.462 46.425,51.456 46.026,51.457 C 44.815,51.46 43.599,51.441 42.388,51.416 C 41.583,51.399 40.786,51.413 39.981,51.42 C 39.09,51.427 38.201,51.442 37.311,51.469 C 35.849,51.513 34.398,51.583 32.94,51.705 C 32.61,51.732 32.28,51.76 31.952,51.793 C 31.948,51.787 31.944,51.781 31.94,51.775 C 31.873,51.684 31.744,51.665 31.653,51.732 C 31.602,51.768 31.551,51.804 31.501,51.841 C 31.368,51.856 31.236,51.872 31.104,51.89 C 30.992,51.902 30.911,52.005 30.923,52.117 C 30.927,52.162 30.947,52.202 30.977,52.234 C 30.839,52.338 30.702,52.442 30.565,52.546 C 30.235,52.795 29.902,53.041 29.574,53.293 C 29.354,53.463 29.142,53.644 28.925,53.818 C 28.471,54.182 28.021,54.556 27.583,54.939 C 27.314,55.174 27.042,55.402 26.777,55.642 C 25.895,56.437 25.027,57.279 24.234,58.176 C 24.196,58.17 24.158,58.165 24.121,58.159 C 24.24,57.989 24.361,57.825 24.491,57.654 C 24.783,57.269 25.138,56.915 25.475,56.569 C 25.887,56.145 26.342,55.725 26.782,55.331 C 26.878,55.235 26.879,55.078 26.783,54.982 C 26.687,54.886 26.53,54.885 26.434,54.981 C 25.509,55.959 24.523,56.971 23.781,58.104 C 23.669,58.084 23.561,58.064 23.457,58.044 C 23.159,57.984 22.862,57.913 22.566,57.831 C 23.036,57.281 23.519,56.734 24.017,56.213 C 24.246,55.973 24.487,55.757 24.722,55.526 C 24.805,55.444 24.905,55.369 24.994,55.293 C 25.21,55.108 25.43,54.944 25.658,54.776 C 25.745,54.707 25.759,54.579 25.69,54.492 C 25.621,54.405 25.493,54.391 25.406,54.46 C 24.631,55.076 23.955,55.857 23.324,56.616 C 23.001,57.002 22.673,57.384 22.348,57.769 C 21.993,57.664 21.641,57.544 21.296,57.411 C 21.309,57.403 21.321,57.392 21.331,57.379 C 21.903,56.538 22.763,55.897 23.503,55.212 C 23.873,54.869 24.217,54.546 24.543,54.159 C 24.68,53.997 24.78,53.821 24.904,53.653 C 24.964,53.556 24.934,53.426 24.837,53.366 C 24.74,53.306 24.61,53.336 24.55,53.433 C 24.495,53.515 24.452,53.609 24.397,53.69 C 24.29,53.848 24.18,54.008 24.058,54.155 C 23.645,54.652 23.174,55.084 22.71,55.533 C 22.184,56.042 21.529,56.611 21.131,57.235 C 21.108,57.266 21.103,57.305 21.112,57.34 C 20.957,57.278 20.803,57.214 20.65,57.148 C 20.672,57.125 20.693,57.103 20.713,57.081 C 20.811,56.97 20.901,56.85 21.001,56.739 C 21.189,56.53 21.376,56.276 21.553,56.054 C 22.034,55.45 22.481,54.972 23.106,54.537 C 23.209,54.467 23.237,54.325 23.167,54.222 C 23.097,54.119 22.955,54.091 22.852,54.161 C 22.316,54.466 21.862,55.078 21.492,55.553 C 21.258,55.853 21.035,56.168 20.807,56.473 C 20.712,56.6 20.605,56.73 20.503,56.852 C 20.456,56.908 20.401,56.959 20.356,57.016 C 20.099,56.898 19.837,56.772 19.585,56.636 C 19.8,56.349 20.035,56.076 20.284,55.82 C 20.585,55.509 20.896,55.177 21.227,54.899 C 21.604,54.582 21.977,54.263 22.366,53.959 C 22.813,53.61 23.261,53.263 23.705,52.91 C 24.024,52.656 24.363,52.38 24.659,52.101 C 24.9,51.873 25.129,51.639 25.366,51.409 C 25.423,51.351 25.422,51.256 25.364,51.199 C 25.306,51.142 25.211,51.143 25.154,51.201 C 25.022,51.329 24.898,51.471 24.764,51.595 C 24.401,51.929 24.045,52.268 23.664,52.582 C 22.767,53.322 21.859,54.055 20.99,54.827 C 20.74,55.049 20.513,55.298 20.272,55.528 C 20.188,55.608 20.108,55.71 20.031,55.798 C 19.82,56.041 19.622,56.293 19.434,56.552 C 19.36,56.511 19.288,56.469 19.218,56.426 C 19.091,56.348 18.958,56.276 18.832,56.197 C 18.477,55.974 18.112,55.716 17.774,55.445 C 17.904,55.344 18.033,55.242 18.154,55.131 C 18.4,54.902 18.665,54.689 18.905,54.453 C 19.31,54.056 19.728,53.672 20.135,53.277 C 20.512,52.911 20.9,52.563 21.294,52.215 C 21.891,51.689 22.462,51.236 23.169,50.864 C 23.251,50.82 23.282,50.715 23.238,50.633 C 23.194,50.551 23.089,50.52 23.007,50.564 C 22.883,50.632 22.756,50.696 22.634,50.767 C 22.519,50.833 22.409,50.915 22.296,50.984 C 22.096,51.106 21.888,51.279 21.704,51.427 C 21.453,51.629 21.204,51.835 20.974,52.061 C 20.336,52.689 19.717,53.327 19.09,53.966 C 18.804,54.257 18.513,54.547 18.21,54.82 C 18.119,54.902 18.028,54.992 17.933,55.068 C 17.851,55.133 17.772,55.204 17.692,55.272 C 17.67,55.289 17.649,55.307 17.627,55.324 C 17.553,55.263 17.481,55.201 17.412,55.139 C 16.893,54.676 16.452,54.187 16.087,53.657 C 16.84,53.112 17.634,52.615 18.401,52.095 C 18.746,51.861 19.123,51.595 19.436,51.317 C 19.544,51.221 19.661,51.13 19.767,51.032 C 19.842,50.963 19.939,50.875 20.021,50.817 C 20.077,50.766 20.082,50.677 20.031,50.621 C 19.98,50.565 19.891,50.56 19.835,50.611 C 19.718,50.72 19.607,50.837 19.486,50.94 C 18.886,51.45 18.282,51.913 17.643,52.377 C 17.098,52.772 16.547,53.145 16.008,53.541 C 15.888,53.358 15.776,53.171 15.673,52.979 C 15.588,52.539 15.528,52.099 15.478,51.653 C 15.814,51.261 16.198,50.895 16.586,50.743 L 16.539,50.694 C 16.366,50.756 16.067,50.978 15.938,51.097 C 15.772,51.25 15.618,51.414 15.471,51.584 C 15.439,51.297 15.412,51.009 15.384,50.717 C 15.314,49.99 15.271,49.248 15.236,48.519 C 15.232,48.455 15.229,48.392 15.227,48.328 C 15.322,48.2 15.419,48.072 15.516,47.946 C 15.543,47.911 15.535,47.859 15.5,47.832 C 15.465,47.805 15.413,47.813 15.386,47.848 C 15.329,47.922 15.272,47.997 15.215,48.072 C 15.168,46.998 15.137,45.928 15.111,44.853 C 15.098,44.332 15.071,43.809 15.053,43.288 C 15.021,42.38 15.002,41.472 14.977,40.564 C 14.967,40.205 14.958,39.845 14.95,39.486 C 14.986,39.222 15.021,38.957 15.054,38.693 C 15.201,37.482 15.318,36.263 15.389,35.045 C 15.439,34.185 15.455,33.319 15.478,32.458 C 15.496,31.783 15.509,31.107 15.515,30.432 C 15.538,27.631 15.525,24.838 15.421,22.039 C 15.369,20.663 15.283,19.287 15.203,17.912 C 15.227,17.431 15.25,16.949 15.283,16.468 C 15.322,15.907 15.366,15.344 15.402,14.783 C 15.46,13.873 15.576,12.964 15.706,12.066 C 15.746,11.792 15.833,11.227 15.96,10.974 C 16.041,10.767 15.939,10.533 15.732,10.452 C 15.525,10.371 15.291,10.473 15.21,10.68 C 15.169,10.75 15.122,10.901 15.081,11.056 C 14.939,10.745 14.854,10.541 14.894,10.21 L 14.911,10.111 L 14.997,10.081 C 15.086,10.049 15.177,10.026 15.268,10.011 C 15.314,10.028 15.364,10.036 15.416,10.032 C 15.534,10.017 15.656,10.007 15.779,9.998 C 15.812,10.002 15.846,10.007 15.881,10.012 Z M 52.201,10.297 C 52.405,10.317 52.608,10.337 52.811,10.357 C 52.775,10.436 52.739,10.516 52.703,10.596 C 52.54,10.954 52.389,11.318 52.239,11.683 C 52.18,11.591 52.06,11.552 51.957,11.598 C 51.889,11.635 51.82,11.663 51.759,11.711 C 51.553,11.874 51.412,12.055 51.223,12.223 C 51.19,12.252 51.157,12.288 51.124,12.315 C 51.091,12.342 51.048,12.364 51.018,12.393 C 51.001,12.41 50.906,12.448 50.877,12.463 C 50.795,12.501 50.759,12.601 50.797,12.683 C 50.835,12.765 50.935,12.801 51.017,12.763 C 51.066,12.732 51.127,12.717 51.176,12.686 C 51.288,12.616 51.37,12.543 51.474,12.467 C 51.669,12.323 51.858,12.093 52.1,12.025 C 52.058,12.127 52.016,12.229 51.975,12.331 C 51.964,12.355 51.954,12.38 51.944,12.404 C 51.652,12.459 51.37,12.584 51.162,12.796 C 51.061,12.878 51.046,13.027 51.126,13.129 C 50.886,13.144 50.655,13.166 50.462,13.165 C 50.405,13.164 50.348,13.162 50.291,13.158 C 50.24,13.107 50.206,13.047 50.165,12.947 C 50.136,12.877 50.097,12.816 50.07,12.743 C 50.062,12.723 50.054,12.703 50.046,12.684 C 50.189,12.535 50.337,12.393 50.497,12.256 C 50.552,12.208 50.616,12.152 50.675,12.113 C 50.763,12.055 50.855,11.993 50.942,11.934 C 50.984,11.905 51.038,11.88 51.082,11.854 C 51.303,11.724 51.527,11.603 51.742,11.466 C 51.875,11.381 51.994,11.284 52.123,11.197 C 52.232,11.116 52.254,10.96 52.173,10.851 C 52.092,10.742 51.936,10.72 51.827,10.801 C 51.675,10.905 51.534,11.02 51.38,11.122 C 51.123,11.292 50.847,11.454 50.584,11.617 C 50.357,11.757 50.084,11.999 49.841,12.248 C 49.779,12.127 49.708,12.021 49.627,11.928 C 49.831,11.775 50.035,11.619 50.243,11.471 C 50.49,11.294 50.722,11.091 50.967,10.911 C 51.314,10.656 51.658,10.413 52.018,10.182 C 52.057,10.244 52.122,10.288 52.201,10.297 Z M 46.143,11.569 C 46.158,11.679 46.201,11.719 46.288,11.774 C 46.002,11.995 45.8,12.305 45.579,12.591 C 45.569,12.603 45.557,12.616 45.545,12.63 C 45.399,12.54 45.258,12.434 45.15,12.352 C 45.252,12.258 45.354,12.163 45.456,12.069 C 45.605,11.93 45.794,11.817 45.94,11.684 C 45.995,11.632 46.063,11.58 46.137,11.529 C 46.139,11.542 46.141,11.555 46.143,11.569 Z M 14.775,11.782 C 14.821,11.916 14.849,12.019 14.877,12.138 C 14.858,12.262 14.838,12.386 14.821,12.511 C 14.798,12.251 14.776,11.99 14.756,11.73 C 14.762,11.747 14.769,11.764 14.775,11.782 Z M 46.674,12.05 C 46.682,12.048 46.69,12.046 46.699,12.044 C 46.721,12.133 46.746,12.221 46.762,12.313 C 46.767,12.342 46.783,12.362 46.794,12.388 C 46.601,12.504 46.412,12.627 46.229,12.761 C 46.225,12.763 46.222,12.765 46.219,12.767 C 46.207,12.69 46.143,12.634 46.063,12.624 C 45.957,12.61 45.858,12.677 45.831,12.778 C 45.815,12.771 45.798,12.765 45.782,12.758 C 45.888,12.645 45.986,12.522 46.089,12.394 C 46.161,12.304 46.259,12.186 46.35,12.114 C 46.394,12.078 46.435,12.047 46.48,12.02 C 46.538,12.049 46.605,12.06 46.674,12.05 Z M 48.828,12.115 L 48.839,12.121 C 48.776,12.17 48.714,12.218 48.653,12.269 C 48.584,12.32 48.571,12.419 48.622,12.488 C 48.673,12.557 48.772,12.57 48.841,12.519 C 48.919,12.455 49,12.393 49.082,12.332 C 49.097,12.351 49.112,12.371 49.127,12.392 C 49.128,12.4 49.129,12.408 49.13,12.416 C 49.145,12.545 49.196,12.678 49.245,12.797 C 49.263,12.84 49.316,12.925 49.346,12.961 C 49.354,12.971 49.363,12.981 49.372,12.992 C 49.369,13.025 49.387,13.051 49.412,13.072 C 49.422,13.081 49.433,13.088 49.448,13.083 C 49.45,13.086 49.451,13.087 49.453,13.089 C 49.58,13.409 49.709,13.683 50.067,13.88 C 50.168,13.935 50.316,13.981 50.435,14.01 C 50.07,14.543 49.773,15.16 49.573,15.681 C 49.527,15.792 49.579,15.922 49.69,15.968 C 49.801,16.014 49.931,15.962 49.977,15.851 C 50.025,15.74 50.068,15.625 50.118,15.516 C 50.345,15.02 50.656,14.497 51.044,14.076 C 51.19,14.074 51.333,14.063 51.48,14.048 C 51.508,14.078 51.542,14.101 51.583,14.117 C 51.702,14.161 51.834,14.117 51.892,14.004 L 51.898,14.004 C 52.381,13.956 52.779,13.936 53.044,14.393 C 53.11,14.483 53.206,14.539 53.308,14.558 C 53.32,14.613 53.336,14.669 53.347,14.721 C 53.381,14.883 53.422,15.046 53.464,15.208 C 53.502,15.357 53.538,15.506 53.585,15.652 C 53.612,15.734 53.662,15.822 53.7,15.9 C 53.798,16.101 53.904,16.305 54.044,16.481 C 53.376,16.849 52.76,17.391 52.238,17.938 C 52.142,18.035 52.142,18.193 52.239,18.289 C 52.336,18.385 52.494,18.385 52.59,18.288 C 53.215,17.645 53.836,17.182 54.583,16.865 C 54.704,16.893 54.843,16.902 54.938,16.901 C 55.307,16.896 55.731,16.834 56.086,16.93 C 56.234,16.97 56.362,17.072 56.456,17.19 L 56.52,17.304 L 56.572,17.438 C 56.589,17.49 56.601,17.544 56.604,17.598 C 56.639,18.338 55.865,18.965 56.191,19.718 C 55.528,19.865 54.888,20.214 54.549,20.811 C 54.501,20.887 54.524,20.99 54.6,21.038 C 54.676,21.086 54.779,21.063 54.827,20.987 C 54.874,20.892 54.966,20.78 55.039,20.704 C 55.414,20.309 55.945,20.138 56.479,20.105 C 56.758,20.358 57.155,20.548 57.449,20.716 C 57.625,20.816 57.759,20.925 57.913,21.053 C 58.204,21.294 58.36,21.766 58.344,22.133 C 58.341,22.193 58.336,22.255 58.331,22.316 C 58.302,22.323 58.273,22.334 58.245,22.348 C 58.049,22.401 57.81,22.639 57.69,22.797 C 57.599,22.916 57.518,23.052 57.447,23.197 C 56.962,23.154 56.482,23.143 55.977,23.222 C 55.797,23.25 55.608,23.288 55.437,23.35 C 55.333,23.381 55.273,23.493 55.304,23.597 C 55.335,23.701 55.447,23.761 55.551,23.73 C 56.071,23.55 56.676,23.582 57.255,23.689 C 57.173,23.957 57.121,24.233 57.103,24.484 C 57.084,24.74 57.085,25.102 57.298,25.275 C 57.367,25.331 57.477,25.37 57.537,25.424 C 57.575,25.458 57.618,25.486 57.657,25.519 C 57.859,25.687 57.998,25.911 58.078,26.158 C 58.088,26.19 58.12,26.314 58.117,26.343 C 58.112,26.402 58.125,26.546 58.102,26.596 C 58.067,26.672 58.061,26.722 58.02,26.792 C 57.983,26.855 57.856,26.979 57.794,27.011 C 57.756,27.031 57.673,27.071 57.643,27.094 C 57.573,27.149 57.376,27.181 57.283,27.242 C 57.136,27.338 57.112,27.453 57.039,27.595 C 57.011,27.65 56.973,27.702 56.945,27.757 C 56.893,27.858 56.79,28.003 56.717,28.104 C 56.207,27.793 55.774,27.249 55.116,27.335 C 54.985,27.341 54.884,27.454 54.89,27.585 C 54.896,27.716 55.009,27.817 55.14,27.811 C 55.48,27.751 55.83,28.073 56.06,28.282 C 56.158,28.371 56.281,28.483 56.408,28.582 C 56.356,28.674 56.307,28.768 56.26,28.864 C 56.109,29.171 56.116,29.541 56.18,29.874 C 56.211,30.037 56.265,30.216 56.285,30.377 C 56.295,30.458 56.32,30.602 56.312,30.682 C 56.31,30.703 56.304,30.736 56.305,30.756 C 56.308,30.812 56.275,30.885 56.235,30.956 L 56.133,31.115 L 56.024,31.209 C 55.979,31.228 55.934,31.251 55.888,31.271 C 55.835,31.294 55.753,31.312 55.695,31.328 C 55.514,31.378 55.331,31.426 55.153,31.485 C 55.059,31.516 54.941,31.552 54.854,31.6 C 54.823,31.616 54.795,31.632 54.768,31.648 C 54.695,31.539 54.614,31.431 54.545,31.339 C 54.24,30.936 53.921,30.554 53.658,30.122 C 53.608,30.044 53.502,30.02 53.424,30.07 C 53.346,30.12 53.322,30.226 53.372,30.304 C 53.649,30.753 53.975,31.121 54.289,31.542 C 54.355,31.631 54.432,31.728 54.504,31.828 C 54.41,31.904 54.323,31.99 54.211,32.107 C 54.158,32.162 54.11,32.247 54.063,32.305 C 53.79,32.643 53.668,33.368 53.566,33.786 C 53.455,34.237 53.346,34.512 52.965,34.685 L 52.798,34.747 L 52.73,34.758 C 52.543,34.784 51.983,34.597 51.8,34.555 C 51.692,34.53 51.573,34.511 51.456,34.498 C 51.211,33.958 50.977,33.418 50.766,32.857 C 50.728,32.756 50.614,32.704 50.513,32.742 C 50.412,32.78 50.36,32.894 50.398,32.995 C 50.557,33.434 50.711,33.874 50.847,34.321 C 50.868,34.392 50.889,34.464 50.91,34.537 C 50.397,34.616 49.926,34.81 49.561,35.215 C 49.41,35.382 49.288,35.58 49.183,35.779 C 49.13,35.879 49.071,36.003 49.007,36.094 C 48.943,36.184 48.828,36.373 48.724,36.403 C 48.691,36.413 48.655,36.437 48.615,36.442 C 48.563,36.449 48.521,36.453 48.477,36.456 L 48.359,36.458 L 48.197,36.426 C 48.056,36.394 47.845,36.253 47.722,36.182 C 47.265,35.918 46.748,35.507 46.194,35.513 C 46.098,35.513 46,35.528 45.901,35.552 C 45.921,35.367 45.936,35.142 45.944,35.068 C 46.019,34.35 45.99,33.825 45.671,33.181 C 45.61,33.058 45.459,33.009 45.336,33.07 C 45.213,33.131 45.164,33.282 45.225,33.405 C 45.273,33.506 45.316,33.591 45.351,33.698 C 45.463,34.036 45.413,34.413 45.343,34.754 C 45.298,34.973 45.234,35.185 45.176,35.4 C 45.156,35.475 45.101,35.625 45.122,35.696 C 45.137,35.747 45.161,35.792 45.189,35.834 C 44.921,35.965 44.657,36.104 44.412,36.183 C 44.276,36.226 44.029,36.197 43.894,36.154 C 43.858,36.143 43.818,36.122 43.782,36.112 C 43.759,36.106 43.73,36.099 43.71,36.087 C 43.689,36.075 43.659,36.06 43.628,36.045 L 43.561,36.016 L 43.463,35.951 C 43.431,35.925 43.4,35.897 43.37,35.866 C 43.436,35.755 43.444,35.612 43.378,35.491 C 43.145,35.102 42.925,34.844 42.554,34.71 C 42.506,34.655 42.446,34.607 42.357,34.568 C 42.315,34.549 42.265,34.534 42.212,34.522 C 42.231,34.495 42.25,34.467 42.269,34.44 C 42.536,34.047 42.82,33.634 43.142,33.283 C 43.258,33.139 43.236,32.927 43.092,32.811 C 42.948,32.695 42.736,32.717 42.62,32.861 C 42.554,32.946 42.483,33.024 42.423,33.114 C 42.145,33.53 41.901,33.976 41.645,34.407 C 41.63,34.43 41.616,34.453 41.602,34.477 L 41.53,34.477 C 41.271,34.477 41.002,34.486 40.744,34.504 C 40.632,34.512 40.502,34.536 40.389,34.551 C 40.253,34.568 40.12,34.581 39.985,34.588 C 39.961,34.576 39.935,34.562 39.91,34.548 C 39.838,34.506 39.772,34.455 39.711,34.4 L 39.559,34.239 L 39.371,33.891 C 39.222,33.499 39.185,33.027 39.088,32.646 C 39.014,32.356 38.959,32.125 38.748,31.906 C 38.74,31.898 38.733,31.891 38.725,31.884 C 38.727,31.882 38.729,31.88 38.732,31.879 C 38.877,31.767 39.021,31.655 39.168,31.545 C 39.473,31.317 39.819,31.045 40.155,30.862 C 40.31,30.748 40.344,30.528 40.23,30.373 C 40.116,30.218 39.896,30.184 39.741,30.298 C 39.472,30.508 39.215,30.77 38.969,31.007 C 38.736,31.23 38.503,31.438 38.257,31.638 C 38.032,31.558 37.79,31.5 37.63,31.453 C 36.992,31.264 36.102,31.086 35.711,30.475 C 35.734,30.293 35.76,30.106 35.782,29.921 C 35.817,29.877 35.844,29.825 35.858,29.768 C 35.864,29.688 35.899,29.593 35.911,29.51 C 35.927,29.401 35.937,29.295 35.951,29.187 C 35.963,29.096 35.955,28.97 35.95,28.878 C 35.934,28.594 35.865,28.364 35.744,28.14 C 35.73,28.092 35.715,28.045 35.697,27.999 C 35.772,27.969 35.845,27.939 35.918,27.912 C 36.459,27.703 36.96,27.526 37.542,27.55 C 37.646,27.554 37.747,27.58 37.849,27.6 C 38.066,27.624 38.264,27.468 38.288,27.251 C 38.312,27.034 38.156,26.836 37.939,26.812 C 37.14,26.755 36.439,27.068 35.731,27.408 C 35.634,27.454 35.536,27.499 35.439,27.545 C 35.341,27.427 35.223,27.32 35.078,27.226 C 34.993,27.17 34.884,27.124 34.771,27.085 C 34.732,27.051 34.693,27.017 34.656,26.982 C 34.588,26.919 34.377,26.682 34.37,26.593 L 34.341,26.471 L 34.355,26.186 L 34.406,26.017 C 34.647,25.461 35.383,24.655 35.089,24.013 C 35.028,23.881 34.965,23.748 34.9,23.614 C 35.128,23.682 35.354,23.755 35.575,23.836 C 35.952,23.974 36.328,24.114 36.705,24.251 C 36.854,24.3 37.017,24.219 37.066,24.07 C 37.115,23.921 37.034,23.758 36.885,23.709 C 36.63,23.624 36.346,23.543 36.085,23.475 C 35.602,23.35 35.124,23.192 34.641,23.062 C 34.511,22.772 34.394,22.479 34.315,22.187 C 34.279,22.053 34.222,21.73 34.305,21.614 C 34.34,21.565 34.386,21.516 34.426,21.455 L 34.511,21.332 L 34.814,21.162 C 34.941,21.106 35.072,21.057 35.175,21.007 C 35.408,20.893 35.637,20.763 35.814,20.58 C 35.892,20.659 35.966,20.737 36.066,20.796 C 36.162,20.853 36.258,20.929 36.352,20.991 C 36.574,21.138 36.797,21.3 37.028,21.432 C 37.144,21.498 37.269,21.572 37.388,21.631 C 37.507,21.69 37.635,21.736 37.752,21.795 C 37.962,21.873 38.198,21.765 38.276,21.555 C 38.354,21.345 38.246,21.109 38.036,21.031 C 37.807,20.952 37.603,20.881 37.382,20.77 C 37.056,20.605 36.707,20.378 36.409,20.168 C 36.332,20.114 36.226,20.068 36.124,20.026 C 36.139,19.981 36.153,19.934 36.165,19.883 C 36.221,19.642 36.199,19.333 36.198,19.085 C 36.195,18.461 36.029,17.688 36.309,17.099 L 36.347,17.018 L 36.829,17.066 C 37.082,17.082 37.334,17.082 37.56,17.035 C 37.724,17 37.883,16.955 38.017,16.867 C 38.183,17.266 38.497,17.654 38.768,17.897 C 39.031,18.134 39.285,18.315 39.574,18.515 C 39.714,18.6 39.898,18.554 39.983,18.414 C 40.068,18.274 40.022,18.09 39.882,18.005 C 39.334,17.739 38.474,17.144 38.344,16.464 C 38.57,16.039 38.653,15.546 38.721,15.072 C 38.762,14.784 38.842,14.254 39.064,14.052 C 39.159,13.966 39.245,13.927 39.337,13.906 L 39.606,13.869 L 39.697,13.899 C 39.744,13.922 39.792,13.948 39.812,13.958 C 39.993,14.051 40.167,14.149 40.355,14.234 C 40.821,14.445 41.258,14.561 41.763,14.404 C 41.776,14.399 41.789,14.395 41.802,14.391 C 41.833,14.506 41.857,14.624 41.89,14.763 C 41.925,14.911 41.991,15.077 42.04,15.223 C 42.182,15.65 42.329,16.037 42.571,16.419 C 42.648,16.549 42.818,16.593 42.948,16.516 C 43.078,16.439 43.122,16.269 43.045,16.139 C 42.998,16.056 42.941,15.973 42.898,15.888 C 42.722,15.544 42.572,15.105 42.462,14.735 C 42.406,14.551 42.3,14.35 42.197,14.156 C 42.424,13.947 42.558,13.659 42.709,13.367 C 43.017,13.124 43.328,12.886 43.64,12.646 C 43.678,12.615 43.718,12.584 43.758,12.553 L 43.959,12.583 C 44.077,12.613 44.191,12.656 44.3,12.719 C 44.346,12.745 44.392,12.775 44.438,12.803 C 44.337,12.916 44.236,13.028 44.133,13.136 C 44.099,13.173 44.101,13.233 44.138,13.267 C 44.175,13.301 44.235,13.299 44.269,13.262 C 44.376,13.144 44.486,13.023 44.599,12.902 C 44.667,12.95 44.738,13.006 44.798,13.051 C 45.003,13.205 45.273,13.388 45.524,13.451 C 45.609,13.472 45.697,13.487 45.787,13.496 C 45.793,13.622 45.806,13.747 45.826,13.871 C 45.869,14.142 45.936,14.401 45.991,14.669 C 46.032,14.871 46.069,15.081 46.13,15.278 C 46.184,15.467 46.383,15.578 46.572,15.524 C 46.761,15.47 46.872,15.271 46.818,15.082 C 46.783,14.977 46.762,14.876 46.716,14.774 C 46.525,14.351 46.315,13.928 46.243,13.482 C 46.338,13.465 46.432,13.441 46.522,13.407 C 46.531,13.403 46.54,13.399 46.55,13.395 C 46.57,13.394 46.589,13.39 46.609,13.383 C 46.649,13.365 46.689,13.348 46.803,13.299 L 46.806,13.299 C 46.809,13.297 46.812,13.296 46.822,13.291 C 46.857,13.277 46.899,13.259 46.941,13.241 C 47.164,13.142 47.402,12.987 47.616,12.866 C 47.707,12.815 47.805,12.762 47.892,12.706 C 48.066,12.594 48.269,12.495 48.436,12.378 L 48.828,12.115 Z M 47.391,12.492 C 47.385,12.459 47.38,12.427 47.375,12.396 C 47.475,12.346 47.576,12.298 47.678,12.251 C 47.584,12.333 47.488,12.414 47.391,12.492 Z M 42.01,13.089 L 41.712,13.59 L 41.633,13.65 C 41.561,13.688 41.5,13.699 41.429,13.726 C 41.319,13.767 41.088,13.709 40.975,13.683 C 40.961,13.679 40.947,13.676 40.934,13.672 C 41.392,13.289 41.854,12.91 42.318,12.533 C 42.212,12.702 42.118,12.889 42.01,13.089 Z M 43.758,12.553 L 43.756,12.553 L 43.758,12.553 Z M 46.83,12.714 C 46.822,12.71 46.815,12.706 46.808,12.703 C 46.815,12.699 46.822,12.695 46.829,12.691 C 46.829,12.698 46.829,12.706 46.83,12.714 Z M 40.889,14.786 L 40.896,14.818 L 40.889,14.857 L 40.871,14.901 L 40.856,14.944 L 40.85,14.983 L 40.876,15.053 L 41.008,15.026 C 41.035,15.091 41.111,15.123 41.176,15.096 C 41.241,15.069 41.273,14.993 41.246,14.928 L 41.357,14.853 L 41.326,14.785 L 41.294,14.762 L 41.253,14.743 L 41.209,14.725 L 41.176,14.702 L 41.159,14.674 C 41.129,14.6 41.042,14.565 40.968,14.595 C 40.894,14.625 40.859,14.712 40.889,14.786 Z M 42.719,16.832 C 42.341,17.02 41.953,17.244 41.599,17.494 C 41.362,17.649 41.131,17.817 40.922,18.014 C 40.824,18.106 40.717,18.187 40.624,18.286 C 40.544,18.371 40.455,18.447 40.378,18.534 C 40.194,18.742 40.017,18.939 39.846,19.159 C 39.793,19.225 39.742,19.293 39.696,19.37 C 39.684,19.384 39.673,19.399 39.664,19.416 C 39.345,19.861 39.114,20.248 38.924,20.625 C 38.879,20.68 38.838,20.736 38.807,20.789 C 38.667,21.019 38.569,21.257 38.506,21.502 C 38.502,21.509 38.499,21.517 38.496,21.525 C 38.366,21.841 38.277,22.14 38.172,22.463 C 38.117,22.634 38.065,22.864 38.038,23.04 C 38.021,23.149 37.995,23.257 37.977,23.365 C 37.921,23.7 37.886,24.131 37.89,24.47 C 37.891,24.624 37.896,24.778 37.901,24.862 C 37.903,24.91 37.903,24.889 37.906,24.868 C 37.916,25.117 37.922,25.188 37.933,25.26 C 37.942,25.42 37.957,25.549 37.983,25.676 C 37.986,25.717 37.99,25.739 37.994,25.761 C 38.005,25.83 38.016,25.903 38.043,26.056 C 38.038,26.035 38.05,26.093 38.063,26.152 C 38.079,26.227 38.097,26.303 38.119,26.38 C 38.132,26.443 38.146,26.507 38.164,26.57 C 38.206,26.724 38.257,26.894 38.308,27.045 C 38.458,27.486 38.656,27.945 38.877,28.355 C 39.912,30.271 41.677,31.758 43.77,32.368 C 43.794,32.376 43.818,32.385 43.842,32.393 C 44.089,32.474 44.329,32.543 44.578,32.614 C 45.293,32.819 46.208,32.91 46.949,32.847 C 47.227,32.823 47.5,32.78 47.773,32.723 C 47.919,32.693 48.07,32.642 48.214,32.605 C 48.257,32.598 48.342,32.559 48.39,32.541 C 48.578,32.471 48.76,32.41 48.945,32.331 C 49.151,32.243 49.353,32.152 49.55,32.056 C 49.848,31.927 50.134,31.78 50.41,31.623 C 50.561,31.565 50.705,31.506 50.853,31.439 C 51.122,31.315 51.36,31.154 51.608,30.995 C 51.716,30.926 51.82,30.828 51.922,30.749 C 52.117,30.597 52.285,30.412 52.453,30.233 C 52.793,29.871 53.103,29.434 53.358,29.007 C 53.38,28.968 53.403,28.93 53.425,28.891 C 54.34,27.549 54.843,25.924 54.784,24.294 C 54.769,23.878 54.733,23.497 54.671,23.085 C 54.656,22.986 54.627,22.879 54.607,22.779 C 54.589,22.692 54.571,22.606 54.55,22.521 C 54.465,22.09 54.343,21.672 54.181,21.273 C 53.994,20.814 53.748,20.388 53.463,19.991 C 53.047,19.333 52.539,18.737 51.929,18.197 C 51.925,18.194 51.922,18.191 51.913,18.183 C 51.332,17.621 50.62,17.09 49.911,16.762 C 49.741,16.683 49.57,16.605 49.397,16.531 C 49.238,16.463 49.065,16.41 48.902,16.349 C 48.803,16.312 48.695,16.289 48.594,16.258 C 48.266,16.157 47.945,16.104 47.608,16.049 C 45.993,15.787 44.178,16.105 42.719,16.832 Z M 49.07,17.169 C 49.749,17.438 50.361,17.774 50.965,18.182 C 51.367,18.454 51.745,18.779 52.098,19.111 C 52.207,19.214 52.311,19.323 52.413,19.434 C 52.474,19.514 52.534,19.594 52.596,19.673 C 52.693,19.825 52.802,19.971 52.899,20.123 C 53.347,20.823 53.761,21.729 53.943,22.541 C 54.01,22.837 54.097,23.188 54.117,23.49 C 54.126,23.63 54.15,23.777 54.154,23.915 C 54.158,24.038 54.156,24.168 54.165,24.29 C 54.174,24.408 54.163,24.547 54.157,24.666 C 54.134,25.127 54.081,25.573 53.975,26.023 C 53.644,27.431 53.039,28.551 52.09,29.638 C 51.883,29.875 51.647,30.115 51.409,30.319 C 51.008,30.662 50.618,30.961 50.181,31.239 C 49.775,31.467 49.356,31.658 48.913,31.817 C 48.883,31.814 48.852,31.818 48.823,31.831 C 48.517,31.962 48.187,32.051 47.867,32.109 C 47.827,32.116 47.804,32.121 47.78,32.125 C 47.484,32.175 47.184,32.203 46.893,32.218 C 46.644,32.23 46.385,32.248 46.167,32.244 C 45.992,32.239 45.846,32.231 45.696,32.22 C 45.233,32.185 44.779,32.075 44.33,31.961 C 44.196,31.927 44.063,31.872 43.93,31.834 C 43.818,31.802 43.689,31.749 43.581,31.704 C 43.378,31.619 43.178,31.537 42.98,31.441 C 42.744,31.327 42.515,31.192 42.289,31.058 C 41.106,30.356 40.092,29.286 39.358,28.088 L 39.066,27.523 C 39.112,27.49 39.135,27.431 39.122,27.374 C 39.055,27.105 38.988,26.844 38.93,26.572 C 38.772,25.835 38.707,25.057 38.709,24.305 C 38.71,23.876 38.767,23.461 38.821,23.037 C 38.864,22.703 38.968,22.331 39.07,22.01 C 39.144,21.775 39.212,21.543 39.295,21.311 C 39.376,21.082 39.416,20.797 39.471,20.553 C 39.526,20.44 39.585,20.33 39.638,20.238 C 39.731,20.096 39.816,19.97 39.901,19.844 C 40.099,19.523 40.267,19.301 40.442,19.094 C 40.728,18.745 41.027,18.444 41.38,18.149 L 41.381,18.135 L 41.382,18.111 C 41.497,18.018 41.614,17.929 41.734,17.843 C 41.78,17.869 41.836,17.876 41.887,17.86 C 41.941,17.885 42.007,17.883 42.062,17.85 C 42.121,17.806 42.204,17.758 42.268,17.721 C 42.452,17.616 42.626,17.509 42.817,17.414 C 42.995,17.325 43.171,17.251 43.353,17.172 C 43.847,16.958 44.38,16.833 44.907,16.733 C 46.217,16.486 47.834,16.679 49.07,17.169 Z M 40.449,19.087 C 40.45,19.084 40.45,19.083 40.443,19.093 C 40.445,19.089 40.447,19.086 40.45,19.084 C 40.451,19.083 40.451,19.083 40.449,19.087 Z M 40.442,19.094 C 40.44,19.095 40.439,19.096 40.439,19.098 C 40.444,19.091 40.447,19.087 40.443,19.093 C 40.443,19.092 40.442,19.092 40.442,19.094 Z M 23.052,20.268 C 22.848,20.659 22.694,21.041 22.664,21.489 C 22.646,21.753 22.635,22.012 22.665,22.276 C 22.783,23.309 23.271,24.424 24.074,25.11 C 24.162,25.185 24.26,25.262 24.361,25.333 L 24.538,25.44 L 24.513,25.646 C 24.488,25.776 24.456,25.913 24.434,26.042 C 24.418,26.138 24.381,26.289 24.348,26.379 C 24.291,26.535 24.256,26.702 24.187,26.854 C 24.131,26.978 24.08,27.106 24.023,27.231 L 23.785,27.648 L 23.622,27.631 C 23.499,27.614 23.378,27.589 23.236,27.548 C 23.191,27.535 23.146,27.525 23.104,27.505 C 22.995,27.453 22.873,27.418 22.766,27.357 C 22.658,27.295 22.557,27.233 22.451,27.167 C 22.376,27.12 22.27,27.032 22.203,26.972 C 21.866,26.667 21.643,26.398 21.394,26.018 C 20.906,25.274 20.598,24.204 20.527,23.327 C 20.511,23.129 20.513,22.94 20.507,22.743 L 20.517,22.251 L 20.647,22.107 C 20.703,22.036 20.785,21.927 20.829,21.85 C 20.934,21.666 21.011,21.504 21.098,21.312 C 21.148,21.197 21.095,21.062 20.98,21.012 C 20.865,20.962 20.73,21.015 20.68,21.13 C 20.577,21.361 20.462,21.609 20.281,21.793 C 20.198,21.877 20.038,21.986 20.022,22.107 C 19.995,22.315 19.958,22.532 19.955,22.742 C 19.952,22.984 19.969,23.209 19.984,23.449 C 20.004,23.764 20.066,24.109 20.132,24.418 C 20.444,25.889 21.175,27.375 22.567,28.082 C 22.931,28.267 23.363,28.386 23.77,28.41 C 23.935,28.42 24.078,28.453 24.221,28.343 C 24.306,28.278 24.484,27.984 24.534,27.878 C 24.589,27.762 24.665,27.646 24.72,27.526 C 24.871,27.197 25.041,26.816 25.124,26.463 C 25.156,26.328 25.195,26.184 25.23,26.049 L 25.283,25.755 L 25.444,25.79 L 25.638,25.79 C 25.856,25.744 26.132,25.348 26.248,25.165 C 26.45,24.849 26.552,24.459 26.708,24.121 C 26.791,23.94 26.913,23.641 27.073,23.516 C 27.141,23.463 27.195,23.425 27.265,23.39 L 27.33,23.433 C 27.534,23.609 27.69,23.835 27.84,24.063 C 28.038,24.365 28.218,24.678 28.416,24.979 C 28.519,25.135 28.855,25.677 29.031,25.747 C 29.203,25.815 29.373,25.739 29.461,25.584 C 29.498,25.519 29.523,25.421 29.548,25.346 C 29.58,25.25 29.615,25.146 29.64,25.048 C 29.668,24.939 29.701,24.78 29.745,24.68 C 29.75,24.668 29.758,24.643 29.769,24.612 L 29.803,24.511 L 30.007,24.507 C 30.13,24.518 30.251,24.548 30.377,24.61 C 30.445,24.643 30.551,24.715 30.599,24.774 C 30.621,24.801 30.66,24.855 30.683,24.876 C 30.721,24.912 30.995,24.962 31.055,24.974 C 31.071,25.013 31.118,25.032 31.157,25.016 C 31.196,25 31.215,24.953 31.199,24.914 C 31.258,24.789 31.324,24.702 31.313,24.555 C 31.302,24.404 31.08,24.208 30.967,24.114 C 30.629,23.833 30.091,23.718 29.664,23.799 C 29.598,23.812 29.52,23.818 29.457,23.84 C 29.253,23.912 29.169,24.206 29.107,24.447 L 29.058,24.624 L 29.039,24.59 C 28.921,24.375 28.813,24.147 28.7,23.929 C 28.472,23.487 28.202,23.079 27.814,22.763 C 27.65,22.629 27.442,22.472 27.219,22.53 C 26.136,22.814 25.996,23.852 25.594,24.725 C 25.554,24.811 25.504,24.878 25.449,24.939 L 25.416,24.974 L 25.379,24.963 L 25.385,24.9 C 25.422,24.2 25.372,23.552 25.208,22.873 C 25.177,22.745 25.143,22.598 25.099,22.474 C 25.027,22.273 24.96,22.081 24.883,21.882 C 24.769,21.586 24.58,21.224 24.4,20.962 C 24.249,20.743 24.076,20.489 23.893,20.297 C 23.828,20.229 23.775,20.156 23.7,20.098 C 23.478,19.928 23.175,20.033 23.052,20.268 Z M 23.571,21.254 L 23.886,21.715 C 24.094,22.077 24.256,22.466 24.358,22.856 C 24.424,23.107 24.465,23.338 24.516,23.59 C 24.55,23.758 24.563,23.927 24.571,24.096 L 24.589,24.505 L 24.35,24.269 C 23.783,23.634 23.489,22.754 23.488,21.914 C 23.487,21.71 23.514,21.482 23.571,21.254 Z M 14.987,25.629 C 15.001,26.821 15,28.012 14.996,29.204 C 14.992,30.456 14.964,31.71 14.935,32.962 C 14.924,33.412 14.908,33.863 14.893,34.313 C 14.892,33.817 14.892,33.321 14.893,32.826 C 14.896,30.079 14.897,27.324 14.969,24.577 C 14.977,24.928 14.983,25.278 14.987,25.629 Z M 38.323,24.745 C 38.328,24.799 38.335,24.854 38.341,24.908 L 38.323,24.884 L 38.314,24.873 C 38.312,24.83 38.31,24.786 38.308,24.742 C 38.314,24.743 38.318,24.744 38.323,24.745 Z M 38.342,24.908 L 38.345,24.912 C 38.344,24.915 38.344,24.919 38.343,24.92 C 38.343,24.918 38.342,24.913 38.342,24.908 Z M 38.353,24.996 C 38.344,25.045 38.338,25.096 38.332,25.149 C 38.331,25.131 38.329,25.112 38.328,25.093 C 38.332,25.036 38.337,24.98 38.343,24.92 C 38.346,24.947 38.349,24.971 38.353,24.996 Z M 38.665,26.692 L 38.567,26.396 L 38.493,26.178 C 38.479,26.116 38.466,26.054 38.454,25.992 C 38.426,25.859 38.403,25.726 38.383,25.585 C 38.383,25.489 38.387,25.387 38.393,25.29 C 38.463,25.757 38.557,26.223 38.665,26.692 Z M 62.087,28.181 C 62.09,28.513 62.102,28.849 62.099,29.18 C 62.097,29.363 62.096,29.553 62.098,29.741 C 62.054,29.786 62.027,29.847 62.027,29.915 C 62.012,30.775 62.011,31.634 61.987,32.494 C 61.958,33.501 61.905,34.516 61.894,35.522 C 61.882,36.644 61.872,37.768 61.863,38.89 C 61.859,39.364 61.863,39.84 61.855,40.314 C 61.841,41.208 61.837,42.108 61.84,43.002 C 61.843,43.773 61.829,44.546 61.829,45.317 C 61.83,47.272 61.82,49.226 61.831,51.181 C 61.838,52.342 61.837,53.504 61.855,54.665 C 61.863,55.19 61.875,55.732 61.878,56.247 C 61.878,57.022 61.89,57.799 61.89,58.576 C 61.89,61.164 61.901,63.756 61.867,66.342 C 61.858,67.067 61.861,67.793 61.855,68.518 C 61.852,68.958 61.843,69.4 61.844,69.84 C 61.844,70.066 61.846,70.305 61.843,70.539 C 61.817,70.555 61.797,70.579 61.787,70.609 C 61.747,70.708 61.709,70.809 61.67,70.912 C 61.676,70.039 61.688,69.167 61.703,68.299 C 61.732,66.536 61.74,64.772 61.751,63.008 C 61.76,61.601 61.746,60.193 61.755,58.785 C 61.778,55.137 61.766,51.489 61.786,47.841 C 61.819,41.896 61.852,35.95 61.87,30.005 C 61.87,29.88 61.769,29.777 61.644,29.777 C 61.634,29.777 61.625,29.777 61.616,29.778 C 61.619,29.76 61.622,29.742 61.626,29.724 C 61.697,29.304 61.774,28.878 61.831,28.457 C 61.868,28.183 61.89,27.903 61.918,27.628 C 61.962,27.189 62.007,26.751 62.052,26.311 C 62.067,26.936 62.08,27.559 62.087,28.181 Z M 21.552,35.932 C 21.537,36.079 21.644,36.212 21.791,36.227 C 22.367,36.283 22.941,36.351 23.518,36.397 C 24.91,36.507 26.299,36.565 27.694,36.629 C 28.384,36.66 29.079,36.694 29.769,36.712 C 31.457,36.756 33.135,36.806 34.816,36.978 C 35.035,36.997 35.23,36.834 35.249,36.615 C 35.268,36.396 35.105,36.201 34.886,36.182 C 33.589,36.046 32.27,35.998 30.967,35.969 C 30.587,35.961 30.205,35.946 29.825,35.942 C 29.351,35.937 28.875,35.948 28.4,35.95 C 27.268,35.954 26.134,35.954 25.002,35.92 C 24.241,35.897 23.483,35.845 22.724,35.783 C 22.431,35.759 22.139,35.721 21.847,35.693 C 21.7,35.678 21.567,35.785 21.552,35.932 Z M 19.925,41.557 C 19.889,41.614 19.88,41.668 19.907,41.731 C 19.964,41.864 20.086,41.844 20.209,41.847 C 20.283,41.849 20.364,41.846 20.438,41.852 C 20.66,41.869 20.9,41.864 21.124,41.87 C 21.508,41.881 21.892,41.893 22.275,41.909 C 25.267,42.034 28.258,42.255 31.251,42.331 C 33.271,42.382 35.29,42.455 37.31,42.495 C 41.726,42.583 46.125,42.584 50.538,42.38 C 50.742,42.371 50.9,42.197 50.891,41.993 C 50.882,41.789 50.708,41.631 50.504,41.64 C 48.359,41.738 46.211,41.803 44.063,41.82 L 41.916,41.82 C 40.937,41.812 39.954,41.818 38.975,41.794 C 37.808,41.765 36.638,41.755 35.47,41.731 C 33.665,41.694 31.86,41.622 30.056,41.584 C 27.775,41.536 25.498,41.532 23.217,41.515 C 22.693,41.511 22.17,41.504 21.647,41.497 L 21.107,41.49 L 21.04,41.472 C 20.976,41.455 20.914,41.44 20.858,41.436 C 20.742,41.428 20.62,41.441 20.508,41.433 C 20.421,41.427 20.333,41.397 20.246,41.403 C 20.167,41.408 19.964,41.495 19.925,41.557 Z M 14.377,47.156 C 14.404,47.732 14.419,48.316 14.468,48.891 C 14.484,49.089 14.505,49.286 14.527,49.482 C 14.436,49.782 14.368,50.091 14.333,50.393 C 14.308,50.598 14.296,50.8 14.295,50.996 C 14.282,50.941 14.269,50.886 14.258,50.832 C 14.262,49.8 14.266,48.767 14.281,47.737 C 14.292,46.961 14.302,46.186 14.312,45.411 C 14.328,45.993 14.349,46.575 14.377,47.156 Z M 51.058,46.523 C 49.332,46.705 47.597,46.835 45.864,46.922 C 44.547,46.988 43.226,47.034 41.908,47.067 C 41.367,47.08 40.825,47.083 40.284,47.094 C 39.485,47.11 38.687,47.101 37.888,47.112 C 36.526,47.131 35.155,47.092 33.792,47.077 C 31.943,47.056 30.084,47.001 28.235,46.93 C 26.848,46.877 25.459,46.827 24.072,46.757 C 23.067,46.706 22.059,46.651 21.054,46.607 C 20.937,46.601 20.836,46.692 20.83,46.809 C 20.824,46.926 20.915,47.027 21.032,47.033 C 22.063,47.078 23.095,47.139 24.125,47.192 C 24.981,47.236 25.84,47.267 26.696,47.318 C 27.174,47.347 27.66,47.367 28.139,47.384 C 28.903,47.411 29.667,47.456 30.432,47.482 C 32.202,47.542 33.975,47.628 35.746,47.659 C 37.822,47.695 39.891,47.744 41.968,47.74 C 44.829,47.734 47.667,47.655 50.521,47.461 C 51.143,47.419 51.771,47.364 52.391,47.3 C 52.874,47.25 53.355,47.172 53.837,47.12 C 54.088,47.088 54.267,46.857 54.235,46.606 C 54.203,46.355 53.972,46.176 53.721,46.208 C 52.833,46.313 51.947,46.429 51.058,46.523 Z M 15.667,50.398 C 15.638,50.427 15.638,50.477 15.667,50.506 L 15.775,50.506 C 16.13,50.144 16.49,49.787 16.85,49.43 C 16.879,49.401 16.879,49.351 16.85,49.322 L 16.742,49.322 C 16.382,49.679 16.022,50.036 15.667,50.398 Z M 27.712,51.96 C 26.979,52.436 26.263,52.982 25.607,53.559 C 25.212,53.906 24.831,54.268 24.448,54.627 C 23.79,55.244 23.138,55.865 22.472,56.472 C 22.207,56.713 21.921,56.932 21.655,57.17 C 21.624,57.196 21.62,57.244 21.646,57.275 C 21.672,57.306 21.72,57.31 21.751,57.284 C 22.031,57.034 22.332,56.798 22.616,56.55 C 23.197,56.043 23.768,55.522 24.345,55.009 C 24.718,54.677 25.098,54.355 25.475,54.028 C 26.339,53.279 27.221,52.562 28.209,51.981 C 28.421,51.856 28.653,51.729 28.877,51.628 C 28.946,51.594 28.973,51.509 28.939,51.44 C 28.905,51.371 28.82,51.344 28.751,51.378 C 28.401,51.536 28.034,51.751 27.712,51.96 Z M 18.325,53.737 C 17.906,54.05 17.662,54.384 17.362,54.811 C 17.321,54.869 17.334,54.952 17.392,54.993 C 17.45,55.034 17.533,55.021 17.574,54.963 C 17.933,54.455 18.202,54.109 18.743,53.793 C 18.807,53.757 18.829,53.675 18.793,53.611 C 18.757,53.547 18.675,53.525 18.611,53.561 C 18.519,53.6 18.405,53.677 18.325,53.737 Z M 20.061,53.853 C 19.901,54.029 19.747,54.217 19.594,54.402 C 19.388,54.651 19.169,54.906 18.978,55.164 C 18.904,55.264 18.783,55.394 18.727,55.499 C 18.694,55.545 18.706,55.611 18.752,55.644 C 18.798,55.677 18.864,55.665 18.897,55.619 C 19.009,55.444 19.176,55.252 19.313,55.091 C 19.519,54.849 19.724,54.605 19.94,54.372 C 20.036,54.269 20.146,54.166 20.235,54.061 C 20.321,53.96 20.43,53.875 20.524,53.782 C 20.581,53.728 20.584,53.635 20.53,53.578 C 20.476,53.521 20.383,53.518 20.326,53.572 C 20.241,53.635 20.134,53.772 20.061,53.853 Z M 21.491,53.672 C 20.985,54.263 20.376,54.768 19.88,55.373 C 19.761,55.518 19.652,55.669 19.545,55.823 C 19.47,55.931 19.42,56.053 19.354,56.163 C 19.317,56.234 19.345,56.324 19.416,56.361 C 19.487,56.398 19.577,56.37 19.614,56.299 C 19.681,56.144 19.789,55.985 19.889,55.85 C 20.192,55.438 20.531,55.123 20.903,54.774 C 21.101,54.588 21.308,54.408 21.503,54.22 C 21.593,54.134 21.684,54.031 21.779,53.952 C 21.856,53.873 21.854,53.745 21.775,53.668 C 21.696,53.591 21.568,53.593 21.491,53.672 Z M 20.496,58.219 C 21.479,58.608 22.482,58.878 23.504,59.046 C 23.475,59.082 23.447,59.118 23.419,59.155 C 23.391,59.189 23.397,59.241 23.431,59.269 C 23.465,59.297 23.517,59.291 23.545,59.257 C 23.594,59.196 23.643,59.136 23.693,59.076 C 24.503,59.2 25.326,59.26 26.161,59.266 C 26.371,59.267 26.586,59.264 26.804,59.256 C 26.527,59.544 26.258,59.839 25.997,60.144 C 25.971,60.173 25.974,60.22 26.003,60.246 C 26.032,60.272 26.079,60.269 26.105,60.24 C 26.401,59.895 26.708,59.565 27.026,59.247 C 27.483,59.225 27.943,59.184 28.377,59.122 C 28.393,59.119 28.41,59.117 28.427,59.114 C 28.425,59.311 28.421,59.514 28.406,59.708 C 28.393,59.859 28.396,60.022 28.387,60.175 C 28.372,60.418 28.363,60.664 28.355,60.908 C 28.223,61.046 28.09,61.186 27.969,61.328 C 27.942,61.357 27.944,61.405 27.973,61.432 C 28.002,61.459 28.05,61.457 28.077,61.428 C 28.159,61.33 28.251,61.229 28.348,61.13 C 28.341,61.307 28.333,61.483 28.322,61.658 C 28.299,62.002 28.289,62.349 28.28,62.695 C 28.092,63.398 27.927,64.106 27.791,64.813 C 27.596,65.82 27.475,66.83 27.508,67.855 C 27.513,68.033 27.527,68.218 27.547,68.404 C 27.529,68.417 27.511,68.431 27.493,68.445 C 27.108,67.971 26.74,67.487 26.369,67.004 C 26.698,66.681 27.036,66.367 27.356,66.034 C 27.42,65.968 27.418,65.86 27.352,65.796 C 27.286,65.732 27.178,65.734 27.114,65.8 C 26.864,66.061 26.607,66.317 26.362,66.583 C 26.304,66.645 26.246,66.706 26.186,66.767 C 26.121,66.683 26.056,66.599 25.991,66.515 C 25.694,66.134 25.398,65.752 25.105,65.368 C 25.223,65.254 25.371,65.163 25.542,65.07 C 25.606,65.035 25.688,64.989 25.746,64.947 C 25.808,64.901 25.886,64.859 25.944,64.812 C 26.011,64.758 26.084,64.672 26.147,64.626 C 26.196,64.574 26.193,64.489 26.141,64.44 C 26.089,64.391 26.004,64.394 25.955,64.446 C 25.895,64.498 25.853,64.57 25.783,64.62 C 25.494,64.828 25.212,64.956 24.957,65.176 C 24.731,64.879 24.506,64.582 24.281,64.284 C 24.505,64.068 24.729,63.852 24.948,63.632 C 24.994,63.586 24.994,63.51 24.948,63.464 L 24.78,63.464 C 24.565,63.674 24.355,63.889 24.146,64.106 C 23.826,63.68 23.507,63.254 23.19,62.828 C 23.388,62.638 23.582,62.442 23.775,62.261 C 23.827,62.21 23.827,62.124 23.776,62.072 C 23.725,62.02 23.639,62.02 23.587,62.071 C 23.403,62.253 23.226,62.444 23.043,62.63 C 22.814,62.322 22.586,62.014 22.358,61.706 C 22.282,61.603 22.206,61.501 22.129,61.398 C 22.207,61.351 22.281,61.312 22.335,61.301 C 22.402,61.282 22.44,61.21 22.421,61.143 C 22.402,61.076 22.33,61.038 22.263,61.057 C 22.219,61.056 22.061,61.159 21.99,61.21 C 21.68,60.795 21.368,60.38 21.052,59.97 C 21.064,59.963 21.077,59.956 21.089,59.949 C 21.26,59.848 21.73,59.54 21.942,59.554 C 22.027,59.533 22.078,59.446 22.057,59.361 C 22.036,59.276 21.949,59.225 21.864,59.246 C 21.461,59.364 21.216,59.554 20.903,59.779 C 20.891,59.763 20.879,59.748 20.868,59.733 C 20.319,59.03 19.766,58.319 19.194,57.625 C 19.62,57.849 20.064,58.048 20.496,58.219 Z M 20.107,59.678 C 20.215,59.819 20.324,59.961 20.432,60.103 C 20.408,60.117 20.384,60.131 20.361,60.143 C 20.019,59.676 19.675,59.21 19.333,58.745 C 19.184,58.543 19.036,58.342 18.879,58.13 C 19.306,58.648 19.712,59.163 20.107,59.678 Z M 31.056,59.236 C 30.831,59.548 30.603,59.86 30.384,60.176 C 30.336,60.243 30.352,60.337 30.419,60.385 C 30.486,60.433 30.58,60.417 30.628,60.35 C 30.847,60.034 31.075,59.722 31.3,59.41 C 31.348,59.343 31.332,59.249 31.265,59.201 C 31.198,59.153 31.104,59.169 31.056,59.236 Z M 21.538,61.559 C 21.504,61.585 21.471,61.61 21.438,61.635 C 21.426,61.619 21.414,61.602 21.402,61.585 C 21.1,61.159 20.794,60.736 20.487,60.315 C 20.512,60.301 20.537,60.287 20.562,60.273 C 20.888,60.701 21.214,61.13 21.538,61.559 Z M 44.974,60.955 C 44.384,60.973 43.795,60.988 43.205,61.007 C 42.855,61.018 42.505,61.021 42.155,61.039 C 41.64,61.066 41.125,61.103 40.61,61.134 C 39.948,61.174 39.284,61.2 38.622,61.232 C 37.058,61.308 35.486,61.311 33.921,61.299 C 33.864,61.299 33.816,61.345 33.816,61.402 C 33.816,61.459 33.862,61.507 33.919,61.507 C 34.692,61.505 35.47,61.534 36.243,61.549 C 37.387,61.571 38.532,61.591 39.676,61.621 C 40.285,61.637 40.894,61.651 41.504,61.661 C 41.854,61.667 42.207,61.683 42.557,61.674 C 45.577,61.598 48.597,61.525 51.616,61.436 C 51.805,61.431 51.955,61.271 51.95,61.082 C 51.945,60.893 51.785,60.743 51.596,60.748 C 49.388,60.813 47.181,60.888 44.974,60.955 Z M 22.635,63.022 C 22.618,63.037 22.601,63.052 22.584,63.066 C 22.314,62.747 22.047,62.426 21.783,62.103 C 21.748,62.06 21.713,62.018 21.678,61.975 C 21.635,61.914 21.592,61.854 21.55,61.794 C 21.586,61.769 21.622,61.743 21.658,61.718 C 21.984,62.152 22.31,62.586 22.635,63.022 Z M 23.303,63.915 C 23.111,63.69 22.92,63.465 22.729,63.239 C 22.743,63.228 22.757,63.216 22.771,63.205 C 22.947,63.442 23.125,63.678 23.303,63.915 Z M 28.295,66.185 C 28.319,66.579 28.342,66.968 28.375,67.361 C 28.409,67.769 28.471,68.179 28.532,68.584 C 28.59,68.965 28.659,69.374 28.758,69.746 C 28.779,69.829 28.801,69.912 28.823,69.993 L 28.821,69.996 C 28.68,69.841 28.541,69.683 28.403,69.525 C 28.384,69.461 28.367,69.399 28.353,69.339 C 28.205,68.734 28.125,68.102 28.117,67.479 C 28.113,67.172 28.095,66.865 28.108,66.557 C 28.132,65.968 28.179,65.396 28.258,64.811 C 28.26,65.271 28.267,65.726 28.295,66.185 Z M 29.449,67.259 C 29.364,67.351 29.267,67.434 29.17,67.516 C 29.167,67.489 29.164,67.462 29.162,67.435 C 29.151,67.335 29.142,67.235 29.133,67.135 C 29.208,67.224 29.325,67.275 29.449,67.259 Z M 29.071,70.856 C 29.087,70.905 29.104,70.955 29.122,71.004 C 29.05,70.902 28.983,70.801 28.919,70.696 C 28.97,70.75 29.021,70.803 29.071,70.856 Z M 61.737,72.816 C 61.732,72.733 61.729,72.65 61.716,72.571 C 61.698,72.468 61.681,72.364 61.665,72.258 C 61.665,72.102 61.665,71.947 61.665,71.792 C 61.705,71.676 61.744,71.561 61.783,71.448 C 61.807,71.877 61.886,72.508 61.737,72.816 Z M 61.311,73.085 C 61.321,73.152 61.327,73.222 61.332,73.293 C 61.317,73.303 61.303,73.313 61.289,73.323 C 61.304,73.24 61.312,73.147 61.307,73.059 C 61.308,73.067 61.309,73.076 61.311,73.085 Z" fill="#000000" fill-rule="evenodd" marker-end="none" marker-start="none" stroke="none" stroke-miterlimit="79.8403193612775" stroke-width="0.5"/></g></g></g></svg>