<?xml version="1.0" ?><!DOCTYPE svg  PUBLIC '-//W3C//DTD SVG 1.1//EN'  'http://www.w3.org/Graphics/SVG/1.1/DTD/svg11.dtd'><svg enable-background="new 0 0 512 512" height="512px" id="Layer_1" version="1.1" viewBox="0 0 512 512" width="512px" xml:space="preserve" xmlns="http://www.w3.org/2000/svg" xmlns:xlink="http://www.w3.org/1999/xlink"><g><g><path d="M253.086,86.483c-0.045,0-0.086,0-0.124-0.005c-0.022,0.002-0.04,0.002-0.058,0.001v0.006    c-2.033-0.002-4.095,0.379-6.088,1.204c-8.114,3.362-11.965,12.665-8.606,20.775c2.533,6.12,8.452,9.807,14.685,9.809l0.004,0.007    c37.61,0,72.97,14.65,99.568,41.243c26.571,26.572,41.217,61.881,41.247,99.446c0,0.009,0,0.023,0,0.031c0,0.032,0,0.06,0,0.091    h0.005c0,2.028,0.382,4.094,1.206,6.084c3.358,8.111,12.664,11.968,20.776,8.606c6.119-2.535,9.806-8.454,9.811-14.689    l0.005-0.001c0-46.104-17.961-89.45-50.561-122.053C342.387,104.478,299.118,86.532,253.086,86.483z"/><path d="M435.398,76.597C386.692,27.891,321.954,1.051,253.083,1.006c-0.04-0.001-0.079-0.004-0.119-0.004    C252.942,1,252.924,1,252.901,1v0.009c-2.027-0.004-4.094,0.377-6.086,1.203c-8.111,3.358-11.967,12.663-8.603,20.774    c2.532,6.12,8.452,9.807,14.688,9.809l-0.004,0.008c60.445,0,117.274,23.537,160.016,66.279    c42.743,42.742,66.282,99.57,66.282,160.011l0.01-0.001c0,2.03,0.381,4.091,1.201,6.083c3.363,8.113,12.663,11.968,20.777,8.605    c6.118-2.533,9.801-8.452,9.81-14.69l0.005,0.003C510.998,190.157,484.151,125.347,435.398,76.597z"/><path d="M252.899,203.755l0.006,0.007c14.773-0.003,28.669,5.753,39.123,16.206c10.452,10.45,16.206,24.345,16.212,39.123    l0.007-0.003c-0.004,2.033,0.378,4.099,1.203,6.09c3.358,8.11,12.662,11.966,20.771,8.604c6.123-2.535,9.805-8.454,9.809-14.692    l0.005,0.001c0.005-23.277-9.063-45.154-25.519-61.613c-16.398-16.397-38.177-25.441-61.355-25.509    c-0.07,0.001-0.137-0.008-0.208-0.008c-0.019,0-0.036-0.003-0.054-0.003v0.007c-2.027,0-4.09,0.38-6.083,1.205    c-8.114,3.36-11.965,12.663-8.606,20.773C240.748,200.066,246.667,203.751,252.899,203.755z"/></g><path d="M23.004,264.301L23.004,264.301c25.955,42.843,59.255,85.554,99.229,125.497c39.91,39.97,82.614,73.26,125.494,99.211l0,0   c58.356,35.508,135.595,28.016,186.083-22.467l9.53-9.523c14.112-14.148,14.12-37.017,0.019-51.134   c-1.046-1.031-2.072-1.985-3.231-2.842l-63.095-49.669c-14.154-11.061-34.654-10.036-47.659,2.991l-3.015,3.013   c-22.587,22.53-56.832,25.63-82.958,9.738l0,0c-19.168-11.623-38.259-26.485-56.115-44.393   c-17.882-17.893-32.772-36.95-44.362-56.156l0,0c-15.906-26.096-12.825-60.33,9.692-82.913l2.987-2.962   c13.07-13.081,14.044-33.61,3.007-47.74l-49.647-63.104c-0.896-1.127-1.838-2.164-2.859-3.218   C92.04,54.511,69.093,54.537,55.025,68.648l-9.583,9.537C-5.018,128.677-12.519,205.879,23.004,264.301z"/></g></svg>